<?xml version="1.0" standalone="no"?>
<!DOCTYPE svg PUBLIC "-//W3C//DTD SVG 1.1//EN" "http://www.w3.org/Graphics/SVG/1.1/DTD/svg11.dtd" >
<svg xmlns="http://www.w3.org/2000/svg">
<metadata>
This is a custom SVG webfont generated by Font Squirrel.
Designer    : Anton Scholtz
Foundry     : Scholtz Fonts
</metadata>
<defs>
<font id="webfontIFwL6ncF" horiz-adv-x="1487" >
<font-face units-per-em="1000" ascent="800" descent="-200" />
<missing-glyph horiz-adv-x="450" />
<glyph unicode=" "  horiz-adv-x="450" />
<glyph unicode="&#x09;" horiz-adv-x="450" />
<glyph unicode="&#xa0;" horiz-adv-x="450" />
<glyph unicode="!" horiz-adv-x="489" d="M374 1097q0 5 15.5 10.5t37.5 10.5t45 8.5t40 3.5t20 -3t3 -12q0 -24 -8.5 -46t-24 -56t-38 -88.5t-49.5 -144.5l-43 -144l-42 -140l-42 -140l-46 -143q-2 -3 -8 -6.5t-13.5 -6.5t-15.5 -5.5t-13 -2.5t-5 3q18 74 37 141l37 142l39 162q21 87 45 200q1 7 4 26.5t6 45.5 l7 56l6 55q3 26 4.5 46t1.5 28zM220 125q1 -1 1 -2.5t-0.5 -6t0.5 -11.5t6 -19q-3 -12 -3 -24v-12q3 -17 -0.5 -30.5t-19.5 -21.5q-15 -7 -50 -7h-9q-10 0 -20 15q-6 8 -6 20q0 8 3 17q3 11 13.5 26t24.5 28t30 21q13 7 25 7h5z" />
<glyph unicode="&#x22;" horiz-adv-x="381" d="M430 925q-28 -23 -46 -63q-10 -22 -10 -48q0 -20 6 -42q0 -1 -13 -1h-22q-15 0 -22 16.5t-13 36.5q-5 16 -9.5 34t-5.5 34v7q0 11 2 18q3 10 13 10h24h40q22 0 39 -0.5t17 -1.5zM588 922q-17 -8 -38.5 -23t-42 -34t-36 -40t-19.5 -41q-2 -8 -2 -11q0 -1 -14 -1.5 t-23 -0.5q-17 0 -17 22q0 23 13 55q12 30 30.5 54t34.5 24h22q19 0 39.5 -0.5t36.5 -1.5t16 -2z" />
<glyph unicode="#" horiz-adv-x="865" d="M675 630q10 25 32 46t42 37q1 1 6 5.5t10 8t9 4t4 -5.5l-44 -108l-42 -109q108 -1 218 -9q0 -6 -6.5 -14t-14.5 -16t-16.5 -14t-13.5 -8q-36 -2 -72.5 -6t-72.5 -6l-51 -3l-43 -116q58 -2 115 -4.5t115 -6.5q0 -6 -6.5 -14t-14.5 -16t-16.5 -14t-13.5 -8 q-106 -8 -208 -12l-40 -99l-41 -99q-2 -3 -10.5 -13t-18.5 -19t-17 -14q-2 -2 -3 -2q-2 0 0 4q11 32 20 64.5t20 64.5l19 56l19 55q-37 -2 -73 -3l-74 -2l-37 -94l-39 -93q-2 -3 -10.5 -13t-18.5 -19t-16.5 -14t-3.5 2l77 229q-51 -2 -100.5 -3.5t-100.5 -3.5q-2 2 -2 5 q0 1 1 4q2 5 6.5 11t9 11t6.5 7q6 6 15.5 17t21 21.5t22.5 18.5t20 8q32 -2 65 -3l66 -2l16 50l18 51q-51 -2 -101 -5.5t-100 -5.5q-3 3 -1 8.5t6.5 11.5t9 11t6.5 7q6 6 15.5 17t21 21.5t22.5 18.5t20 8q32 -2 65 -2.5t65 -1.5l42 122q10 25 32 46t42 37q1 1 6 5.5t10 8 t9 3.5q0 1 1 1q3 0 3 -6q-23 -54 -44 -109l-42 -109l138 -2zM426 322q35 -1 70 -1.5t70 -2.5l20 56l20 56q-35 -1 -70.5 -1.5t-70.5 -2.5z" />
<glyph unicode="$" horiz-adv-x="1286" d="M828 999l12 15q8 12 18.5 24t20.5 22t15 10q3 0 4 -4q-14 -57 -31 -111t-37 -108l47 7q6 0 9 1l25 64l24 64l11 15q9 12 20 24l20 22q9 10 14 10q4 0 4 -4q-24 -98 -57 -188q22 2 38 2h34q26 0 38 -10.5t14 -33.5q-4 -17 -10.5 -36t-14.5 -36t-15.5 -28t-12.5 -11 q-7 0 -7 20q0 19 6 61q-14 17 -36.5 24.5t-47.5 9.5q-19 -53 -40 -104l-41 -102l-13 -32q73 -9 147 -20.5t133 -32t96 -52.5t37 -81q0 -50 -22.5 -94t-58.5 -76q-92 -83 -195.5 -141.5t-215.5 -95.5q-42 -14 -84 -26t-86 -21l-14 -39l-12 -39q-2 -6 -11 -18t-20 -24.5 t-22.5 -22t-17.5 -9.5q7 36 15 71t17 70q-14 -2 -26.5 -3t-26.5 -2l-15 -46q-2 -6 -10.5 -18t-20 -24.5t-22.5 -22t-17 -9.5l12 61q6 30 14 59q-42 2 -93.5 12t-97 29.5t-76.5 49t-31 70.5v11q6 55 44 98.5t98 76.5t138 57t166 40l28 67l29 67l12 30l14 30q-47 3 -88 6.5 t-71.5 10t-48 17.5t-17.5 29q0 40 31 72t80.5 57t111 43.5t122.5 31.5q34 79 64 164zM821 407q17 0 17 -6q0 -5 -6.5 -10t-14.5 -10q-10 -6 -21 -12q-11 0 -22.5 -0.5t-23.5 -0.5l-80 -201q-38 -100 -73 -202q78 12 149.5 36t146.5 60q40 19 88.5 46t90 62.5t69.5 79.5 t28 98q0 55 -29 92.5t-76.5 61t-109.5 36t-128 18.5l-32 -77l-30 -76zM234 136q0 -81 48 -128t137 -53q26 100 59.5 196.5t71.5 193.5q-57 -10 -111.5 -25.5t-98 -37.5t-72 -50.5t-32.5 -64.5q-1 -8 -1.5 -15.5t-0.5 -15.5zM526 685q0 -30 38 -47.5t99 -28.5l94 209 q-43 -5 -84.5 -15t-74 -25.5t-52.5 -38.5t-20 -54zM531 -42q28 104 63 204t76 200l-37 -4l-79 -201q-38 -100 -73 -202q24 0 50 3zM770 594l52 115l51 117q-12 0 -25 -0.5t-27 -1.5l-37 -95l-38 -95l-14 -35q9 -2 18 -3zM755 561l-38 2l-72 -176q10 2 19 3t19 2l21 50l21 50 z" />
<glyph unicode="%" horiz-adv-x="1002" d="M106 541q0 42 14 85l28 85q11 33 27 72.5t37 80t48 79t60 68t72.5 47.5t86.5 18q21 0 40.5 -22.5t35 -55.5t25 -71t9.5 -70q0 -8 -1.5 -17.5t-1.5 -18.5q0 -41 -30.5 -84.5t-75 -83t-93 -71.5t-84.5 -49l-32 -15q-17 -7 -36 -13t-38 -10t-37 -4q-26 0 -40 10.5t-14 39.5z M193 627q0 -13 5.5 -27.5t15 -26.5t22 -20t26.5 -8q25 0 53 11.5t55 31t51 45.5t42 54.5t29 57.5t11 56q0 3 -3.5 17.5t-10.5 34.5t-17.5 43t-23.5 42t-29.5 31.5t-35.5 12.5q-7 0 -9.5 5.5t-7.5 10.5q-31 -32 -62 -76.5t-55.5 -95t-40 -102t-15.5 -97.5zM457 60q0 42 14 86 l28 84q11 32 27 72t37 80.5t48 79t60 68t72.5 47.5t86.5 18q21 0 40.5 -22.5t35 -55.5t25 -71t9.5 -70q0 -8 -1.5 -17.5t-1.5 -18.5q0 -41 -30.5 -84.5t-75 -83t-93 -71.5t-84.5 -49l-32 -14q-17 -8 -36 -14t-38 -10t-37 -4q-26 0 -40 10.5t-14 39.5zM544 146 q0 -13 5.5 -27.5t15 -26.5t22 -20t26.5 -8q25 0 53 11.5t55 31t51 45.5t42 54.5t29 57.5t11 56q0 3 -3.5 17.5t-10.5 34.5t-17.5 43t-23.5 42t-29.5 31.5t-35.5 12.5q-7 0 -9.5 5.5t-7.5 10.5q-31 -32 -62 -76.5t-55.5 -95t-40 -102t-15.5 -97.5zM836 1062q3 4 14 16l24 23 q13 12 25 21.5t17 9.5q3 0 3 -4q-51 -112 -113 -218l-129 -211l-229 -370q-113 -184 -216 -375q-3 -5 -14 -17t-25 -25t-26.5 -22.5t-18.5 -9.5q-2 0 -2 1q74 183 171 354t206 340l159 241q82 119 154 246z" />
<glyph unicode="&#x26;" horiz-adv-x="1219" d="M178 379q-8 -11 -17.5 -28t-9.5 -34q0 -13 11 -22t28.5 -14t38 -7.5t39.5 -2.5q10 0 19.5 0.5t17.5 1.5q33 51 74 92q66 66 138.5 125t153.5 110q8 47 24.5 101t45.5 99.5t71.5 76t101.5 30.5q46 0 74 -18.5t28 -48.5q0 -28 -15.5 -51t-40.5 -43.5t-56.5 -38.5 t-63.5 -34.5t-61.5 -33.5t-49.5 -34q0 -5 -0.5 -10t-0.5 -10q0 -48 1.5 -100t6.5 -99l22 8q34 13 69.5 23t70.5 21q20 6 47 12.5t52 6.5q30 0 39 -11.5t9 -30.5q-6 -41 -25.5 -72t-47.5 -64q-38 -45 -81 -88.5t-94 -81.5q34 -107 87 -210q30 -61 67 -122t88 -111 q19 -19 45.5 -37t52.5 -18q8 0 17 4t18 9q10 5 21 13q2 0 2 -2t-1 -3.5t-1 -2.5q-15 -32 -44 -45.5t-66 -13.5q-32 0 -63.5 18.5t-60 45.5t-53 57.5t-41.5 54.5q-51 72 -88.5 148.5t-63.5 157.5q-65 -38 -137 -60.5t-152 -22.5q-51 0 -85.5 8.5t-56.5 23.5t-31.5 36.5 t-9.5 48.5q0 30 7.5 64.5t21.5 64.5q-50 -9 -102 -9q-48 0 -66.5 13t-18.5 31q0 16 9 35.5t22.5 37.5t30.5 33t33 23zM659 333q-94 -29 -164 -53t-136 -44q-2 -9 -3 -21.5t-1 -21.5q0 -42 19.5 -66.5t48.5 -37t62 -16t60 -3.5q38 0 77.5 6.5t77.5 18.5q-17 58 -27 118.5 t-14 119.5zM377 288q70 16 140.5 36.5t139.5 37.5q-1 12 -1 24v25q0 35 2 75t6 75q0 5 2 8l-102 -70q-44 -31 -79 -62t-61.5 -66t-46.5 -83zM740 361q8 -56 20 -114t29 -112q27 16 55.5 40t52.5 52.5t39 59t15 58.5q0 23 -15 36t-38 13q-32 0 -69 -8t-64 -17zM752 766 q-10 -32 -15 -65.5t-7 -66.5q42 24 78 48l77 50q18 12 28 28t10 32q0 23 -23.5 40t-62.5 17q-35 0 -54.5 -22.5t-30.5 -60.5z" />
<glyph unicode="'" horiz-adv-x="230" d="M286 708q-15 -9 -33.5 -24.5t-35 -35.5t-27.5 -42.5t-11 -43.5v-6q0 -4 1 -6q0 -1 -14 -1.5t-23 -0.5q-15 0 -16.5 18t-1.5 38q0 17 1.5 36.5t5 35.5t10 26.5t16.5 10.5q4 0 24.5 -0.5t43.5 -1t41.5 -1.5t18.5 -2z" />
<glyph unicode="(" horiz-adv-x="615" d="M254 -143q-1 -8 -8.5 -18.5t-17.5 -20t-20.5 -16.5t-18.5 -7q-41 170 -41 330q0 129 28 264.5t82 265t133.5 246.5t183.5 209q4 3 14.5 12t24.5 18.5t29.5 17t27.5 7.5q13 0 21 -14q0 -5 -8 -15.5t-18.5 -21t-21 -18.5t-15.5 -8q-3 0 -3 3l-13 5q-32 -3 -54.5 -25 t-39.5 -47q-71 -103 -123 -220t-86 -241.5t-50 -253.5t-16 -256q0 -50 2.5 -98.5t7.5 -97.5z" />
<glyph unicode=")" horiz-adv-x="611" d="M498 1131q1 8 8.5 18.5t17.5 20t20.5 16.5t18.5 7q41 -170 41 -330q0 -129 -28 -264.5t-82 -265t-133.5 -246.5t-183.5 -209q-4 -3 -14.5 -12t-24.5 -18.5t-29.5 -17t-27.5 -7.5q-13 0 -21 14q0 5 8 15.5t18.5 21t21 18.5t15.5 8q3 0 3 -3l13 -5q32 3 54.5 25t39.5 47 q71 103 123 220t85.5 241.5t50 253.5t16.5 256q0 50 -2.5 98.5t-7.5 97.5z" />
<glyph unicode="*" horiz-adv-x="875" d="M399 609q2 0 4 -4q1 -11 10.5 -24.5t23.5 -28t29 -28.5l30 -27l24 57q11 30 25 58.5t32 53.5t44 44q2 0 2 -2q0 -1 -2 -7q-25 -48 -38 -103.5t-29 -109.5l-5 -17q57 46 115.5 87.5t123.5 71.5q6 2 7 2q2 0 2 -2q0 -3 -4.5 -9t-10.5 -12.5t-11.5 -11.5t-6.5 -5 q-49 -29 -94 -63l-89 -71q16 1 31.5 1.5t31.5 0.5q7 0 33.5 -1.5t55 -4.5t51.5 -8.5t23 -14.5q0 -6 -4.5 -13t-11 -13t-13.5 -10t-12 -5q-26 3 -50 3q-30 0 -60 -3t-59 -7q10 -20 25.5 -47t23.5 -55q5 -17 5 -33q0 -10 -2 -20q-5 -24 -36 -38q-2 0 -3 1q-17 23 -32 46.5 t-36 45.5l-38 38l-16 -47q-9 -23 -19.5 -46t-23.5 -44t-30 -39l-5 -5l-8 -7q-5 -4 -10 -7.5t-7 -3.5q13 25 22 53t16.5 57.5t13.5 59t14 58.5q-4 -4 -7.5 -7t-7.5 -6l-40 -33l-57.5 -45t-60 -40t-48.5 -17q-4 0 -4 2q0 3 5.5 9.5t12 13t13.5 12t10 6.5q19 7 38.5 21t39 30.5 t38.5 34.5t39 34q-28 -2 -55 -3.5t-57 -1.5q-25 0 -51.5 4t-43.5 18q-1 1 -1 3q0 6 4 12.5t10.5 12.5t14 10t13.5 5q10 -3 16 -4t14 -1q29 0 58 5.5t58 9.5q2 0 4.5 0.5t4.5 0.5q-8 10 -17.5 24t-17 29.5t-12.5 31.5t-5 31q0 17 9 32t31 25z" />
<glyph unicode="+" horiz-adv-x="575" d="M93 147q-1 4 -1 8q0 11 8 27q12 22 30.5 45.5t37.5 42t28 22.5q5 -29 21.5 -45t41.5 -22l22 85q11 42 25 85q9 4 29 7t42 4h6q19 0 35 -3q19 -3 27 -10l-41 -84q-20 -42 -38 -85q27 3 55.5 8t54.5 9t50 6q12 1 22.5 1t19.5 -1q-18 -8 -29 -20.5t-20.5 -24.5t-21 -20.5 t-30.5 -8.5q-38 -11 -69.5 -18t-57.5 -12l-22 -75q-11 -38 -28 -68q-3 -3 -14 -4q-9 -2 -18 -2h-6q-13 1 -22.5 2.5t-9.5 4.5q0 33 4.5 66t11.5 65q-21 0 -39 2l-35 4l-33 6q-17 2 -36 3z" />
<glyph unicode="," horiz-adv-x="359" d="M102 -129q-2 -1 -2.5 -2t-2.5 -1q-6 0 -6 6v7q0 4 3 6q8 5 25.5 20.5t35 34.5t31 37t13.5 29q0 6 -7 11l-17 11q-9 5 -17 10.5t-8 11.5q1 11 9 23t18.5 21.5t22.5 16t23 6.5q2 0 3.5 -0.5t3.5 -0.5q3 -1 9.5 -3t13.5 -5t12 -6.5t5 -8.5q0 -8 -3.5 -20t-3.5 -20q0 -5 2 -6 q-4 -23 -19.5 -49t-38.5 -50.5t-50.5 -45.5t-54.5 -33z" />
<glyph unicode="-" horiz-adv-x="553" d="M113 150q-2 3 -2 8q0 10 9 24q11 22 27.5 44t34 39.5t25.5 20.5q6 -33 26.5 -47.5t50.5 -18.5q14 -2 29 -2q18 0 37 2q35 5 71 11.5t69 10.5q20 3 36 3q11 0 21 -1q-16 -7 -26 -18.5t-19 -23t-19.5 -19.5t-27.5 -8q-82 -24 -133 -31q-46 -7 -79 -7h-8q-35 1 -62 6t-60 7z " />
<glyph unicode="." horiz-adv-x="437" d="M248 125q1 -1 0 -7.5t-2 -14t0.5 -13t9.5 -4.5q-3 -12 -10 -22t-5 -20q-2 -6 -1 -15.5t-4 -18t-20 -14.5q-14 -5 -42 -5h-10t-11 4t-10.5 11t-6.5 16v6q0 7 3 15q4 11 15.5 26t27 28t32.5 21q15 7 28 7h6z" />
<glyph unicode="/" horiz-adv-x="630" d="M599 1147q3 4 15 15l24 24q12 12 24 21.5t17 9.5q3 0 3 -4q-51 -112 -114 -217l-128 -212l-228 -370q-114 -184 -217 -375q-3 -5 -14 -17t-25 -25t-26.5 -22.5t-18.5 -9.5q-2 0 -2 1q74 183 171 354t206 340l160 240q81 120 153 247z" />
<glyph unicode="0" horiz-adv-x="913" d="M776 744q-1 -6 -7 -12.5t-14 -13t-17 -12.5l-16 -11q50 -9 82 -29q58 -37 90.5 -94.5t32.5 -122.5q0 -58 -19.5 -113t-52.5 -105.5t-76.5 -96t-91.5 -83.5q-38 -30 -79.5 -59t-87 -51.5t-95.5 -36t-104 -13.5q-69 0 -116 22t-76.5 57t-42 79t-12.5 88q0 66 16.5 138.5 t48 142t78 132.5t106.5 110.5t133 75.5t159 28q41 0 81.5 -6.5t79.5 -13.5zM502 686q8 3 18 5.5t21 4.5q-15 2 -29 3.5t-27 1.5q-52 0 -96 -22.5t-80 -59t-63 -84t-45.5 -97.5t-28 -99t-9.5 -89q0 -49 16 -96.5t50 -84.5t85.5 -59.5t122.5 -22.5q84 0 159.5 33t132 88 t89.5 127.5t33 151.5q0 46 -16.5 93t-48 84.5t-78.5 61.5t-108 24q-51 0 -80 -12t-42.5 -30.5t-13.5 -40.5t7 -43q-20 7 -35 26q-16 21 -16 45t18 48q18 25 64 43zM471 521v3v-3zM471 521h1h-1z" />
<glyph unicode="1" horiz-adv-x="722" d="M291 46q63 94 107 195t72.5 190t41.5 156.5t13 93.5q0 10 -5 10q-6 0 -31 -21.5t-55.5 -53t-60 -67.5t-45.5 -65q0 1 -4 4t-8.5 6t-8.5 6t-4 5q0 13 -4.5 24t-8 23t-3 26.5t9.5 35.5q43 21 89 50t85 57t65.5 51t31.5 31h7q19 0 37 -2.5t32 -7.5t23 -12t9 -16q0 -5 -3 -18 q-17 -68 -54.5 -152t-82.5 -173l-90 -176q-45 -87 -77 -160t-43 -126q-4 -18 -4 -32q0 -29 16 -44q6 -6 0.5 -13t-18 -13.5t-29.5 -11.5t-33 -8q-17 -4 -34 -6.5t-34 -6.5q-15 -3 -28 -6.5t-23 -8.5q-8 1 -10.5 5.5t-2.5 9.5v7q0 2 1 3z" />
<glyph unicode="2" horiz-adv-x="987" d="M245 58l-24 18q-11 8 -22 14q-35 -20 -67.5 -34.5t-49.5 -14.5t-25 8t-8 28q0 21 13 41.5t34 37t47.5 27t53.5 10.5q22 0 38.5 -7t31.5 -18l127 76q65 39 128 81.5t119.5 87t99 89t67.5 88.5t25 87q0 20 -13 36t-34.5 26.5t-48.5 15.5q-19 4 -39 4l-15 -1 q-66 -4 -110 -13.5t-75 -22.5t-52 -29l-39 -32q0 -3 5.5 -10.5t14.5 -16t20 -16.5t21 -13q-53 -23 -84 -25q-10 -1 -18 -1q-19 0 -31 4q-20 7 -29 24q28 42 82.5 82.5t121 72t137.5 50.5t131 19q33 0 61.5 -6.5t49 -21t32 -37.5t11.5 -56q0 -52 -35 -105.5t-90.5 -106.5 t-126 -104t-141.5 -96.5t-137 -83.5l-110 -66l12 -8l138 -102q71 -54 142.5 -98.5t141.5 -73.5t136 -29q57 0 108 19t96 62q-3 1 -3 5q0 5 5 12l12 15l12 14q5 6 5 10q0 3 -2 5q8 0 17.5 -6.5t9.5 -14.5q0 -14 -23 -36q-69 -68 -139 -103.5t-152 -35.5q-69 0 -140.5 23.5 t-143 62.5t-142.5 89zM106 124q-21 0 -29 -10t-8 -20q0 -15 16 -15q15 0 39 10t41 19q-19 9 -33.5 12.5t-25.5 3.5z" />
<glyph unicode="3" horiz-adv-x="1010" d="M901 264q0 -67 -22.5 -119t-61.5 -91.5t-92 -67t-114 -44.5t-126.5 -25t-130.5 -8q-37 0 -81 4t-89 12.5t-87.5 20.5t-75 28t-52.5 36t-20 44q0 27 31 61.5t100 70.5q2 1 3.5 0.5t-0.5 -2.5q-25 -21 -25 -49q0 -32 27 -68t71 -66t100 -50t114 -20q82 0 161.5 15.5 t141.5 46.5t100 76t38 104q0 63 -27 111.5t-71 81t-100.5 49.5t-115.5 17q-34 0 -63 -5.5t-56 -14t-53.5 -19t-54.5 -19.5q-4 0 -10 1.5t-6 12.5t7.5 17t18 9t21 5t17.5 4q38 12 84 30t92 39.5t89.5 46t77 49.5t54 50t20.5 48q0 11 -3.5 19t-12.5 13.5t-23.5 10.5t-36.5 10 t-52 5h-11q-36 -1 -73.5 -8t-71.5 -20t-54 -30q-21 -19 -21 -42q0 -21 26 -45h-16q-69 0 -88 17q-7 6 -7 13q0 15 26 34q31 23 77 50t100.5 50t113 38.5t114.5 15.5q28 0 52.5 -4t42.5 -13t28 -23t10 -34q0 -40 -31 -75t-81.5 -68t-115.5 -66l-134 -69q25 2 65 2t85.5 -5.5 t91.5 -18.5t83 -36t60 -58t23 -85z" />
<glyph unicode="4" horiz-adv-x="1000" d="M417 -56q21 81 61 176l87 199q-30 6 -55 9l-41 5q-36 3 -70 3q-28 0 -54 -2q-59 -4 -117 -14t-118 -24l-124 -31l24 17q7 11 24 22t55 26l173 92l168 92q84 47 164.5 100.5t155.5 120.5q4 15 15.5 32.5t26.5 33.5t32 26.5t31 10.5q22 0 28.5 -8.5t6.5 -20.5q0 -4 1 -8 t-1 -9q-25 -51 -56 -103l-62 -105l-66 -106l-63 -108q26 -3 59.5 -9t68 -15t67.5 -21.5t58.5 -30t41 -40.5t15.5 -52q0 -18 -8 -36t-21 -32.5t-30 -23.5q-14 -7 -29 -7h-3l-13 4q8 5 12.5 17.5t4.5 23.5q0 32 -23.5 57.5t-60 45.5t-82 34.5t-89.5 24.5q-25 -48 -46 -96 t-36 -96t-23 -96q-8 -44 -8 -88v-10q0 -74 21 -147q4 -6 -13 -15.5t-40.5 -19t-46 -16t-30.5 -6.5q-5 0 -8 5t-4 13v8q0 47 11 94q13 51 29 104zM721 679l-111 -79l-126 -88l-130 -84q-64 -39 -117 -64q37 4 79.5 7.5t87.5 6.5q37 2 74 2h15q45 -1 89 -4h4q2 0 4 -1l70 155 q34 77 61 149z" />
<glyph unicode="5" horiz-adv-x="902" d="M217 675q-32 -15 -43 -15q-4 0 -4 2q0 10 35.5 28t93.5 38q0 8 0.5 15t0.5 15q0 12 16.5 21.5t40 16.5t49 11t43.5 4q15 0 15 -3q0 -4 -3 -7t-7 -8l-16 -23q74 20 150.5 32.5t141.5 12.5q33 0 61 -2.5t48.5 -8.5t32 -15t11.5 -21q0 -8 -10 -20.5t-27.5 -27.5t-41 -31 t-49.5 -31q6 9 8.5 19t2.5 18q0 35 -37.5 46t-99.5 11q-41 0 -97.5 -4t-119.5 -15l-86 -127q-39 -58 -63 -89q20 10 46 20.5t53 19t53.5 14t49.5 5.5q60 0 117.5 -15t101.5 -48t71 -85.5t27 -127.5q0 -93 -48 -169.5t-123.5 -131.5t-168 -85t-182.5 -30q-28 0 -64 3.5 t-73 11t-72 19.5t-62.5 29.5t-44.5 40.5t-17 53q0 14 14 28.5t34 26.5t41.5 20t36.5 9q-7 -5 -10 -13t-3 -16q0 -42 23.5 -74t59.5 -53.5t80 -32t85 -10.5q69 0 139 22t126.5 65.5t92 108t35.5 150.5q0 52 -21 98t-57 81t-84 55.5t-101 20.5q-27 0 -59 -6.5t-64 -18.5 t-61.5 -29t-50.5 -37q-5 -6 -16.5 -8.5t-19.5 -2.5q-4 0 -4 4q0 2 1 3q27 24 52 52t45.5 61.5t35 73.5t20.5 87q-21 -7 -41 -14.5t-39 -16.5z" />
<glyph unicode="6" horiz-adv-x="763" d="M6 435q-2 -1 -7 -1t-10.5 5.5t-5.5 11.5q0 4 4 7q69 44 139.5 66.5t148.5 28.5q84 105 184 190t197 145q15 10 34.5 21t40.5 20t43 14.5t42 5.5q13 0 30 -8t34 -20.5t31 -27t20 -27.5q-50 0 -93 -3t-75.5 -6.5t-52.5 -6.5t-23 -3q-5 0 -7 2t-3.5 5t-3.5 5t-7 2l-88 -65 q-45 -34 -91 -72.5t-89.5 -80.5t-82.5 -88h19q78 0 150 -9t119 -32q39 -19 65 -44t42 -54t23 -60.5t7 -64.5q0 -75 -37.5 -145.5t-105 -125t-161 -88t-204.5 -33.5q-83 0 -122 42t-39 117q0 62 13.5 123.5t38.5 121.5t59 117t75 111q-38 0 -70.5 -6.5t-62.5 -18.5t-59 -29.5 t-59 -41.5zM157 166q1 -43 22.5 -78t53.5 -60t69.5 -39t70.5 -14q43 0 94.5 13.5t95.5 42.5t74 74.5t30 109.5q-1 75 -33.5 132t-84.5 96t-118.5 60.5t-135.5 26.5q-61 -79 -99.5 -169t-38.5 -195z" />
<glyph unicode="7" horiz-adv-x="646" d="M-113 -268q41 -12 82 -12q18 0 37 2q59 8 112 36.5t97 73.5t72 100q31 62 57 137t50 153l50 156q25 77 55 141.5t67.5 112.5t86.5 69q9 4 9 6t-3 2.5t-5 0.5q-7 0 -14 -2t-8 -3q-35 -14 -66.5 -19t-60.5 -5q-40 0 -78 7t-77 16t-79.5 16t-86.5 7q-20 0 -46 -16t-43 -42 q6 35 19 67t32 56t43.5 38.5t52.5 14.5q23 0 62 -11l88 -26q48 -13 101.5 -24t104.5 -11q9 0 21.5 2.5t25.5 5.5l25 6l19 5q48 10 79.5 15.5t52.5 7.5t34 2.5t24 0.5q6 0 10.5 -1t4.5 -5q0 -6 -7.5 -11.5t-18.5 -11t-22.5 -9.5t-18.5 -7q-58 -21 -108 -70t-94.5 -117.5 t-85.5 -151.5t-79 -171l-78 -177q-38 -88 -78 -168q-23 -45 -57 -98t-73.5 -98.5t-81.5 -76t-81 -30.5q-17 0 -37.5 3.5t-39 15.5t-32 35t-15.5 63z" />
<glyph unicode="8" horiz-adv-x="795" d="M736 195q0 -95 -45.5 -157.5t-120.5 -99.5t-172.5 -52t-201.5 -15q-42 0 -81 7t-69 21t-47.5 35.5t-17.5 50.5q0 45 37.5 98.5t97.5 111t136 116.5l151 115l-79 54q-38 26 -68 53t-48.5 55.5t-18.5 58.5q0 27 20.5 48.5t56 38t83 28.5t100.5 19.5t109.5 11t110.5 3.5h59 q5 1 11 1q26 0 49 -3q28 -2 46.5 -9t18.5 -22q0 -18 -28.5 -48t-69.5 -69q-35 -34 -99 -78l-138 -96q41 -27 80 -57.5t70 -64.5t49.5 -72.5t18.5 -82.5zM91 35q0 -49 17.5 -74.5t43.5 -36.5t56.5 -12t56.5 -1q58 0 119.5 15.5t112.5 48t83.5 82.5t32.5 118q0 35 -15.5 66.5 t-41 60.5t-59 55.5t-69.5 51.5q-64 -45 -124.5 -93t-108 -96t-76 -95t-28.5 -90zM742 703q0 9 -8 20t-26.5 20.5t-50 16t-78.5 6.5q-54 0 -105 -6.5t-91 -18t-64 -28t-24 -36.5q0 -23 16.5 -46t44 -46t62.5 -47l74 -48l98 70l79 61.5t53.5 48.5t19.5 33z" />
<glyph unicode="9" horiz-adv-x="792" d="M724 328q7 9 16 9q10 0 10 -13q0 -4 -2 -12q-45 -84 -102 -131q-42 -93 -104.5 -175t-142 -142.5t-175.5 -95.5t-205 -35q-18 0 -34.5 2.5t-29 10t-19.5 22t-7 39.5q0 24 14 51.5t46 58.5q-1 -5 -1.5 -9t-0.5 -8q0 -26 13 -48t32.5 -38t43.5 -25t45 -9q67 0 133.5 25.5 t126 72t109.5 111.5t84 145q-45 -23 -97.5 -35.5t-115.5 -18.5q-24 -3 -47 -3q-73 0 -124.5 24t-84 62.5t-47.5 87t-15 97.5q0 75 31.5 151t90.5 136.5t143 99t190 38.5q42 0 82 -16.5t72 -43.5t52 -63t22 -75q0 -7 0.5 -14t0.5 -14q0 -81 -16 -161.5t-46 -158.5 q35 39 59 101zM403 697q-53 0 -107 -25t-97.5 -64t-71 -85.5t-27.5 -89.5q0 -57 18 -110t56 -94.5t96 -66.5t139 -25q54 0 98.5 7.5t80.5 24.5q23 60 35 125.5t12 136.5v30q-2 48 -22 91t-52 75.5t-73 51t-85 18.5z" />
<glyph unicode=":" horiz-adv-x="277" d="M185 125q1 -1 0 -7.5t-2 -14t0.5 -13t9.5 -4.5q-3 -12 -10 -22t-5 -20q-2 -6 -1 -15.5t-4 -18t-21 -14.5q-13 -5 -41 -5h-10t-11 4t-10.5 11t-5.5 16q-1 3 -1 6q0 7 3 15q4 11 15.5 26t27 28t33.5 21q14 7 27 7h6zM258 355q1 -1 0 -7.5t-2 -14t0.5 -13t9.5 -4.5 q-3 -12 -10 -22t-5 -20q-2 -6 -1 -15.5t-4 -18t-20 -14.5q-14 -5 -42 -5h-10t-11 4t-10.5 11t-6.5 16v6q0 7 3 15q4 11 15.5 26t27 28t32.5 21q15 7 28 7h6z" />
<glyph unicode=";" horiz-adv-x="459" d="M317 387q1 -1 0 -7.5t-2 -14t0.5 -13t9.5 -4.5q-3 -12 -10 -22t-5 -20q-2 -6 -1 -15.5t-4 -18t-21 -14.5q-13 -5 -41 -5h-10t-11 4t-10.5 11t-6 16.5t2.5 20.5t15.5 26t27 28t33.5 21q14 7 27 7h6zM75 -270q-2 -1 -2.5 -2t-2.5 -1q-6 0 -6 6v7q0 4 3 6q8 5 25.5 20.5 t35 34.5t31 37t13.5 29q0 6 -8 11l-16 10l-17 11.5t-8 11.5q1 11 9 23t18.5 21.5t22.5 16t23 6.5q2 0 3.5 -0.5t3.5 -0.5q3 -1 9.5 -3t13.5 -5t12 -6.5t5 -8.5q0 -8 -3.5 -20t-3.5 -20q0 -5 2 -6q-4 -23 -19.5 -49t-38.5 -50.5t-50.5 -45.5t-54.5 -33z" />
<glyph unicode="&#x3c;" horiz-adv-x="598" d="M478 492q5 4 7 4q1 0 1 -1t-2 -3q-5 -7 -15.5 -18.5t-22.5 -23t-14 -12.5q-24 -18 -51.5 -35t-55.5 -32l-55 -29l-47 -26q-17 -12 -14.5 -20t19.5 -18l44 -33q54 -42 102.5 -90t85.5 -106q-2 -8 -11 -18.5t-19.5 -20t-19.5 -15.5q-8 -5 -10 -5l-11.5 10t-39 30t-63.5 38 q-62 33 -121 68l-19 10l-35 21l-35 21q-17 10 -18 13q-1 2 -1 5q0 8 7 18q9 16 23.5 32.5t28.5 29.5l19 19q37 36 80 59t88 42l89 40q45 19 86 46z" />
<glyph unicode="=" horiz-adv-x="611" d="M35 123q-2 4 -2 9q0 8 6 20q9 18 23 35.5t29 31.5t23 17q14 -17 38.5 -24t55.5 -8q10 -1 20 -1q23 0 48 3l70 6q35 4 67 6q13 1 24 1q18 0 32 -2q-3 -5 -4 -14.5t-4 -19.5t-9.5 -18.5t-20.5 -11.5q-82 -18 -141.5 -24t-105.5 -7h-17q-35 0 -63 2q-15 1 -29 1 q-20 0 -40 -2zM84 254q-2 4 -2 9q0 8 6 20q9 18 23 35.5t29 31.5t23 17q13 -17 38 -24t57 -9h19q23 0 47 2l71 8q35 3 67 5q13 1 24 1q18 0 32 -2q-3 -5 -4 -14.5t-4 -19.5t-9.5 -18.5t-20.5 -11.5q-82 -18 -141.5 -24t-104.5 -6q-10 -1 -18 -1q-35 0 -64 2q-14 1 -28 1 q-20 0 -40 -2z" />
<glyph unicode="&#x3e;" horiz-adv-x="667" d="M115 9q-5 -3 -7 -3h-1q0 1 2 3q5 7 15.5 18.5t22.5 22.5t14 13q24 18 51.5 35t55.5 32l54 29l48 26q17 12 14.5 20t-19.5 18l-44 33q-54 42 -102.5 90t-85.5 106q1 8 10.5 18.5t20 20t19.5 15.5q8 5 10 5l11.5 -10t39 -30t63.5 -39q62 -32 121 -67q2 -2 18 -11l36 -20 l35 -21q16 -10 18 -13q1 -2 1 -5q0 -8 -6 -19q-10 -15 -24.5 -31.5t-28.5 -30.5t-19 -18q-38 -36 -80.5 -59t-87.5 -43l-90 -38q-44 -20 -85 -47z" />
<glyph unicode="?" horiz-adv-x="1084" d="M1104 783q1 -7 1.5 -13t0.5 -13q0 -67 -59 -138.5t-165 -144.5q-179 -122 -300 -133q-15 -2 -25.5 -13t-18 -27t-11 -36t-3.5 -41q-4 -23 -38 -36l-93 -38q0 2 2.5 17t6.5 37l10 46l11.5 49t10.5 41t9 24q1 3 16.5 7t37 8t45.5 8t43 6q64 7 127.5 32.5t113.5 65t81.5 93 t31.5 118.5q0 38 -14 75.5t-40 67.5t-64 48.5t-87 18.5q-37 0 -79 -18t-78 -45.5t-59.5 -61.5t-23.5 -66q0 -14 0.5 -26.5t5 -24.5t14.5 -24t28 -25q-4 0 -16 -3.5t-28 -3.5q-8 0 -17.5 2t-18 8t-14.5 16t-6 25q0 21 13 52.5t36 66t55 69t70 62t80.5 44.5t87.5 17 q39 0 89.5 -11.5t97.5 -35t84 -60t49 -86.5zM389 -20q-27 0 -38 6.5t-11 17.5q0 12 10 27t24.5 28.5t32 22.5t32.5 9q25 0 34.5 -8.5t9.5 -21.5t-7.5 -27.5t-20.5 -26.5t-30 -19.5t-36 -7.5z" />
<glyph unicode="@" horiz-adv-x="1287" d="M718 165q-22 -19 -53.5 -50t-69.5 -60t-80 -50.5t-85 -21.5q-31 0 -45 11.5t-14 28.5q0 20 14 47.5t39 57t60 58.5t77.5 52t91 37t100.5 14q28 0 32 -6q0 7 23 11t47 4q17 0 31.5 -2t19.5 -9q-59 -63 -93 -131.5t-34 -143.5q0 -33 14.5 -47t42.5 -16h16q42 0 80 13 q46 17 84 46.5t68.5 69t51.5 81.5t32 83.5t11 75.5q0 43 -28.5 87.5t-79 81t-119.5 59.5t-151 23q-145 0 -257.5 -45.5t-189.5 -122t-117 -176t-40 -206.5q0 -70 34 -131.5t95.5 -107.5t147 -72.5t188.5 -26.5q45 0 96.5 6t101 23.5t93 48.5t70.5 81q4 2 12 3.5t16 1.5 q15 0 24 -6q-88 -109 -221.5 -156t-316.5 -47h-18q-118 0 -202 25q-90 27 -145 74.5t-78 111.5q-17 51 -17 106q0 15 1 30q6 72 38 148.5t86 149t127 137t160.5 113t188 77t208.5 28.5q118 0 196 -29.5t122 -78t56 -110.5q6 -28 6 -57q0 -35 -8 -71q-15 -65 -53.5 -128.5 t-96 -114.5t-132 -84.5t-159.5 -38.5q-42 0 -66.5 11.5t-38 30t-17.5 43t-4 50.5q0 3 4 18l9 33q4 18 8.5 34t5.5 21zM755 256q-18 1 -35 1q-50 0 -88 -11q-50 -15 -81.5 -41t-44.5 -61q-11 -28 -11 -55q0 -7 1 -13q0 -6 2 -11.5t7 -8.5q3 -1 7 -1t8 1q10 2 26 13 q35 22 59.5 39.5t45.5 35.5l43 36l50 43q13 9 15 15t2 14q0 4 -6 4z" />
<glyph unicode="A" horiz-adv-x="1745" d="M515 334q59 0 120.5 -2t125.5 -6l140 188q71 96 148 188.5t161 179.5t178 164q7 6 7 18q0 9 -2.5 20.5t-2.5 21.5q0 16 13 23q1 -1 7 -1q11 0 31.5 4t44.5 10l50 12l43 13q11 -3 18 -12.5t7 -15.5q0 -13 -12 -28t-27 -28.5t-29.5 -23.5t-20.5 -12q-80 -30 -121 -106.5 t-41 -182.5q0 -78 17 -165t46 -175.5t68 -173.5t84 -159q181 7 353.5 25t330.5 47q5 1 11.5 10.5t10.5 11.5q13 5 28.5 12t32 13.5t32.5 11t30 4.5q21 0 32 -12q1 -3 6 -3q4 0 7.5 1t6.5 1q0 -13 -12.5 -18.5t-25.5 -9.5q-94 -27 -202.5 -46.5t-219 -33t-216 -21.5 t-193.5 -12q38 -62 79 -112t81 -82q18 -4 24 -17q-18 -11 -46.5 -22t-57 -20t-52.5 -14.5t-33 -5.5q-17 0 -24.5 3.5t-12 10.5t-7.5 18t-10 27q-1 2 -1 4q0 4 2.5 7.5t2.5 8.5q0 1 -1 1.5t-1 1.5q-9 18 -24 41.5t-33 49t-38 50.5l-37 46q-34 0 -103.5 0.5t-161 3t-199 6 t-218.5 9.5q-38 -72 -56 -121.5t-32 -84.5q0 -8 9 -18t9 -15q0 -27 -2.5 -45t-13 -30t-31.5 -18.5t-57 -10.5q-25 -3 -57 -11.5t-61 -8.5q-13 0 -24.5 2.5t-20.5 9.5q9 23 32 64l54 92l66 102l66 100q-109 7 -207.5 17t-173.5 22.5t-119.5 29t-44.5 37.5q0 26 23 46.5t61 36 t86.5 26.5t101 18t104 10t94.5 3zM1386 1013q-61 -59 -131 -141t-141 -175l-138 -191l-126 -187q139 -13 274.5 -39.5t247.5 -69.5q-28 112 -38 214t-10 202q0 45 2.5 98.5t9.5 106.5t19 101t31 81zM771 191l-27 -45l-23 -42q97 -8 194.5 -13t180.5 -7t144 -2.5t85 -0.5h49 q-24 25 -41 39q-99 71 -230 108t-277 53q-15 -23 -28 -46zM265 236q0 -23 27 -41.5t73.5 -33.5t109 -26t134.5 -20q19 29 35 51l28 38l63 86q-61 5 -122 6.5t-121 1.5q-38 0 -78.5 -4t-73.5 -12t-54 -19.5t-21 -26.5z" />
<glyph unicode="B" horiz-adv-x="2015" d="M1087 1241q7 -1 7.5 -11t-2.5 -26.5t-10 -36.5l-13 -41q71 -18 138 -41.5t118.5 -53t82.5 -64.5t31 -75q0 -42 -29 -79t-74.5 -65t-101.5 -46t-111 -22q63 -10 153.5 -19.5t189 -23.5t196 -34.5t175 -52t125.5 -76.5t48 -107q0 -79 -53 -145.5t-144 -121.5 q104 -35 212 -77t211 -86.5t196 -91t167 -90.5q5 -4 5 -14q0 -7 -3 -15.5t-8 -16t-10.5 -12.5t-9.5 -5q-10 0 -34 14.5t-49 33.5t-44.5 38t-19.5 28q0 2 0.5 3t0.5 2q0 12 -51.5 39t-141.5 62.5t-211.5 76.5t-261.5 82q-82 -42 -183.5 -77t-213.5 -62.5t-230.5 -47.5 t-235.5 -33.5t-227.5 -20t-206.5 -6.5q-24 0 -62.5 1t-82 6t-87.5 16t-79.5 31t-57.5 51t-22 76q0 82 45.5 137t123.5 88.5t182.5 47.5t222.5 14q58 0 120 -3q21 73 42.5 159.5t41.5 177.5q-62 -3 -115 -3q-26 0 -46 1.5t-32 4.5l13 23l19 32q10 16 20.5 29.5t17.5 18.5 q48 -8 81 -14l60 -12q25 116 45 220l33 176q-7 1 -13 1h-13q-44 0 -93.5 -3.5t-99.5 -11.5t-98 -20.5t-88 -30.5q4 13 13.5 37.5t25 49t37.5 43t52 20.5q6 0 11 -6.5t13 -6.5t16 0.5t17 0.5q45 0 103.5 -6t124.5 -18l10 56q1 1 11 7.5t26 13t38 10.5q15 4 32 4q7 0 15 -1z M533 -140q114 0 230 6.5t228 19t218 31t199.5 43.5t171.5 56t136 68q-111 31 -228 60.5t-234.5 53.5t-232 41.5t-220.5 25.5q-2 -8 -3 -15.5t-1 -12.5q-8 -29 -17 -65l-17 -71l-17 -70l-17 -61.5t-15 -46t-12 -22.5q-7 0 -16 -1l-18 -4q-8 -1 -14.5 -2t-7.5 -1 q-10 0 -17.5 3t-7.5 10q0 4 3 20l7 36l9 42l7 39q2 9 2 16.5t1 12t5 5t14 -4.5q20 7 43 60t49 136q-29 2 -56 3t-53 1q-98 0 -179.5 -13t-140.5 -41.5t-91.5 -74.5t-32.5 -112q0 -42 33.5 -74t83 -53.5t106 -32.5t102.5 -11zM1069 637q-29 0 -73 -3l-95 -5l-39 -135 l-34 -126l-10 -36q-7 -22 -12 -45q98 -6 198 -18t194.5 -27t180.5 -32t157.5 -33t125 -30.5t83.5 -23.5l16 -5q41 34 63 72t22 81q0 70 -35.5 124t-95.5 95t-139 69t-165 45.5t-174.5 25t-167.5 7.5zM1301 833q0 60 -20.5 103.5t-55 74.5t-78.5 49.5t-91 28.5l-22 -55 l-55 -158l-57 -178q29 -3 65.5 -4.5t92.5 -1.5q40 0 79.5 6t71 21.5t51 43t19.5 70.5z" />
<glyph unicode="C" horiz-adv-x="1279" d="M1993 -128q-75 -23 -170 -33.5t-206 -10.5q-126 0 -260 10t-267 30t-260.5 50t-241.5 70.5t-210 90.5t-165.5 110.5t-108.5 131t-39 150.5q0 86 54.5 165t145.5 147.5t208.5 125t243 96.5t249.5 62t228 22q30 0 60 -4.5t56 -13t46 -21t30 -28.5q9 16 18.5 45.5t14.5 58.5 q9 8 37.5 19t59.5 21l56 16q26 8 29 9h2q1 0 1 1q3 0 3 -2q0 -1 0.5 -3.5t-0.5 -3.5q-30 -19 -64.5 -67.5t-65 -108.5t-53 -120.5t-27.5 -103.5q-11 -15 -31.5 -26t-43.5 -18.5t-44.5 -11.5t-33.5 -4q22 40 38 88t16 91q0 42 -15.5 70t-43 44.5t-66.5 23.5t-86 7 q-79 0 -174 -17t-191.5 -47.5t-187 -72.5t-161 -92t-113 -106.5t-42.5 -115.5q0 -101 51.5 -195.5t144.5 -178t223.5 -152t287.5 -118t337 -76.5q173 -25 359 -25h14q15 0 48 2t66 5.5t58.5 8.5t25.5 11q0 5 -3.5 10.5t-3.5 9.5q0 1 14.5 2.5t36.5 3.5t48 4t49 4t40 3t21 1 q8 0 19 -1t11 -12q0 -2 -2 -4.5t-9.5 -6t-22 -9t-38.5 -11.5z" />
<glyph unicode="D" horiz-adv-x="2176" d="M1323 1152q-2 -21 -9 -48t-18 -59l91 -29q203 -68 351 -135t244 -141t142.5 -158t46.5 -186q0 -72 -20.5 -133.5t-57.5 -113.5t-89.5 -95t-116.5 -77q270 -52 514.5 -112.5t452.5 -123.5q27 -8 52 -20t44 -25.5t30.5 -28.5t11.5 -30q0 -27 -39 -59t-135 -65 q-59 -20 -88 -27q-24 -5 -35 -5h-3q-4 0 -4 2q0 6 18 22t39.5 38.5t39.5 49.5t18 55q0 24 -36.5 49.5t-101.5 52t-155 52.5t-197.5 52t-229 50.5t-248.5 47.5q-95 -44 -206.5 -74t-232 -48t-245 -26t-245.5 -8q-32 0 -84.5 1t-117 4t-135.5 9t-140 16t-132 25t-111 35.5 t-76.5 47.5t-28.5 62q0 42 32.5 71t88 47t128.5 25q52 5 108 5q24 0 49 -1q195 -8 394 -24q63 112 112 227.5t86.5 231.5t65 230.5t47.5 222.5q-99 32 -234.5 68t-302.5 64q-3 0 -6 0.5t-5 0.5q-22 0 -28 -13t-6 -24q0 -14 6 -32.5t13.5 -36.5t15.5 -33t13 -22 q-20 10 -47 32t-52 47.5t-42 50t-17 41.5q0 24 19.5 40.5t61.5 16.5q9 0 15 -1h12q6 -1 12.5 -2.5t17.5 -3.5q72 -15 145 -33l145 -37l140 -40l132 -39l9 53l-5 5q6 3 22 8.5t34 10.5l35 9q16 4 21 4t6 -4t1 -9zM1386 961l-42 16l-64 23l-85 -226q-50 -130 -95 -293 q-19 -68 -44 -138t-41 -139l-13 -50l-10 -46q208 -20 413 -50t405 -66q49 31 89 68.5t68.5 82.5t44 98t15.5 115q0 97 -45.5 183t-129 161t-202 140t-264.5 121zM1018 -179q95 0 194.5 7.5t196 24.5t187 44t166.5 67q-204 35 -404.5 64t-373.5 49l-10 -45l-12 -43 q0 -1 -0.5 -2.5t-0.5 -2.5q0 -2 5 -6t5 -6q0 -4 -1 -5q-21 -34 -50.5 -52.5t-66.5 -18.5q-3 0 -17.5 3.5t-31 9t-30 11t-13.5 10.5q55 77 104 160q-84 9 -152.5 14t-119.5 7q-39 1 -74 1q-119 0 -185 -16q-86 -20 -86 -72q0 -34 28.5 -62.5t79.5 -51.5t122.5 -39.5 t157 -27.5t182.5 -16.5t200 -5.5z" />
<glyph unicode="E" horiz-adv-x="1454" d="M535 1117q92 0 178 -12t171 -28q52 29 117.5 48t132 30t128 15.5t105.5 4.5q24 0 59.5 -3.5t68.5 -12.5t56.5 -24.5t23.5 -39.5q0 -19 -19.5 -36t-52.5 -31t-75 -25t-87 -18.5t-89.5 -11.5t-81.5 -4q-62 0 -124 4t-125 12q3 -36 27.5 -71.5t52 -68.5t50 -63t22.5 -57 q0 -19 -19 -35.5t-46.5 -31t-59.5 -26.5l-55 -22q-60 -24 -127 -42t-132 -37.5t-125 -43.5t-105 -59t-72 -84.5t-27 -120.5q0 -12 1 -25.5t3 -27.5q6 -41 32.5 -77.5t66.5 -68t90 -57t102.5 -43.5t104.5 -27.5t96 -9.5q117 0 216 26t171 70.5t112.5 103t40.5 123.5 q0 51 -20 73.5t-57 22.5q-21 0 -46 -6q9 21 35 30.5t55 9.5q45 0 72.5 -12.5t42.5 -32t20 -43.5t5 -47q0 -86 -51.5 -151.5t-144.5 -110t-223 -67.5t-287 -23q-63 0 -136 4.5t-141 24.5q-66 19 -121.5 49t-96 69.5t-63 86.5t-22.5 99q0 50 20.5 92t56 77.5t81.5 64.5 t97.5 53.5t104 44t100.5 35.5q15 5 41 11l56 15q30 8 61 18t55.5 22.5t40.5 28.5t16 35q0 30 -20 51l-45 45q-24 23 -44.5 52.5t-20.5 74.5q0 55 32 96l-251 36q-123 17 -238 17q-102 0 -199 -13.5t-185 -47.5q65 37 139.5 61t154 37.5t160.5 19t160 5.5zM1183 1125 q-29 0 -62 -2t-65.5 -8t-61 -18t-47.5 -32q100 -20 199.5 -36t205.5 -16q33 0 43 7.5t10 19.5t-15 27t-43.5 28t-69.5 21.5t-94 8.5z" />
<glyph unicode="F" horiz-adv-x="866" d="M458 639l1 2v1q0 7 8.5 16.5t13.5 14.5l3 4l18 21q12 12 26 24t29.5 20.5t30.5 8.5q38 0 68 -24t53 -63l40 155l39 151h-73q-36 0 -71 1q-54 1 -120.5 3t-138.5 8t-147 17t-145 31q-29 8 -40 22t-11 35q0 20 10.5 46t25 50.5t30 44.5t25.5 29q2 -15 14.5 -40.5 t29.5 -45.5q18 -21 62 -39.5t100.5 -34t121 -28.5t124 -22t108.5 -14t76 -6q8 -1 17 -1h16l28 121q11 27 36.5 50t52.5 42q1 1 10 8l20 15q11 9 22.5 15.5t18.5 6.5t7 -6l-51 -132l-47 -119q87 3 177 14.5t169 28t141.5 35.5t94.5 39q5 4 10 4t5 -4q0 -1 -2 -3l-30 -55 q-16 -30 -36.5 -57t-45 -47t-54.5 -23q-109 7 -223 8.5t-229 1.5l-68 -171q-32 -80 -59 -156q76 -28 160.5 -43t168.5 -15q90 0 171 20.5t138 64.5q13 8 18 8q2 0 2 -1.5t2 -1.5q-27 -52 -66.5 -85.5t-87.5 -53t-101.5 -27.5t-109.5 -8q-72 0 -144 9t-136 18 q13 -45 22 -88.5t15 -79.5q24 -140 24 -285q0 -76 -10 -154.5t-28.5 -151t-45 -136.5t-60 -111t-72.5 -74.5t-83 -27.5q-20 0 -34.5 19t-19.5 63q0 20 3 46q25 244 78 484.5t114 474.5q-6 14 -13 26l-14 23q-90 28 -179 82q-1 0 -1 1q-2 0 -2 1zM758 -49q0 171 -19.5 296 t-50.5 210q-24 -80 -42.5 -166t-33 -184.5t-24 -213.5t-15.5 -254q0 -45 18.5 -62.5t43.5 -17.5q40 0 64.5 34.5t37.5 90t17 126t4 141.5z" />
<glyph unicode="G" horiz-adv-x="1421" d="M1832 -73q2 1 6 1q6 0 6 -5t-4 -15.5t-11 -22.5t-17.5 -22.5t-22.5 -14.5q-41 -14 -94 -29l-113 -31l-124 -34l-125 -35q-38 -11 -77 -21l-76 -20q-26 -52 -55 -96t-61 -80q-26 -29 -50.5 -41t-47.5 -12q-33 0 -58.5 20.5t-39.5 51.5q-11 22 -24 43.5t-29 43.5 q-62 -8 -122 -12t-119 -4q-41 0 -97 4t-116 13t-118.5 24.5t-105 37.5t-75 52.5t-28.5 70.5q0 41 29.5 74t78 56t110.5 35.5t126 12.5q45 0 96.5 -11.5t105.5 -32t108 -48t103.5 -59t93 -66t75.5 -68.5l14 -16q48 7 94 15t91 18q25 44 46 101.5t39 119.5t32 123l26 114 l20 92q8 39 14 55q-33 -51 -81 -94t-105 -77t-121 -60t-128.5 -42.5t-127.5 -23.5q-50 -6 -94 -6h-24q-108 3 -205.5 20t-171 58t-116.5 111t-43 180q0 105 39.5 195t108.5 165.5t162 136.5t200 109.5t222.5 83.5t230 58t222 34t198.5 11q15 0 42 -0.5t58.5 -2.5t63.5 -6 t58 -10t42.5 -15.5t16.5 -21.5q0 -8 -13.5 -23.5t-34.5 -32.5l-45 -36l-46 -35l-38 -27l-18 -12q-27 -19 -46.5 -35t-26.5 -16q-2 0 -6.5 0.5t-4.5 4.5q0 2 1 4q13 4 26 19t23 32t16 32.5t6 21.5q0 24 -27 38t-66.5 20.5t-85 8.5t-81.5 2h-45q-116 0 -236.5 -15t-234.5 -47 t-214.5 -81t-175.5 -117t-118.5 -155.5t-43.5 -195.5q0 -119 44.5 -195.5t118 -120.5t168.5 -60.5t197 -16.5q60 0 131.5 14.5t140 41.5t128 65t97.5 85q42 52 63.5 90.5t31.5 68.5t12.5 53.5t5.5 43.5q0 7 -12 10.5t-27.5 5t-30.5 4t-21 8.5q-2 2 -5 4.5t-1 4.5q9 12 31 30 t49 34.5t54 29t47 14.5q15 2 27 -5t12 -21q0 -19 -10 -41.5t-19 -45.5q-35 -108 -68 -222l-66 -224q-33 -111 -70 -215.5t-79 -194.5q67 16 128 33q136 38 260 85zM649 -351q34 0 66.5 1t64.5 3q-48 57 -108 108t-125 90t-130.5 62t-123.5 23q-28 0 -60 -5t-59.5 -15.5 t-45.5 -26.5t-18 -38q0 -25 25 -49.5t67.5 -47t97.5 -42t114.5 -33.5t120.5 -22t114 -8zM1045 -394q26 0 48.5 16t42.5 45q-34 -8 -68 -15l-67 -14q12 -14 23 -23t21 -9z" />
<glyph unicode="H" horiz-adv-x="1673" d="M103 246q0 1 -0.5 1.5t-0.5 1.5q0 -1 2 5q6 36 49.5 63.5t111.5 48.5t152.5 35.5t172.5 23.5l5 18l21 91l21 98l19 90q8 42 12 70q6 35 10.5 79.5t7.5 90t3 88t-3 75.5q6 28 26 52.5t46.5 42.5t56 28t55.5 10q13 0 18 -1t5 -9t-4 -23q-2 -35 -17 -68.5t-34 -68.5l-38 -70 q-20 -35 -32 -73q-13 -55 -24 -117l-24 -130l-23 -134l-24 -133q49 4 95.5 5.5t88.5 1.5h14l153 152l166 156l168 144q83 68 159.5 119.5t142 82t113.5 30.5q26 0 38.5 -4.5t12.5 -30.5q0 -3 -0.5 -6.5t-0.5 -7.5q-8 -92 -28.5 -171.5t-42.5 -155.5q-21 -72 -47 -130 l-51 -113q-25 -54 -45.5 -107.5t-30.5 -114.5q6 -6 10 -21t6.5 -35.5t3.5 -45t1 -49.5q0 -29 -2 -57t-6 -54q-2 -12 -5.5 -28t-8.5 -32t-10.5 -30t-11.5 -22l-17 -25q48 -4 94 -6l92 -4q57 -1 109 -1h52q76 1 138 6t107.5 13.5t69.5 20.5q54 32 116 44q53 10 103 10h16h7 q2 0 2 -5q-1 -8 -12 -16.5t-28 -18.5l-36 -21q-20 -11 -38 -23q-112 -25 -241 -33q-92 -5 -186 -5q-38 0 -76 1q-77 2 -153 6t-149 9q-1 0 -1.5 0.5t-1.5 0.5q-32 -43 -52.5 -61t-33.5 -18q-12 0 -17 14.5t-5 40.5v16q0 8 1 17q-98 11 -202 29t-209 39t-208 45l-196 47 q-14 -26 -26 -59.5t-12 -57.5l-3 -24q-3 -10 -19 -22.5t-38.5 -25t-47.5 -24.5l-49 -20q-23 -10 -39.5 -15.5t-20.5 -5.5q6 11 19 32t31 55t40.5 82t47.5 114l-75 18q-42 11 -84.5 24t-82.5 28t-71 33.5t-49.5 39.5t-17.5 45zM612 53q85 -28 182 -52.5t200.5 -44.5t211 -36 t212.5 -27q2 11 3.5 23.5t3.5 25.5q4 31 9 58l10 52l9 52q5 26 10 57l4 22q2 11 7 28q-23 31 -85.5 61t-147 55.5t-180.5 44.5t-186 28q-75 -85 -139.5 -167.5t-112.5 -159.5zM1658 1053q-26 0 -71 -23.5t-104.5 -65.5t-129.5 -99.5t-145 -126.5l-150 -144l-149 -156h61 q66 0 147.5 -6t161 -18.5t146 -32t102.5 -47.5q29 59 52.5 122.5t43.5 134t36 149t30 168.5q3 20 5 39t2 36q0 31 -8.5 50.5t-29.5 19.5zM248 303q0 -27 16 -53q18 -28 50.5 -54t78.5 -51t103 -49q22 61 44 136t44 167q-83 -9 -168.5 -26t-152.5 -41q-15 -11 -15 -29z M737 408q-16 0 -33.5 -0.5t-35.5 -1.5q-14 -75 -30 -141t-34 -119l36 42l52 60l66 72l79 83q-26 2 -51.5 3.5t-48.5 1.5z" />
<glyph unicode="I" horiz-adv-x="979" d="M1071 1158q65 -8 137 -9h14q65 0 138 8q11 1 37 13.5t54 30.5t52.5 37.5t32.5 36.5q2 5 4.5 12.5t5.5 14t5.5 11t4.5 4.5q3 -12 3 -25q-2 -30 -18.5 -60.5t-41.5 -59t-55.5 -52.5t-60 -42.5t-54 -30t-38.5 -12.5q-36 -4 -72 -4q-20 0 -41 1q-55 4 -112 15l-3 -88 q-3 -53 -14.5 -127t-32 -160t-48.5 -179.5t-64 -184.5t-79 -176t-93 -154l64 -24q99 -35 204 -64.5t207.5 -53t198 -39.5t175.5 -23q3 0 6.5 -0.5t6.5 -0.5q128 0 197 17.5t95 40.5q2 0 4 -4t2 -7t-16.5 -19t-43 -37.5t-60.5 -46t-68 -45t-65 -34t-53 -13.5q-11 0 -46.5 9.5 t-89.5 27.5l-122 42l-146 54l-160 62l-167 70l-73 32l-70 28q-61 -77 -129.5 -123t-145.5 -46q-42 0 -82 18t-76 46.5t-66 63t-52 67t-34 58.5t-12 38q0 47 34 81q32 33 65 43q19 6 39 6q14 0 29 -3q36 -7 78 -28.5t93 -50.5l113 -64q61 -34 138 -66q41 49 77.5 116t67 145 t55.5 162.5t42 167.5t26.5 160t9.5 141q0 51 -12 102.5t-29 89.5l-139 36q-71 19 -146 32.5t-154 18.5q-29 2 -58 2q-52 0 -107 -6q-11 -2 -25.5 -2.5t-25.5 -5.5q-20 -5 -44 -19t-48 -30l-44 -29q-20 -13 -33 -14q-4 0 -4 1t1 2t1 2q0 3 -2 5l85 67l89 68q43 33 80.5 56 t60.5 26q25 2 50 2q35 0 70 -4q59 -9 121 -25.5t129 -37.5t142 -38q18 35 47.5 49.5t55.5 15.5q2 0 7 -9.5t9.5 -22.5t8.5 -26.5t4 -20.5q0 -2 -0.5 -3t-0.5 -2v-4zM541 -109q37 0 71.5 19t67.5 53l-136 51q-63 22 -116.5 38t-94 24.5t-65.5 8.5q-35 0 -35 -15 q0 -6 16.5 -22t42.5 -35.5t59.5 -41t68 -39.5t66 -29.5t55.5 -11.5z" />
<glyph unicode="J" horiz-adv-x="1055" d="M204 -704q-36 0 -64.5 18t-48 46.5t-30 65t-10.5 73.5q0 83 41.5 181.5t113.5 200.5t169.5 200.5t209 181.5t231.5 144t238 89l-86 56l-80 52l-76 48l-78 45l-70 37l-90 45l-97 48l-91 45l-74 36q-31 16 -42 23q-12 7 -33.5 18.5t-43 26.5t-37.5 32.5t-16 35.5 q0 28 32.5 48t83 34t111.5 22.5t118.5 13t103.5 6t67 1.5q39 0 100.5 -2t130.5 -11t139 -26t126 -47.5t91 -76t35 -110.5q0 -47 -15 -93.5t-26 -87.5l-59 -158q-3 -8 -4.5 -9.5t-1.5 -2.5q4 -8 8.5 -9.5t11.5 -1.5l206 37q101 18 203 32t208 23t223 11q-4 -9 -16.5 -21 t-27.5 -23t-30 -18.5t-24 -7.5q-33 0 -59.5 3t-50.5 6.5t-47.5 6.5t-51.5 3q-72 0 -143 -6t-137.5 -16.5t-127.5 -23.5t-114 -26q1 -3 10 -11t9 -13q0 -9 -7.5 -14.5t-18.5 -9t-23 -5t-21 -1.5q-4 0 -5 1l-12 -13l-69 -158l-72 -172q-38 -88 -80.5 -176.5t-91.5 -171 t-105 -156t-122 -132.5q-41 -36 -84 -69.5t-91 -59.5t-101.5 -41.5t-114.5 -15.5zM174 -477q4 -24 16.5 -48t31 -42.5t41.5 -30t50 -11.5q41 0 74.5 9t63 24t55.5 35l54 42q105 82 184.5 194.5t142.5 241t113 266.5l99 273l-23 4q-1 0 -11 -3l-23 -7l-24 -6t-17 -3 q-156 -56 -281 -125t-224 -158t-174 -201.5t-131 -254.5q-11 -24 -17 -60t-6 -76q0 -32 6 -63zM406 961q61 -52 136.5 -107.5t171.5 -99.5l112 -52l104 -46l100 -46l106 -51q10 23 20.5 52.5t18 63.5t12.5 70t5 71q0 59 -25 107.5t-67 86t-98 64.5t-118 44.5t-127 26 t-124 8.5q-16 0 -44.5 -2t-62.5 -7t-69 -12.5t-64 -18.5t-47 -25.5t-18 -32.5q0 -13 8 -25.5t20 -24.5t25.5 -23t24.5 -21z" />
<glyph unicode="K" horiz-adv-x="986" d="M1967 -246q-25 -40 -51 -72q-22 -28 -46 -51.5t-41 -26.5q-14 -2 -29 -3.5t-31 -1.5q-80 0 -188.5 30.5t-233 84t-258.5 125.5t-265 154.5t-253.5 171t-222.5 175.5l-78 -289q0 -3 0.5 -4t0.5 -2q8 12 20 27l26 32q14 16 29.5 31.5t31.5 27.5q1 1 4 1q2 0 3.5 -2t-0.5 -4 q-16 -11 -33 -29t-32 -48t-27 -74.5t-19 -107.5q-1 -4 -13 -10t-31 -13l-41 -14q-22 -8 -42.5 -13.5t-35.5 -9t-20 -3.5q2 14 6 26.5t9 26.5q35 117 88 241l105 253l-59 56q-27 27 -51 54q-5 5 -9 11.5t-4 12.5q0 11 16 21l93 52l111 61q21 71 37.5 143t24.5 147q0 6 0.5 13 t0.5 15q-2 42 -20 96t-47.5 101.5t-68 80t-81.5 32.5h-9q-4 0 -9 -2q20 34 41 61t39.5 46t33 28.5t23.5 9.5q4 0 6 -2q45 -28 74 -65.5t46 -80.5t24 -90.5t7 -96.5q0 -66 -10.5 -129.5t-24.5 -116.5l-45 -168l205 107l215 108l206 102l179 86q79 37 132 59.5t67 24.5 q21 6 32 7.5t22 1.5q8 0 19.5 -0.5t22.5 -3t18.5 -9t7.5 -18.5q0 -17 -9.5 -40t-25 -45.5t-36.5 -40.5t-45 -25q3 8 4 14.5t1 12.5q0 13 -7 21.5t-16.5 13.5t-21.5 7t-23 2q-27 0 -60.5 -12t-66.5 -26q-151 -60 -359.5 -152.5t-469.5 -227.5l-39 -144q66 -68 148 -139.5 t174 -142.5t191 -140t198 -130t195.5 -113t184 -89.5t162.5 -58.5t131 -21q37 0 66.5 10t53.5 24.5t42 30.5zM356 532q8 21 15 42l14 43q-8 -5 -16 -9l-16 -8q-13 -5 -20.5 -12t-7.5 -15q0 -9 10 -18z" />
<glyph unicode="L" horiz-adv-x="860" d="M327 916q22 0 74 3t118.5 8.5t140 13.5t139.5 19q56 129 103.5 202t79.5 73q30 0 58.5 -19t51 -46t36 -58t13.5 -55v-7q0 -3 -1 -6q-3 -22 -27.5 -40t-64 -34t-92.5 -29.5t-113 -26.5q-24 -53 -41 -125t-31 -154t-27 -170.5t-28.5 -175.5t-35.5 -168t-49 -148l202 -57 l174 -48q83 -23 163.5 -41t169 -31.5t190.5 -22.5t229 -13q86 5 167 28.5t156 74.5q1 1 3 1q1 0 1 -1q-3 -7 -7 -13q-3 -6 -7.5 -12.5t-9.5 -12.5q-24 -29 -58 -65t-73.5 -68t-83 -54t-86.5 -22q-77 0 -167 15t-188 40.5t-200 58.5l-205 68l-201 70l-188 67 q-40 -77 -98 -123.5t-141 -46.5q-4 0 -13 0.5t-13 0.5q-41 2 -88 26.5t-87.5 57.5t-67 67t-26.5 55t14.5 40.5t34 34.5t38.5 24.5t27 10.5q231 -54 398 -98q22 58 37.5 131t28 154t23.5 166t24.5 167.5t30 158t40.5 138.5l-134 -31q-67 -15 -130 -33.5t-118 -41.5t-95 -51 q-14 -10 -35 -17.5t-42 -13.5q-25 -7 -51 -13q1 6 8.5 25t19 43t27 50.5t32.5 48.5t35.5 36.5t35.5 14.5zM422 -177q52 0 89 33.5t63 90.5q-85 29 -157 49.5t-127 29.5q-18 -3 -18 -8q0 -14 14.5 -46.5t36.5 -65.5t48.5 -58t50.5 -25zM958 1083q-2 -1 -12 -13l-22 -30 l-25 -35l-22 -31q49 11 81.5 22.5t37.5 25.5q2 4 2 8v6q0 5 -3 13t-7.5 16t-10.5 14t-11 6q-2 0 -8 -2z" />
<glyph unicode="M" horiz-adv-x="2099" d="M514 1155q110 0 225.5 -13t232.5 -32l234 -39q116 -20 229 -34q-1 41 -3.5 82.5t-11.5 80.5q1 7 13 16t29.5 19.5t39 21t42 19t37.5 13.5t26 5q7 0 9 -4q-19 -47 -33.5 -114t-25.5 -151q20 -2 39.5 -2.5t39.5 -1.5q12 0 44.5 -2t67 -4.5t61 -5.5t26.5 -7q0 -2 -8 -8 l-19 -12q-10 -7 -21 -12t-17 -5q-56 0 -110 4t-109 11q-14 -118 -23 -257.5t-15 -291.5q-1 -31 -2.5 -70.5t-2 -80.5t-0.5 -80.5t2 -70t6 -49t10 -18.5q20 0 56.5 41.5t81.5 109.5t93 155t91.5 178t76.5 179t48 157q6 30 15 57.5t24 51t36.5 41t53.5 28.5q29 -2 40.5 -23 t13.5 -49q2 -13 2 -25q0 -16 -2 -31q-3 -27 -4 -40q-1 -25 -10 -82l-24 -134l-30 -175q-17 -96 -32 -199.5t-26.5 -210t-15.5 -205.5q-2 -50 -2 -97t2 -91q4 -87 23 -152t57 -102.5t101 -37.5q26 0 61 11q-28 -28 -60.5 -48t-63 -32.5t-57.5 -18.5t-45 -6q-43 0 -69 24 t-40.5 62.5t-18.5 87.5q-4 44 -4 88v10q1 50 4.5 95.5t4.5 78.5q3 72 11.5 156.5t19.5 174t24 181.5l23 178q11 88 19 168t11 147v14q0 11 -1 23q-1 18 -6 18q-2 0 -8 -15l-21 -46l-23 -53l-29 -67q-60 -143 -137.5 -273.5t-169.5 -256.5q-42 -57 -98 -114l-104 -107 q-10 -8 -19.5 -13t-17.5 -5q-12 0 -11 16q0 4 1 7q17 97 28 188.5t18 184.5t11 190.5t9 205.5q2 39 3.5 77t2.5 68t1 48.5t-1 18.5q-4 0 -7 -8q-43 -112 -98.5 -218t-121.5 -211l-44 -70q-22 -35 -48 -68l-82 -107q-43 -57 -91 -114t-101.5 -111t-112.5 -100t-125 -82 t-138 -55q-25 -7 -50.5 -11t-51.5 -4q-31 0 -52 8t-34 20.5t-18 28.5q-4 13 -4 27v6q1 34 13.5 65.5t32 59.5t43.5 52t49 44q0 -2 -1.5 -4t-2.5 -4q-10 -25 -12 -52v-6q0 -20 6 -38q6 -20 20 -36.5t36 -26t52 -9.5q58 0 103.5 10.5t84.5 31t75 49t76 64.5q50 45 92 96.5 t81 105.5q111 153 201.5 317.5t161.5 339.5l27 66q14 35 26 70q-120 20 -238.5 45.5t-241.5 44.5l-207 30q-104 14 -210 14q-147 0 -222.5 -42.5t-78.5 -112.5v-9q0 -29 12 -59q14 -34 36 -64t49 -55t53 -40q15 -9 25.5 -14.5t20.5 -10t21.5 -9t27.5 -11.5q-7 -1 -13.5 -1.5 t-13.5 -0.5q-38 0 -80 11.5t-84 32t-79.5 47.5t-66.5 59t-46 67q-14 31 -14 62v8q2 50 43.5 82t105 50.5t139.5 25.5t148 7z" />
<glyph unicode="N" horiz-adv-x="1935" d="M996 1015q-6 0 -10 -8t-7 -8q-2 4 -2 8q0 16 11.5 43t30 52.5t41.5 44t46 18.5q19 0 36 -17t30 -32q19 -23 36 -48l35 -52q10 13 21.5 25.5t23 22.5t22 16t16.5 6q9 0 10 -14q-7 -37 -15.5 -72.5t-19.5 -72.5q15 -47 32.5 -89t40.5 -91l54 -111l71 -147 q45 -95 91.5 -175.5t86 -139.5t67 -92.5t33.5 -33.5q5 0 13 8.5t17 23t17 32.5t13 38l56 230l51 219l54 215.5t63 220.5l29 88q16 47 35.5 93.5t43 89.5t52 76t62 52.5t72.5 19.5q20 0 38.5 -10t31.5 -32q-1 -12 -10 -28t-21.5 -32.5t-27.5 -33t-28 -29.5l-23 -21 q-9 -9 -11 -10q-8 9 -13.5 19t-18.5 10q-44 0 -73.5 -23t-48.5 -56.5t-30 -71.5l-21 -68q-38 -129 -69.5 -257.5t-54.5 -242.5t-37 -207.5t-17 -152.5q-3 -48 -7 -101.5t-14.5 -103.5t-28.5 -94t-49 -73q-4 -4 -13 -7.5t-18.5 -5.5t-18.5 -3.5t-13 -1.5q-17 0 -37 22.5 t-39.5 52.5t-35.5 61l-24 46l-192 371q-98 181 -204 355q-48 -91 -99 -198t-108.5 -214t-124 -206.5t-145.5 -176.5t-172.5 -123t-205.5 -46q-48 0 -88.5 24t-69.5 63.5t-45 89.5t-16 103q0 32 7 63t21 58t36.5 48t52.5 35q0 -8 -2 -30t-2 -60q0 -47 20.5 -95.5t56 -87.5 t83 -63.5t101.5 -24.5q88 0 161 45.5t133.5 120t111 171t93.5 199t80 203t71 183.5l-35 53l-37 50l-25 32q-15 19 -30 35t-29.5 27t-24.5 11z" />
<glyph unicode="O" horiz-adv-x="1781" d="M1147 1170q8 1 18 1h21q34 0 74 -5t74 -19.5t57 -41t23 -69.5q0 -14 -2 -26t-6 -24q90 -21 169 -58.5t137.5 -95.5t92.5 -138.5t34 -187.5q0 -95 -29.5 -174t-80 -144t-119 -116.5t-146.5 -90.5t-162 -66.5t-166 -45t-158 -25.5t-139 -8q-145 0 -255.5 36.5t-185 99.5 t-112.5 148t-38 182q0 82 26 163t71 157.5t107 146.5t134 131q-137 -37 -271 -86t-273 -117l-6 -1q2 7 9.5 15.5t16 15.5t15.5 12t9 6q78 36 151 66.5t143 56t138.5 47t136.5 40.5q121 89 249 146t243 69zM1053 969q-98 0 -200 -13.5t-206 -39.5q-58 -47 -106.5 -103.5 t-83 -120.5t-53.5 -134t-19 -144q0 -70 18 -137t51 -125.5t79.5 -107.5t104.5 -84.5t125.5 -55t142.5 -19.5q81 0 173.5 9.5t183 33t174 61.5t147 95.5t101.5 136t38 181.5q0 107 -26 191.5t-72.5 148t-112 108.5t-144.5 72q-17 -20 -37.5 -35t-42 -26t-42 -17t-38.5 -7 l-5 -1q7 13 18.5 23t22 21.5t19.5 27t12 39.5q-52 11 -107.5 16.5t-114.5 5.5zM1114 1017q81 0 159 -9q-11 54 -54 74t-109 20q-100 -5 -197.5 -38.5t-185.5 -89.5q83 19 182 31t205 12z" />
<glyph unicode="P" horiz-adv-x="1229" d="M363 329q2 2 34 7l87 13l127 19q73 11 158 26q-25 91 -73.5 175.5t-119.5 155t-164.5 123t-209.5 79.5q-42 10 -80 27.5t-58 39.5q0 5 -7 6.5t-7 5.5q0 14 20 26.5t38 21.5q82 40 168 63t177.5 34.5t187.5 14t198 2.5q12 0 41 -1t71 -3t95 -5.5t113 -8.5l6 33 q-2 10 -10 23t-10 26q0 2 4 10.5t5 9.5q-1 4 3.5 9.5t12.5 11t18.5 11t21.5 10.5l59 24h39q1 -4 1.5 -7.5t0.5 -8.5q1 -12 0.5 -25.5t-1.5 -25.5t-3 -19.5t-4 -7.5t-5 -4.5t-7 -9t-7 -8.5t-5 -4q-2 -1 -4.5 -2t-4.5 -5q-5 -12 -9.5 -24.5t-9.5 -24.5q85 -9 175.5 -21.5 t176 -29.5t161.5 -39.5t133 -51t90 -64t33 -77.5q0 -43 -47.5 -86.5t-126 -85.5t-181 -81.5t-212 -73.5t-219 -62.5t-202.5 -47.5q-22 -92 -39 -174l-32 -154l-24 -127q-11 -57 -20 -97q1 -14 -1.5 -22.5t-14 -15.5t-34.5 -16l-64 -23q-27 -9 -45 -9q-28 0 -33 11 q11 49 23.5 99.5t23 102t17.5 102.5t7 102q0 86 -21 172l-158 -29l-148 -27l-110 -19q-45 -8 -50 -8h-7q14 8 26 21t36 18zM252 1019q123 -45 214.5 -106.5t157 -139t107 -171t64.5 -203.5l97 19l99 21q43 146 82.5 309t74.5 344q-74 12 -143 21t-128 15t-104.5 9t-71.5 3 q-57 0 -111 -1t-106.5 -6t-104 -14.5t-102.5 -26.5q-12 -4 -24 -7.5t-21.5 -7t-16 -8.5t-6.5 -11q0 -7 10 -16t33 -23zM1845 807q0 47 -54 88t-141.5 75t-198.5 61t-225 48q-61 -166 -107.5 -325t-81.5 -305l87 21l116 30q63 17 132.5 38t136.5 45t128 50.5t107 55t73.5 58 t27.5 60.5zM984 413q-36 -8 -83.5 -16.5t-100.5 -19.5q14 -76 20.5 -159.5t6.5 -175.5q0 -8 -0.5 -14.5t-0.5 -14.5q-1 -23 6 -25h1q6 0 12 22q35 88 70 188.5t69 214.5z" />
<glyph unicode="Q" horiz-adv-x="1370" d="M243 -604q30 33 58.5 83t56.5 113.5t56 138.5l55 157l-23 8q-13 5 -27 13q-92 48 -164.5 122.5t-120.5 163.5t-70 187q-17 71 -17 140q0 28 3 55q6 62 26.5 125t57.5 120t91.5 106t126.5 84.5t164 53.5q75 16 163 16q19 0 39 -1q88 -3 164 -16t131 -28q73 69 157 103 q68 28 144 28q20 0 41 -2q109 -10 155 -118q32 -75 32 -196q0 -52 -6 -113q-5 -58 -15.5 -110.5t-24.5 -103.5q-37 -132 -97.5 -236t-134.5 -181.5t-156 -130t-162 -81.5q-45 -17 -91.5 -23.5t-92.5 -6.5q-5 -1 -10 -1q-41 0 -80 4q-45 4 -87 7q-12 2 -22 2t-19 1l-16 -79 l-16 -76l-15 -86l-19 -109q-5 -27 -8 -47t-11 -25q-31 -19 -54.5 -32t-43 -21.5t-37.5 -12.5t-38 -4q-3 0 -9.5 1t-14.5 3q-9 2 -19 5zM563 -29q51 -20 107.5 -33t120.5 -18q26 -2 51 -2q93 0 174 32q102 42 182 119t136.5 182t89.5 222q13 44 19 104q4 42 4 87q0 18 -1 37 q-2 64 -15 126.5t-39 113.5t-66 84t-97 38q-7 1 -14 1q-61 0 -130 -40q17 -3 34 -5.5t31.5 -5t24.5 -4t13 -2.5l21 -18q-9 -10 -31 -27t-46 -33.5t-45.5 -28.5t-31.5 -12l-12 2q-11 2 -14 7q-5 8 -16 20.5t-32 26.5q-57 -56 -113.5 -136.5t-107.5 -185t-94 -233.5t-74 -280z M132 679q-3 -32 -3 -64q0 -65 12 -132q18 -100 64 -191t120.5 -168t179.5 -128l90 262q47 135 100 262.5t114.5 242t134.5 201.5q-37 19 -96 34q-57 14 -124.5 26t-141.5 14q-14 1 -27 1q-93 0 -164 -25q-81 -27 -136.5 -76t-85.5 -116t-37 -143z" />
<glyph unicode="R" horiz-adv-x="1321" d="M1761 -348q-76 0 -155.5 30.5t-160 82t-161 119.5t-158.5 143l-150 152l-138 147q-90 -29 -176 -47t-164 -24q-25 -95 -53.5 -177.5t-61.5 -143.5t-71 -95.5t-82 -34.5q-33 0 -54 14.5t-34 39.5t-18 57t-5 68q0 75 22 163t56 173q-20 20 -32.5 46.5t-14.5 60.5 q-1 10 -1 19q0 29 7 61q9 41 28 81t45.5 75.5t58 62.5t66 43t68.5 16q28 0 60 -13l36 39l37 38q9 52 15 104.5t10.5 100.5t6.5 90.5t2 75.5q0 15 -17.5 25.5t-40.5 18.5t-45.5 12.5t-31.5 7.5q9 4 33 16.5t56 25t69.5 22.5t73.5 10h16q9 0 12 -2q13 -6 14 -28q1 -5 1 -11 q0 -18 -3 -38q-5 -27 -12.5 -53t-12.5 -41q-16 -48 -30.5 -114.5t-28.5 -140.5q74 64 152 117t156.5 90.5t155 58t148.5 20.5q90 0 152.5 -23.5t100.5 -62t55 -88.5t17 -103q0 -56 -23 -111t-64.5 -107t-99 -101t-125.5 -93t-145 -83t-157 -71l131 -132l148 -140 q76 -69 155.5 -133t155.5 -112.5t146.5 -77.5t129.5 -29q47 0 87.5 11t73.5 27.5t60 36.5t47 39q4 4 9 6q4 1 4 -3q0 -2 -1 -5q-13 -48 -54 -86.5t-93.5 -65.5t-107.5 -41.5t-95 -14.5zM1195 1166q-71 0 -143.5 -20t-143.5 -56t-139.5 -85.5t-132.5 -108.5l-28 -145l-9 -44 q67 -45 137.5 -107.5t133.5 -128.5l73 -77q95 38 183 88t155.5 110t108 130t40.5 150q0 58 -17 111.5t-47.5 94t-74 64.5t-96.5 24zM299 454l-31 -58q-14 -27 -26 -53q35 -29 79.5 -44t86.5 -18q29 81 54.5 171.5t48.5 183.5q-18 14 -35 24.5t-34 18.5q-42 -55 -78 -111.5 t-65 -113.5zM203 -59q21 0 45 23.5t48.5 65t50 98.5t50.5 125q-56 2 -100 13t-76 33q-29 -62 -42.5 -118t-13.5 -123q0 -18 1 -38.5t5 -38t11.5 -29t20.5 -11.5zM505 284q68 6 147.5 22.5t164.5 42.5l-105 109q-49 50 -89 84q-14 11 -26 22l-24 20l-33 -152 q-16 -76 -35 -148zM182 457q2 -27 11 -49.5t24 -40.5l25 53q12 25 25 48q31 57 68 112t79 109q-9 2 -17.5 3.5t-17.5 1.5q-40 0 -77.5 -16t-65 -47t-42.5 -75q-13 -35 -13 -77q0 -11 1 -22zM507 761q7 -4 14 -7t15 -8q0 4 2 10l10 50z" />
<glyph unicode="S" horiz-adv-x="1729" d="M563 -238q-41 0 -93 6t-106.5 18.5t-106.5 32t-93 47t-66 63t-25 80.5v9q0 3 1 8q9 78 58 140t128 110.5t183 84.5t223 62t248 43t258 27.5t252.5 15t231.5 5.5q-32 61 -97.5 100t-150 62.5t-182 35t-194.5 18t-186 11t-157.5 14.5t-109.5 28t-41 52q0 52 33.5 95t89 78 t128 62t150.5 47.5t155.5 35t144.5 24.5q44 5 75 8t55 4.5t44 1.5h43q16 0 28.5 -1.5t18.5 -5.5q5 -3 10.5 -9.5t10 -15.5t7.5 -18.5t4 -16.5q-6 -26 -16.5 -55.5t-22 -55.5t-23 -43t-19.5 -17q-11 0 -11 32q0 29 9 92q-17 19 -40.5 30.5t-51 17t-56.5 7t-56 1.5 q-50 0 -110 -3.5t-121 -13t-118 -25t-101 -39.5t-70.5 -57.5t-26.5 -77.5q0 -40 45 -64.5t118.5 -41.5t169.5 -28l196 -23q100 -13 198.5 -30t178.5 -44.5t134 -68.5t67 -102q83 -1 156.5 -4t134 -8.5t106 -14t74.5 -19.5q14 -4 23 -8t9 -14q0 -14 -16 -36.5t-36.5 -43.5 t-39.5 -36t-26 -15q-2 0 -4 6.5t-2 14.5v7q0 3 2 6q7 19 9.5 32.5t2.5 23.5q0 16 -3 23.5t-3 12.5v2q-114 31 -205.5 43t-179.5 14q1 -5 1.5 -10t0.5 -10q0 -76 -34.5 -142.5t-90.5 -117.5q-140 -127 -298 -216t-330 -146q-120 -40 -244 -68.5t-252 -28.5zM1684 400 q0 54 -20 99l-119 -3q-75 -2 -168 -6t-195.5 -11.5t-209 -20t-206.5 -32t-189 -46.5t-157.5 -63.5t-111 -83.5t-49.5 -107q-3 -26 -3 -48q0 -133 83 -205.5t237 -72.5q96 0 184 10.5t172 31t165.5 51t165.5 70.5l89 45q47 25 93.5 55t89.5 66t76.5 78t53 90t19.5 103z" />
<glyph unicode="T" horiz-adv-x="1066" d="M1495 1063q75 4 174 15l204 22q105 11 206 20t181 9q79 0 127.5 -12t48.5 -42q0 -26 -42 -67t-138 -103q0 10 5 24.5t5 29.5q0 14 -9 26.5t-35 19.5q-66 4 -121 5t-109 1q-50 0 -101.5 -0.5t-112.5 -2.5q-194 -5 -341.5 -8t-267.5 -4q-16 -66 -39 -151l-52 -178l-58 -189 q-31 -97 -64.5 -187t-67 -168.5t-66.5 -134.5q-7 -11 -8.5 -22t-1.5 -22v-16q0 -13 -3.5 -25t-17.5 -20q-19 -10 -45 -21.5t-55 -21.5t-58.5 -16.5t-53.5 -6.5q-5 0 -10 0.5t-10 1.5q68 129 102.5 258t34.5 250q0 133 -42 248.5t-127.5 201t-216.5 134.5t-309 49 q-19 0 -40 -2.5t-36.5 -4t-23.5 0.5q-5 2 -5 5t3 7q12 15 19 31t21 29t40 21.5t75 8.5q42 0 82.5 -5t82.5 -8l157 -9q79 -5 157 -5q136 0 269 4t266 9v4q0 13 -8 28t-17 29q-11 16 -25 31q0 12 13 25t33.5 26.5t46 25.5t50 21t45 14.5t32.5 5.5q0 -18 -7 -42.5t-16 -51.5 l-17 -50q-9 -25 -12 -43q-2 -5 -2.5 -9t-1.5 -9zM770 126q44 76 81 158.5t68 164.5t55.5 162t42.5 151t30 130.5t17 102.5q-73 -1 -138 -1h-62l-180 2h-182q-94 1 -206 1q-14 0 -18 -2q-4 -1 -4 -3l1 -1q2 -2 8.5 -4t12.5 -3q109 -22 199.5 -78.5t155 -139.5t100 -189 t35.5 -227q0 -115 -36 -241q6 0 13 5t7 12z" />
<glyph unicode="U" horiz-adv-x="1935" d="M3078 -226q-159 -41 -322.5 -71t-334.5 -30q-123 0 -231.5 9t-199.5 33t-164 66t-125 108.5t-82 159.5t-36 220q-109 -91 -229 -169.5t-237.5 -136t-226 -90.5t-194.5 -33q-78 0 -135 15t-93.5 50t-54.5 92.5t-18 142.5q0 105 18.5 207.5t48.5 202t68 196.5l80 190l6 15 q4 10 7.5 23t6 27t2.5 26q0 14 -5 23.5t-17 9.5t-26 -7l-388 -190q-29 -14 -47.5 -27.5t-18.5 -39.5q0 -14 6 -32q-12 -3 -28 -6.5t-33.5 -6.5t-34.5 -5t-31 -2q-3 0 -9.5 0.5t-13 2t-11.5 3.5t-5 6t8 17t19 19l17 10l24 14q12 7 22.5 12.5t13.5 5.5l28 14l54 26l72 34 l81 38l81 39l72 34l54 25l29 14q5 3 29 15l58 29l72 38l72 38l58 29l31 15q12 5 26 11.5t29 12.5t28.5 10.5t24.5 4.5q5 0 11 -1.5t6 -6.5q0 -12 -7 -20.5t-19 -17.5l-26 -20q-14 -11 -28 -28q-82 -80 -151 -169t-119 -199t-78 -246t-28 -308q0 -66 13 -125t43 -103.5 t78.5 -70t120.5 -25.5q87 0 173 22t170 60t164.5 89.5t156.5 110.5l61 47q33 27 68 59v21q0 95 8 187t26 175t45.5 153.5t67 122t90.5 80.5t116 29q47 0 76 -32.5t29 -83.5q0 -75 -29.5 -155t-81.5 -161t-123.5 -162t-155.5 -157q21 -150 88 -267t176 -197t257.5 -122 t331.5 -42q47 0 105 5t122 14t130 22t128 29.5t117.5 35.5t97.5 41l37 33q20 16 40 28.5t41 20.5t44 8q8 0 16 1t16 1q14 0 24 -5q-22 -18 -47 -35t-47 -34q-57 -30 -120 -51t-129 -38zM1641 459q0 -24 1 -46.5t3 -45.5q52 49 101 105t87.5 116t62 123.5t23.5 127.5 q0 31 -4 64t-12.5 59.5t-22 43.5t-33.5 17q-43 0 -75 -33.5t-54.5 -86t-37.5 -117t-23.5 -127.5t-12 -116.5t-3.5 -83.5z" />
<glyph unicode="V" horiz-adv-x="958" d="M443 730q-18 55 -42 115.5t-61 111.5t-91.5 84.5t-133.5 33.5q-23 0 -47 -3q19 14 46 29t58.5 27t65 19.5t64.5 7.5q45 0 82.5 -28t68 -73.5t54.5 -102t43 -113.5t33 -109l24 -88q15 -52 28 -107l25 -111l25 -108q12 -53 25 -100q69 124 170 246t223 234.5t259.5 213 t281.5 182t288.5 140.5t279.5 89q10 3 20 3q19 0 27.5 -10t8.5 -26q0 -17 -9 -37t-26.5 -39.5t-42.5 -35.5t-57 -24q4 10 6.5 20t2.5 19q0 19 -12 32t-39 13l-17 -2q-8 -1 -18 -3q-122 -33 -252.5 -90.5t-257.5 -135.5t-244.5 -173.5t-214 -205t-165.5 -230.5t-98 -249 q-6 -42 -6 -83q0 -66 15 -123l-2 -9q-1 -10 -23 -26t-50.5 -31.5t-55.5 -26.5t-39 -11q-41 221 -94 448t-126 446z" />
<glyph unicode="W" horiz-adv-x="1547" d="M271 761q14 18 37.5 42.5t47 46.5t43 38t24.5 17q2 0 9.5 -3t7.5 -9q0 -3 -3 -6l-55 -42q-28 -21 -48 -53q-30 -48 -53.5 -105t-39.5 -119t-24 -127t-8 -128q0 -87 16 -166t50 -139t86 -95.5t124 -35.5q24 0 55.5 10t64 28t64 43.5t56 55.5t39.5 64t15 70q0 11 -0.5 23 t-0.5 23q0 6 0.5 16.5t2.5 21t7.5 20t14.5 14.5q42 19 80 34t80 24h6q-14 -29 -22 -55.5t-8 -57.5q0 -38 29 -78.5t71.5 -73.5t91.5 -54.5t88 -21.5q60 0 107 30.5t83.5 80t62 113t41.5 130t23.5 130.5t7.5 115q0 43 -8 92t-22.5 97.5t-33.5 93t-40 77.5q-39 60 -93 100 t-118 63.5t-136 33.5t-148 10q-25 0 -50 -1.5t-51 -1.5q-2 0 -2 1q35 53 78 78t92 25q40 0 77 -9.5t73 -22t71 -26t71 -21.5l298 -40q135 -18 252.5 -31.5t220.5 -23.5t200.5 -16t193.5 -9t199 -3q102 0 189 3t151 9.5t100.5 16t38.5 22.5q0 24 -32.5 43.5t-82 32.5 t-108.5 20t-113 7q-15 0 -28.5 -0.5t-24.5 -1.5q4 5 14 11.5t23 12t26 10t24 6.5q35 6 75.5 9.5t83.5 3.5q53 0 104.5 -4t92 -12.5t65.5 -21.5t25 -32q0 -39 -24 -67.5t-66.5 -48.5t-101.5 -32.5t-129 -19.5t-149 -9.5t-161 -2.5q-100 0 -208 6.5t-218.5 16.5t-221.5 22 l-214 24q-105 12 -201 20.5t-177 12.5q56 -33 102.5 -80.5t80 -103.5t52 -120t18.5 -130q0 -79 -19 -164t-53 -167t-82 -155.5t-107 -129t-126.5 -88t-140.5 -32.5t-159 37.5t-169 105.5q-35 -50 -89.5 -96t-117.5 -81t-129.5 -56.5t-126.5 -21.5q-72 0 -120.5 36.5t-78 97 t-42.5 139.5t-13 163q0 149 47.5 275t123.5 227z" />
<glyph unicode="X" horiz-adv-x="1987" d="M2763 -337q-6 -1 -13 -1h-13q-90 0 -192.5 24t-216 64.5t-236.5 93.5l-253 109l121 -146l99 -123q19 -22 38 -33t36 -11q38 0 57 51q6 -23 6 -45q0 -23 -6 -41.5t-14.5 -32.5t-17.5 -24l-12 -15q-8 -9 -19.5 -20.5t-26 -22t-29.5 -17.5t-30 -7q-11 0 -21 5t-17 16 q-86 141 -186.5 285.5t-203.5 277.5l-233 94q-118 45 -239 83q-108 -102 -209.5 -175.5t-205 -121.5t-214.5 -71t-237 -23q-26 0 -59.5 5t-63 21t-49.5 45.5t-20 78.5q0 100 46 171t122.5 116.5t175.5 67t206 21.5q120 0 246 -26t258 -68q42 38 81 78l78 80l-45 46l-103 104 l-122 124q-65 64 -136.5 126.5t-146 111.5t-150 79.5t-148.5 30.5q-10 0 -18 -0.5t-17 -1t-21 -2.5l-30 -5q13 33 32.5 61t43.5 48.5t52 32t60 11.5q37 0 72 -15t69.5 -40t68.5 -56l69 -63l286 -274l247 -251l101 117l92 111l83 103l73 89q3 11 11 31t19 43.5t24 48.5 t25.5 46.5t23.5 37.5t19 21q29 20 60.5 24.5t60.5 4.5q7 0 17.5 -0.5t20 -2t16.5 -5t7 -9.5q0 -2 -1.5 -6.5t-8.5 -8.5l-146 -134q-59 -52 -80 -77l-210 -245l-187 -210l233 -255l191 -221l233 -102q113 -50 217.5 -87.5t198.5 -60t174 -22.5q61 0 112 14t89.5 39t63.5 59 t34 75q11 -23 23.5 -58.5t12.5 -70.5q0 -32 -20.5 -54t-50.5 -36t-64.5 -21t-62.5 -8zM408 -87q93 0 184 25t179 68.5t171.5 103t161.5 128.5q-145 42 -287.5 68t-284.5 26q-75 0 -133.5 -18.5t-98.5 -49t-60.5 -71t-20.5 -83.5q0 -34 14 -69t38.5 -63.5t59.5 -46.5t77 -18z M1577 96l-136 168q-66 78 -124 140l-74 -76l-71 -71q101 -35 202.5 -75.5t202.5 -85.5z" />
<glyph unicode="Y" horiz-adv-x="1150" d="M-20 -733q0 92 41.5 183t115.5 180t176.5 174.5t225.5 166t261.5 154t284.5 139.5l137 204q69 101 148 205q-71 -53 -150 -98.5t-163.5 -80t-171.5 -54t-173 -19.5q-103 0 -173.5 35.5t-117.5 94t-76.5 134t-50 155t-38.5 157t-42 141.5q-6 15 -23 31.5t-40 31t-49.5 24 t-50.5 9.5q52 20 114 20q34 0 67 -6.5t60.5 -22.5t47.5 -43.5t27 -68.5q7 -39 21 -101.5t38.5 -133.5t60.5 -142.5t86.5 -129.5t115.5 -94.5t149 -36.5q88 0 173 26t163.5 70.5t148 103t128.5 123.5q15 16 33 43l38 59l42 66q22 35 45 67.5t46 59.5t46 44q6 11 20.5 19.5 t32.5 14.5t36 9t30 3t26.5 -1.5t25 -5.5t13.5 -11.5t-8 -20.5q-36 -43 -81 -87l-91 -85l-85 -79q-40 -37 -65 -65l-135 -180l-60 -82l-64 -88l-62 -88l-57 -86q139 59 279.5 109.5t274.5 91t259 69t233 44.5q43 6 87 9t88 3q68 0 130.5 -7.5t110 -22t76 -36.5t28.5 -51 q0 -17 -4 -37t-20.5 -42.5t-48.5 -47t-88 -51.5q8 17 13.5 31.5t5.5 30.5q0 49 -25.5 80.5t-67.5 49.5t-95 25t-108 7q-43 0 -84.5 -3t-77.5 -7t-64.5 -8.5t-45.5 -6.5q-102 -14 -211 -39t-220.5 -58.5t-224 -75t-221.5 -89.5q-19 -29 -34.5 -55.5t-26.5 -48.5l-106 -199 q-57 -106 -124 -211.5t-144 -204t-166 -178.5t-190 -135t-215 -72q-7 -1 -13.5 -1.5t-14.5 -0.5q-22 0 -47 4.5t-46 16t-35 31t-14 49.5zM1063 230q-125 -58 -241 -122.5t-217.5 -132.5t-185 -137.5t-143.5 -139t-93 -136.5t-33 -129q0 -23 2.5 -51t10.5 -53t24.5 -41.5 t44.5 -16.5q5 0 10 0.5t11 1.5q93 17 173.5 70t150.5 128.5t131 168t116 187.5l106 187q51 92 101 167z" />
<glyph unicode="Z" horiz-adv-x="627" d="M1446 1252q5 -3 17 -19.5t24 -36.5l22 -40q10 -18 12 -24l-253 -232l-224 -198l-201 -168l-181 -148l-168 -131l-157 -122q-5 -2 -8.5 -9.5t-3.5 -12.5q0 -8 9 -13t16 -8q219 -96 408 -200l358 -204l318 -186q151 -87 290.5 -144.5t271.5 -79.5q58 -10 116 -10 q75 0 150 16q43 10 87 26t84.5 36t75.5 42.5t59 45.5l4 2q2 1 5 2q8 1 10 0q1 -1 1 -5q0 -10 -7 -20q-50 -43 -105 -80.5t-112 -66.5t-116 -48t-118 -25q-44 -5 -87 -5q-70 0 -139 12q-111 20 -220.5 60t-219.5 94l-220 114q-109 58 -213 120l-201 119l-188 109 q-91 52 -173.5 91t-156.5 61.5t-139 22.5q-32 0 -58 -4.5t-46.5 -10.5t-35 -11t-23.5 -6q-2 0 -6 3t-4 5q0 3 5.5 7t24.5 14l54 30l96 53q60 33 132 84.5t151 114.5l162 136l165 148l162 150l151 146l132 132l106 108q5 2 4.5 8.5t-11.5 0.5q-71 -35 -150.5 -54.5 t-153.5 -19.5q-96 0 -173.5 7t-150.5 19q-48 8 -90 17l-77 18q-36 9 -66.5 14.5t-57.5 5.5q-58 0 -81 -28.5t-23 -82.5q0 -35 17 -73t66 -78h-22h-8q-46 0 -75 10q-32 11 -48.5 29.5t-18.5 42.5v8q0 20 8 42q10 27 29.5 53t47.5 48q48 38 114.5 66.5t142.5 37.5q22 3 45 3 q36 0 76 -7q65 -11 139 -26.5t158 -30t179 -14.5q71 0 121.5 8t83.5 25t49 45t19 67z" />
<glyph unicode="[" horiz-adv-x="888" d="M1030 1225q1 -2 1 -5q0 -4 -3 -10q-6 -8 -15.5 -17t-20.5 -17t-18 -11q-78 -18 -157.5 -19.5t-158.5 -2.5q-13 -31 -23 -62l-20 -60l-26 -75l-23 -71l-24 -71l-23 -76l-57 -182q-27 -91 -51 -183t-43 -185t-31 -187q60 -28 130 -34.5t132 -6.5h11l17 2q9 0 16.5 0.5 t7.5 1.5q0 -5 -6.5 -13.5t-15.5 -17.5t-19 -17t-17 -11q-23 -8 -49 -9.5t-50 -2.5q-21 -1 -42 -1.5t-43 -0.5q-41 0 -81 4t-78 17q0 2 -2 2q2 26 2 51t3 50q3 31 9.5 68t14.5 75.5t17 74.5l15 66q31 126 69 247.5t80 242.5l30 91q16 47 34 94.5t39 93t46 84.5l8 8l17 22 q10 13 22.5 25.5t25 22.5t22.5 12q57 -3 115 -8.5t115 -5.5q25 0 49 1.5t49 5.5z" />
<glyph unicode="\" horiz-adv-x="630" d="M-8 1147q72 -127 154 -247l159 -240q109 -169 206 -340t171 -354q0 -1 -2 -1q-6 0 -18.5 9.5t-26.5 22.5t-25 25t-14 17q-103 191 -216 375l-229 370l-129 212q-62 105 -113 217q0 4 3 4q5 0 17 -9.5t25 -21.5l24 -24q11 -11 14 -15z" />
<glyph unicode="]" horiz-adv-x="840" d="M96 -112q-1 2 -1 5q0 4 3 9q6 9 15.5 18t20.5 17t18 11q39 9 78.5 13.5t79 6t79.5 1.5t79 1q13 31 23 62l20 60l26 75l23 71l24 71l23 76l56 182q28 91 52 183t43 184.5t31 187.5q-60 28 -130 34.5t-132 6.5q-2 0 -11 -1h-17q-9 -1 -16.5 -1.5t-7.5 -1.5q0 5 6.5 13.5 t15.5 17.5t19 17t17 11q23 8 49 9.5t50 2.5q21 1 42 1.5t43 0.5q41 0 81 -4t78 -17q0 -2 2 -2q-2 -26 -2 -51t-3 -50q-3 -31 -9.5 -68t-14.5 -75.5t-17 -74.5l-15 -66q-31 -126 -69 -247.5t-80 -242.5l-30 -91q-16 -47 -34 -94.5t-39 -93t-46 -84.5l-8 -8l-17 -21 q-10 -14 -22.5 -26.5t-25 -22.5t-22.5 -12q-57 3 -115 8.5t-115 5.5q-25 0 -49 -1.5t-49 -5.5z" />
<glyph unicode="^" horiz-adv-x="533" d="M48 262q16 6 47 24.5t65.5 41.5t67.5 48t52 43q15 13 23 13h2q7 -3 14 -8q16 -21 40 -42t52 -40.5t58 -35.5t57 -26q-7 -10 -24.5 -20.5t-37.5 -19t-38.5 -14.5t-25.5 -7q-6 0 -24.5 9.5t-40.5 25.5t-43 35.5t-32 38.5q-8 10 -13 13t-20 -8l-37 -23l-40 -26 q-20 -13 -36.5 -22t-23.5 -10q-17 -2 -28.5 -3t-13.5 13z" />
<glyph unicode="_" horiz-adv-x="325" />
<glyph unicode="`" horiz-adv-x="117" d="M-4 622h-5q-1 0 -1 1t2 4q4 7 14.5 22.5t24 31t28 28.5t26.5 15q12 -1 33 -19.5t42 -43.5t38.5 -50.5t24.5 -39.5q0 -2 -10 -12l-22 -21l-22 -20q-9 -8 -10 -8t-3 3.5t-12 14l-24 24.5q-23 21 -46.5 37t-44.5 25q-17 8 -29 8h-4z" />
<glyph unicode="a" horiz-adv-x="672" d="M416 162q2 1 5 1h4q9 0 9 -9q0 -3 -3.5 -10.5t-11.5 -16.5q5 -19 15 -44t23.5 -47t29 -37.5t32.5 -15.5q29 0 57 18t55 43t52 52.5t49 46.5l4 2q2 1 7 1q21 0 21 -5l-1 -1q-37 -29 -73.5 -66.5t-77 -71t-87.5 -57t-105 -23.5q-25 0 -43.5 14t-33 34t-24.5 40l-17 35 q-15 -8 -40 -19t-54.5 -22t-61 -18.5t-60.5 -7.5q-35 0 -61 16.5t-26 59.5q0 11 10 35t29 41q27 24 66 41.5t81 29t81.5 18.5t65.5 11q2 0 3 0.5t3 0.5q9 0 19.5 -5t10.5 -7q0 -8 2.5 -17t2.5 -19q0 -11 -8.5 -21t-37.5 -18q-17 18 -37.5 32.5t-49.5 14.5q-42 0 -68.5 -21.5 t-26.5 -51.5q0 -15 3 -30t10.5 -27t21 -19.5t34.5 -7.5q11 0 19 0.5t17 3.5t20 8.5t28 15.5q2 12 15 27t30.5 29t37 26t35.5 18z" />
<glyph unicode="b" horiz-adv-x="512" d="M-19 51q2 9 14 17t29 15q-4 15 -4 37q0 24 22.5 52t55.5 48q10 68 27.5 150t40.5 167q-69 -26 -141.5 -48t-146.5 -37.5t-148.5 -24.5t-147.5 -9q-15 0 -34.5 2.5t-36.5 9t-29 18t-12 30.5q0 16 10 38.5t27 43t38.5 36.5t45.5 21q-1 -5 -1.5 -10.5t-0.5 -11.5 q0 -24 9 -46t27 -39.5t44.5 -28t61.5 -10.5q93 0 207.5 23t234.5 67q19 71 40 139.5t42.5 128t42.5 107t39 75.5q21 32 48 58.5t58.5 45.5t65 29.5t67.5 10.5t67 -7.5t58.5 -23.5t41 -41t15.5 -59q0 -55 -31.5 -108.5t-78.5 -100.5t-102.5 -86.5t-103.5 -65.5 q-53 -29 -112 -56.5t-124 -53.5q-15 -73 -27.5 -152t-23.5 -157q8 2 14.5 3t14.5 1q37 0 74.5 -8.5t68.5 -22.5t52.5 -32t26.5 -36q75 3 131 3q14 0 24.5 -0.5t18.5 -0.5h16q10 -3 8 -11q-5 -14 -12.5 -17t-16.5 -1t-19 6t-18 4q-2 2 -20.5 4t-60.5 2q-24 0 -49 -3 q-1 -50 -32 -81t-75.5 -49t-95.5 -24.5t-93 -6.5q-80 0 -110 22q-23 17 -23 40q0 7 2 15zM252 738q-23 -69 -41 -162q56 23 110.5 49t106.5 57q98 57 153 123t55 143q0 65 -34.5 98.5t-93.5 33.5q-66 0 -106.5 -29.5t-67 -77.5t-44 -109.5t-38.5 -125.5zM134 88 q-3 -16 -23.5 -29t-40.5 -18q5 -21 27 -35.5t60 -14.5q28 0 51 9.5t39.5 23.5t26 30t9.5 29q0 14 -5 34q-29 -5 -65.5 -13t-78.5 -16zM138 117q67 13 134 21q-7 17 -17.5 33.5t-25 29.5t-33.5 21t-41 8h-2zM89 131q2 31 6 68q-8 -11 -13 -23.5t-5 -23.5v-9q0 -6 0.5 -12 t2 -10.5t3.5 -4.5q1 0 3 3.5t3 11.5z" />
<glyph unicode="c" horiz-adv-x="437" d="M6 62q0 17 14.5 40t38 47t54 47t62 41t61.5 29t54 11q11 0 19 -7.5t8 -34.5q0 -42 -22 -68.5t-53 -26.5q6 6 6 12q0 22 -22.5 37t-48.5 15q-16 0 -31.5 -4t-28 -10.5t-20 -14.5t-7.5 -16q0 -20 16 -39.5t39 -35.5t49.5 -25.5t47.5 -9.5q55 0 104 16.5t86.5 37t61.5 37 t30 16.5q2 0 5 -4t3 -7t-8 -8.5t-18 -10.5l-22 -11l-14 -7l-68 -37q-38 -21 -82 -40t-91.5 -32t-95.5 -13q-23 0 -45.5 2.5t-40.5 11t-29.5 23.5t-11.5 39z" />
<glyph unicode="d" horiz-adv-x="717" d="M533 7q42 0 104 24.5t136 86.5q2 1 8 6l12 10q6 6 11 10l6 5q3 0 3 -2t-1 -4q-11 -22 -38.5 -48t-64 -52.5t-78 -50.5t-80.5 -43t-71 -30t-50 -11q-54 0 -81 38t-30 110q-55 -34 -109 -52t-106 -18q-25 0 -40 6.5t-23.5 16.5t-11 22t-2.5 24q0 29 21 60t58 56.5t87.5 42 t108.5 16.5h12q7 0 12 -1q8 73 19.5 143t25.5 139q16 82 38.5 167t51.5 164.5t64.5 149.5t78.5 122t93 82.5t108 30.5q32 0 54 -9.5t35.5 -25t19 -37t5.5 -45.5q0 -81 -19 -170t-53 -180t-81 -181t-103.5 -172.5t-120 -154.5t-129.5 -127q6 -24 15 -45.5t23 -37.5 t34.5 -25.5t47.5 -9.5zM846 937q0 39 -8 72.5t-26 58t-47 38t-71 13.5q-50 0 -91 -39t-73.5 -105t-56.5 -152.5t-40 -181.5t-23.5 -192t-7.5 -183q0 -26 1 -58t6 -64q52 45 105 106.5t101.5 132t90.5 145.5t73 148t49 140t18 121zM321 168q-9 -8 -19 -13.5t-19 -5.5 q-8 0 -18 7l-22 17q-12 9 -26.5 16.5t-29.5 7.5q-16 0 -29 -7t-22 -17.5t-14 -21.5t-5 -19q0 -16 6 -31t18.5 -27t31 -19.5t43.5 -7.5q47 0 103 32v45q0 21 2 44z" />
<glyph unicode="e" horiz-adv-x="505" d="M191 137q2 -5 11 -21t24.5 -32.5t38 -29.5t50.5 -13q25 0 56 3.5t65 14.5t69.5 33t69.5 58q2 0 8 1.5t11 1.5q9 0 9 -6q-36 -43 -89 -73t-107.5 -49t-104 -28t-78.5 -9q-35 0 -63 1.5t-50 12.5t-38 35.5t-25 71.5q-1 7 -1 13q0 18 9 33q14 21 38.5 37.5t57 29.5 t65.5 21.5t62.5 12.5t48.5 4q34 0 58 -10q22 -9 22 -25q0 -13 -13.5 -24t-33.5 -20.5t-44.5 -17t-48.5 -13t-44.5 -9t-32.5 -4.5zM242 234q-9 0 -19.5 -3t-20 -9t-16.5 -15q-8 -11 -8 -26q0 -5 1 -11q2 -9 5 -16q9 1 24.5 5.5t31.5 10.5t27.5 13.5t11.5 13.5 q0 20 -10.5 28.5t-26.5 8.5z" />
<glyph unicode="f" horiz-adv-x="316" d="M149 173q-5 -5 -16.5 -14.5t-24.5 -17.5q-8 -43 -15 -85.5t-12 -84.5q54 22 96.5 43.5t77 41.5t63.5 40l54 40q10 5 18 6.5t11 1.5q5 0 8 -5q0 -4 -3 -8.5t-7 -8.5q-39 -31 -76 -56t-75.5 -46.5t-80 -40t-90.5 -37.5q-1 -5 -1.5 -9t-0.5 -9q81 -25 127.5 -88t46.5 -167 q0 -17 -3 -47t-10.5 -65.5t-21.5 -71.5t-36 -65.5t-53 -48t-74 -18.5q-26 0 -43.5 20t-29 50.5t-16.5 68t-5 72.5q0 13 0.5 25.5t1.5 26.5q4 51 15.5 123.5t28.5 160.5h-13q-6 0 -13 -2h-12q-6 0 -12 -1h-3l-74 -25l-90 -37q-49 -20 -96 -26l-32 -3q-13 -2 -22 -2 q-25 0 -25 16q0 37 33.5 60.5t84 37t110.5 18.5t114 5h25q11 0 22 -2l12 5q20 91 46 192t57.5 204t67 204.5t75 193.5t82 170.5t86.5 136t89.5 90t91.5 32.5q28 0 40.5 -23.5t12.5 -64.5q0 -44 -11.5 -101t-27 -113.5t-31.5 -104.5t-26 -73q-24 -59 -62.5 -119t-83 -115 t-90.5 -104l-84 -86l-65 -61q-26 -24 -30 -29zM492 1010q-33 0 -67.5 -32t-69.5 -89t-69 -135.5t-65 -170.5t-57.5 -195t-47.5 -208l52 46q71 63 142.5 135t129.5 151t94 164.5t36 174.5q0 69 -19 114t-59 45zM146 -518q33 0 50.5 24t21.5 62q1 12 1 24q0 28 -6 60 q-9 46 -28.5 90.5t-48.5 82t-66 57.5q-5 -53 -7.5 -104t-2.5 -99q0 -42 5.5 -78t16 -62.5t26.5 -41.5t38 -15z" />
<glyph unicode="g" horiz-adv-x="578" d="M415 254q0 1 8 10.5t20 21.5t26 24t26 18t39.5 10.5t55.5 7t50.5 3.5t24.5 1q-4 -2 -16 -13t-25 -25.5t-24 -29t-12 -22.5q0 5 -14.5 11.5t-35.5 8.5q-11 1 -21 1q-20 0 -40 -4q-32 -7 -51 -35q8 2 15.5 3t15.5 1q23 0 44 -15.5t21 -45.5q0 -26 -18.5 -53t-46 -50.5 t-58.5 -41t-55 -24.5q-2 -3 -4 -3q-35 -15 -70.5 -27t-75.5 -17q-4 -12 -4 -24q0 -8 7 -12t19 -6t27.5 -2.5t31.5 -0.5q25 0 47 0.5t43.5 1.5t44 1.5t48.5 0.5q44 0 88 -3.5t79 -18.5t56.5 -46.5t21.5 -88.5q0 -72 -30.5 -140.5t-78 -130.5t-104 -114.5t-108.5 -92.5 q-3 -2 -5 -4.5t-3 -3.5q-101 -76 -216 -124t-236 -48q-48 0 -94.5 8t-94.5 26q-131 50 -198.5 124.5t-67.5 157.5q0 52 22.5 102t58.5 94.5t81 82.5t90 66q43 27 91.5 51t98 44t97.5 36t90 28q5 0 5 -2q-4 -16 -7 -25t-7 -13t-9 -5.5t-13 -2.5q-28 -4 -75 -16.5t-101 -33 t-109.5 -49t-100 -64.5t-73 -80t-28.5 -95q0 -49 14 -96t39.5 -87.5t61 -73.5t79.5 -54q57 -28 109.5 -46t111.5 -18q110 0 204 37t190 105q5 5 7 6q8 6 15.5 12.5t14.5 13.5l68 74q34 37 62 78.5t45.5 88t17.5 99.5q0 34 -17 61t-45.5 48t-64.5 36.5t-73.5 25.5t-74.5 14.5 t-66 4.5q-48 0 -77.5 -2.5t-47 -6t-25.5 -6t-12 -2.5q-6 0 -6 6t5.5 16t7.5 15l39 70h-7q-22 0 -44 3.5t-40 12t-29 23t-11 37.5q0 31 19 58t39 48q39 41 90.5 69.5t108.5 28.5q16 0 31.5 -2.5t32.5 -8.5q0 -6 -4.5 -13t-10.5 -13t-13 -11t-13 -6q-7 1 -13.5 1.5t-13.5 0.5 q-18 0 -46.5 -4t-55 -12.5t-46 -22t-19.5 -31.5q0 -38 28.5 -59t68.5 -27l50 56l63 66l39 42q19 20 43 32q0 7 8 20zM252 35q32 0 63.5 5t56.5 13l5 4l11 6q19 11 34 25t15 30q0 9 -6 20.5t-14.5 22t-18.5 18t-18 7.5q-14 0 -25 -14t-24 -26l-51 -57q-24 -28 -44 -54h16z " />
<glyph unicode="h" horiz-adv-x="589" d="M239 499q-14 -46 -27.5 -101.5t-24 -107t-17.5 -92t-7 -56.5q0 -20 4 -34t15 -14t26.5 16t32 35.5t33.5 36t32 16.5q17 0 31 -14.5t26 -35.5t24.5 -46.5t27 -46.5t32 -35.5t41.5 -14.5q17 0 42.5 15.5t51 37t48 44.5t33.5 38q7 6 12.5 11.5t15.5 5.5q-12 -21 -40.5 -60 t-66 -78t-79.5 -67.5t-81 -28.5q-47 0 -79.5 31.5t-54.5 73.5q-12 22 -18.5 36.5t-11 23.5t-8.5 12.5t-11 3.5q-11 0 -23 -14.5t-26 -33.5l-28 -40q-14 -20 -29 -32q-17 -13 -42 -13q-11 0 -25.5 2t-27.5 6.5t-22 11t-9 15.5q0 11 8 37.5t18.5 55.5l20.5 55l15 36l45 116 l44 126l45 126l44 120l41 108q22 58 51 118q-46 8 -85 20.5t-68 30.5t-45.5 41t-16.5 53q0 38 17.5 61t41.5 35.5t49 16.5t39 4q-32 -28 -32 -65q0 -57 33.5 -94.5t87.5 -60.5q31 61 69 117.5t85.5 100t104 69.5t125.5 26q31 0 59 -9.5t48.5 -26t32.5 -39t12 -47.5 q0 -63 -30.5 -109.5t-82 -77t-120.5 -45.5t-145 -15q-80 0 -152 9q-20 -47 -37.5 -97t-32.5 -101l-30 -103zM668 1177q-49 0 -90.5 -18t-76 -50t-63.5 -76t-53 -96q38 -13 81 -19t87 -6q50 0 96.5 9t82.5 27.5t58 46t22 65.5q0 37 -12 59.5t-32 35.5t-46 17.5t-54 4.5z" />
<glyph unicode="i" horiz-adv-x="401" d="M95 -5q-6 0 -16.5 3t-20.5 10t-17.5 18.5t-7.5 27.5q0 58 25 103.5t72 98.5q11 8 31.5 11t39.5 3q16 0 27.5 -1.5t11.5 -6.5q0 -10 -10.5 -17t-15.5 -12q-17 -23 -25.5 -49t-8.5 -51q0 -35 18.5 -61t57.5 -26q24 0 59 12t70 29.5t63.5 36.5t39.5 33q5 5 7 6.5t5 1.5h4 q3 0 3 -2q0 -18 -20 -38t-52.5 -38.5t-75.5 -35t-88.5 -29t-91 -20t-84.5 -7.5zM202 414q37 32 84 54.5t104 22.5q3 0 7 -2.5t4 -8.5l-23 -30q-13 -17 -29 -34t-33 -29t-31 -12q-3 1 -6.5 6.5t-7.5 10.5l-7 10q-4 5 -6 5q-9 0 -12 -0.5t-5 -2t-5.5 -3t-12.5 -4.5q-7 0 -14 3 t-7 14z" />
<glyph unicode="j" horiz-adv-x="271" d="M-451 -195q23 0 56 -1t83 -4.5t120.5 -9t169.5 -14.5q24 79 40 161t25.5 154t12.5 127q2 30 2 52q0 18 -1 30q8 7 26 13t40.5 11.5t46.5 10t44 7.5q12 2 17 0t7 -5.5t1.5 -6.5t1.5 -3q-16 -22 -27 -48l-21 -51q-24 -54 -44 -112t-37 -116l-35 -117q-17 -58 -36 -113 l279 -26l372 -37q6 -3 15.5 -5t9.5 -12t-16 -33.5t-61 -70.5q-34 23 -97.5 49t-144.5 50t-174.5 43t-187.5 28q-25 -71 -56.5 -132t-75 -106t-102 -70.5t-138.5 -25.5q-63 0 -112 34t-82.5 81.5t-51 98t-17.5 83.5q0 28 7 45t24.5 26t46 12t70.5 3zM-276 -555 q43 0 79.5 25.5t67.5 68.5t56.5 100.5t45.5 122.5q-96 8 -185.5 12t-164.5 4q-53 0 -75 -17.5t-22 -43.5q0 -17 8.5 -44t23 -57.5t34 -61t41.5 -54.5t45 -39.5t46 -15.5zM153 548q-1 4 2 8l7 9l6 11q4 5 5 11q8 8 18 14t21 8h3q15 0 26 -11q11 -17 23.5 -33t28.5 -27.5 t36 -16.5q9 -2 19 -2q13 0 27 3q-5 -8 -17.5 -15t-27.5 -12t-30 -8t-25 -4q-5 -1 -9 -1q-12 0 -22 4q-15 6 -27 12.5t-21.5 10.5t-15.5 -2q-9 8 -15.5 17t-11.5 20v4z" />
<glyph unicode="k" horiz-adv-x="423" d="M876 1087q0 -41 -23.5 -79.5t-65 -74t-98 -68t-123 -61.5t-140.5 -54t-150 -45q-13 -43 -24 -84t-22 -76l-50 -174l-51 -180q20 13 44.5 25.5t50.5 22.5t52.5 15.5t50.5 5.5q23 0 37.5 -9.5t14.5 -27.5q0 -10 -6 -22q-14 -26 -35.5 -44.5t-46.5 -32.5t-52 -25t-52 -20 q-4 -2 -5 -2q53 -34 112 -77l122 -86l124 -84q62 -42 120 -75.5t110 -54.5t93 -24q10 -1 19 -1h18q92 0 149 33t68 96q1 3 3 3t4.5 -4t2.5 -5q-8 -42 -36 -74t-66.5 -54.5t-82.5 -34t-84 -11.5q-74 0 -151 23t-152 59.5t-145.5 82t-132 91.5t-111.5 87l-82 69q-2 -5 -3 -8.5 t-2 -7.5q-8 -13 -28 -24.5t-37 -11.5q-7 0 -10 4l47 154l49 164l54 170q28 86 61 172l8 22q4 12 9 24q-132 -32 -253 -50t-208 -18q-18 0 -38 -0.5t-40 -0.5q-68 0 -96 17t-28 41q0 20 15 42.5t38.5 42t52.5 34t56 18.5q-12 -10 -19 -24t-7 -34q0 -52 46 -71t146 -19 q57 0 121.5 6.5t133.5 20.5q43 7 90 21l46 112q25 59 55.5 115.5t68 107.5t83 89.5t99.5 61.5t118 23q32 0 61.5 -6.5t52.5 -21.5t36.5 -40.5t13.5 -63.5v-10zM622 1132q-71 0 -124.5 -35.5t-93.5 -92.5t-69.5 -128.5t-51.5 -144.5q59 17 118.5 38.5t114.5 45.5t102.5 48.5 t83 49t56 47.5t20.5 42q0 37 -14 62t-36.5 40t-50.5 21.5t-55 6.5zM109 120l25 -14l27 -16q19 6 33 20.5t14 47.5q0 9 -3.5 16t-23.5 7q-27 0 -59 -13z" />
<glyph unicode="l" horiz-adv-x="392" d="M608 1015q0 -84 -22 -165.5t-59.5 -160t-86 -153t-102 -144t-108.5 -132.5l-103 -121l1 -1q9 -36 27 -63.5t40 -45.5t47.5 -27.5t49.5 -9.5t47 13t43.5 31.5t37 39t27.5 35.5q13 17 18.5 28.5t13.5 11.5q5 0 5 -8q0 -9 -12.5 -29.5t-34.5 -46.5t-52 -53.5t-65.5 -50.5 t-75 -38t-80.5 -15q-35 0 -57.5 21t-35.5 57t-17.5 83.5t-4.5 99.5q0 88 19 189t52 201.5t78.5 193.5t99 164t112.5 113.5t120 42.5q14 0 28 -3.5t25 -10.5t18 -18.5t7 -27.5zM112 319q-2 -11 -2.5 -25t-0.5 -26q0 -26 3 -49.5t8 -49.5q74 64 142.5 150.5t121 182.5t84 194 t31.5 184q0 22 -5 42t-13 34.5t-18.5 23t-20.5 8.5q-42 0 -95 -48t-102 -136t-86 -211.5t-47 -273.5z" />
<glyph unicode="m" horiz-adv-x="959" d="M615 41q-7 7 -12 16t-8.5 17t-7 13.5t-7.5 5.5q-26 0 -44 -13l-42 -26q-22 -14 -52 -26t-78 -12q-14 5 -26.5 15.5t-12.5 27.5v16q0 13 -1.5 21t-7.5 8t-15 -5t-16 -10q-8 -5 -26 -18t-44 -26.5t-60.5 -24t-74.5 -10.5q-11 0 -14 4q-9 19 -13 40.5t-4 42.5q0 24 5 50.5 t13 40.5q6 9 27 20.5t46.5 22t50 18t36.5 7.5q1 -1 1 -4t-1 -16l-3 -31q-1 -18 -2 -38t-1 -37q0 -19 5 -31.5t18 -12.5q8 0 24 10t36 25l44 33q23 18 45.5 33t43 25t34.5 10q5 0 11 -2t6 -18q0 -22 -8 -40.5t-8 -40.5q0 -19 8 -26.5t21 -7.5q14 0 32 12t37 27l34 31 q17 15 27 21q17 9 28.5 14t22.5 5q23 0 43 -27t35 -87q8 -18 14 -28.5t12.5 -16t13.5 -7t16 -1.5q20 0 47.5 9.5t54.5 23t50.5 28.5t36.5 27q14 13 21.5 21.5t13 13.5t12.5 7t20 2q-24 -30 -52 -59t-63 -52t-78.5 -37t-98.5 -14q-16 0 -39 1.5t-46.5 6t-45 12.5t-34.5 21z " />
<glyph unicode="n" horiz-adv-x="643" d="M445 -29q-44 0 -71 5t-42.5 14.5t-22.5 24t-10 32.5q-3 15 -3.5 29.5t-1 25t-2 17t-5.5 6.5t-11 -2.5t-19.5 -11.5t-32.5 -25t-49 -43q-20 -23 -46.5 -30t-48.5 -7q-26 0 -34 1.5t-8 13.5q0 7 2 19t3.5 27t3 32t1.5 33q0 21 -3 35.5t-1.5 26t11 21t35.5 19.5q17 5 33.5 9 t31.5 6q12 2 22 2q5 0 9 -1q13 -1 15 -8q4 -10 4.5 -32t1.5 -44.5t3.5 -40t10.5 -17.5q4 0 9.5 1t13.5 8q19 16 41.5 30.5t45 26t43 18.5t36.5 7q25 0 34 -27t11 -100q1 -31 13.5 -46t23.5 -15q23 0 64.5 18.5t86.5 52.5q3 2 16 12l27 22l25 20q11 9 12 9t6.5 -1.5t5.5 -4.5 l-85 -69q-37 -31 -70.5 -53t-66 -34t-68.5 -12z" />
<glyph unicode="o" horiz-adv-x="613" d="M481 47q-5 0 -19 0.5t-32 3.5q-27 -15 -56.5 -26t-57 -18t-51 -10.5t-37.5 -3.5q-8 0 -21.5 -1t-29.5 -1q-19 0 -40.5 3.5t-42 12t-37.5 21.5t-28 32q-7 11 -7 24q0 23 24 43t60.5 36t78.5 27t78 16q3 23 16.5 40.5t32 29.5t39.5 18t40 6q24 0 46.5 -10t40 -28t28.5 -42 t11 -51t-13 -50t-35 -41q21 -10 50 -10q21 0 43 1t43 6t41.5 15.5t40.5 30.5q7 7 9.5 15t5.5 8q1 0 3 -1q3 -2 3 -6q0 -2 -1 -5q-2 -7 -7 -14.5t-11.5 -15t-10.5 -10.5q-10 -8 -25 -16t-38 -14.5t-56 -10.5t-78 -4zM395 58q-23 6 -46.5 15.5t-42.5 25t-31.5 37.5t-12.5 52 q-14 -2 -28.5 -6t-26 -11t-18.5 -16.5t-7 -22.5q0 -22 12 -41.5t31 -34t42.5 -23t46.5 -8.5q20 0 41 9t40 24zM351 258q6 -44 27 -87t55 -71q15 23 15 44q0 27 -11 52t-26 43.5t-29.5 29.5t-21.5 11q-11 0 -11 -10q0 -4 2 -12z" />
<glyph unicode="p" horiz-adv-x="455" d="M234 147q-26 0 -54.5 -15t-58.5 -42q-2 -61 -7 -141t-12 -164t-15.5 -165t-18.5 -145q-13 -84 -42.5 -155t-66.5 -122t-77 -80t-73 -29q-36 0 -57.5 36t-21.5 114q0 54 13 120.5t36 139t55 148t70 149t80.5 141.5t86.5 125q-5 79 -20 117t-51 38q-14 0 -35.5 -4.5 t-35.5 -14.5q9 46 24.5 74.5t33.5 44.5t36.5 21.5t32.5 5.5q12 0 23 -8t19.5 -20.5t14.5 -29t7 -33.5q1 -12 2 -22v-21q1 -10 1 -22v-28v-18q0 -9 -1 -19q55 60 107.5 95t99.5 35q12 0 26 -5t26.5 -15.5t20.5 -27.5t8 -41q0 -39 -25.5 -75t-60.5 -64t-73.5 -45t-63.5 -17 q-22 0 -35.5 12.5t-13.5 29.5q0 20 17 45t39 35q1 -12 9.5 -21.5t21.5 -16t27.5 -10.5t26.5 -4t20 5t8 19q0 13 -4.5 29t-14 29.5t-23 22.5t-31.5 9zM-181 -636q0 -14 1 -36.5t6 -45t15.5 -38.5t30.5 -16q38 0 67.5 34t52 90t38 128.5t25.5 150t14.5 153.5t4.5 140 q0 32 -0.5 60t-1.5 53q-48 -58 -94 -138t-81 -170t-56.5 -184t-21.5 -181z" />
<glyph unicode="q" horiz-adv-x="516" d="M951 -188q-84 -1 -163.5 -23.5t-152.5 -62t-139.5 -92t-126 -112t-111.5 -124t-96 -127.5q-30 -43 -48 -84t-36 -73.5t-42 -52t-66 -19.5q-8 0 -11.5 3t-6.5 6q-2 2 -2 8v7q2 11 6.5 25.5t11.5 29.5t14 27q30 63 62 143.5t63 167.5t59 175t49 166t33.5 139.5t13.5 95.5 q-52 -18 -103 -26.5t-110 -8.5q-20 0 -33.5 10t-13.5 32q0 37 20 66.5t53 51.5t75 37t85.5 24.5t84.5 14t73 4.5q22 0 35 -3t13 -18q0 -14 -10.5 -23.5t-24.5 -14.5t-29 -7t-24 -2t-9 1q0 14 -17 17t-37 3q-23 0 -44 -10.5t-38 -26t-27 -34.5t-10 -37q0 -17 12.5 -26.5 t46.5 -9.5q15 0 22.5 5.5t11.5 13.5t7 16.5t9 14.5q1 5 19.5 16t44.5 22.5t55 20t50 8.5q-1 -18 -8.5 -32t-18.5 -26l-20 -26q-11 -13 -17 -29q-27 -57 -60.5 -140t-68.5 -181t-68.5 -205.5t-60.5 -215.5q-5 -17 -4.5 -24t3.5 -7t8 5t9 12q85 112 180 212t208.5 175.5 t250.5 120.5t306 47q21 0 48.5 -2.5t52 -10t42.5 -19.5q20 -13 20 -32q0 -16 -13 -35q-13 -20 -32 -38.5t-37.5 -33t-26.5 -19.5q-10 -6 -18 -9.5t-18 -8.5q11 17 14.5 30.5t2.5 26.5q-2 23 -18.5 43t-41 35t-54.5 24t-58 9z" />
<glyph unicode="r" horiz-adv-x="466" d="M59 201q8 9 32.5 20.5t50.5 21.5l68 23q7 0 6 -12q-1 -11 -6 -32l-10 -42q-5 -23 -8.5 -42.5t-0.5 -28.5q27 30 64.5 65.5t78 66.5t82 52t76.5 22q11 0 15 -3q9 -17 9 -31q0 -5 -2 -11q-4 -18 -17 -31t-31 -20t-33 -8q-4 0 -9 7l-10 13l-11.5 13t-9.5 6q-12 0 -32 -11.5 t-42.5 -29.5t-44.5 -39.5t-38 -42.5l-32 -41q-10 -13 -10 -27q0 -4 1 -9.5t1 -13.5q-1 -8 -3 -12q-7 -7 -31 -14.5t-51.5 -14t-52.5 -10.5t-34 -4q-2 0 -5.5 0.5t-3.5 1.5l8 13l9 31l12 37q5 18 9.5 36t7.5 33q2 15 -4.5 30t-13.5 19q-1 0 1 3t5 6l6 6z" />
<glyph unicode="s" horiz-adv-x="383" d="M292 271q1 -3 1 -8q-2 -23 -19 -38.5t-34 -15.5q-10 0 -16 3.5t-10 8.5t-7.5 10t-8.5 9q-24 -10 -43 -17t-21 -15q0 -9 24 -16l56 -18q32 -10 63.5 -25.5t45.5 -40.5q3 -8 3 -14q0 -24 -20.5 -52t-53.5 -52t-75 -39.5t-84 -15.5q-15 0 -28.5 5.5t-25.5 14t-22 17.5 t-18 17v1q0 4 6.5 11.5t17 14.5t24.5 12.5t30 5.5q11 0 24 -5q8 -3 15 -12t13.5 -18.5t12.5 -17t12 -7.5q5 0 15.5 4t21.5 10t19.5 13t9.5 13q0 9 -12.5 19.5t-21.5 16.5q-8 5 -35 14l-56 20q-29 10 -52.5 20.5t-24.5 18.5q-2 6 -2 10q0 23 25 43.5t58.5 38t66.5 29.5l47 19 q10 4 29 10t32 6q18 0 18 -8z" />
<glyph unicode="t" horiz-adv-x="360" d="M769 721l-144 -29l-130 -26l-131 -24l-145 -24q-17 -67 -29.5 -132.5t-21.5 -128.5q-5 -31 -8.5 -67t-3.5 -76q0 -29 4.5 -56.5t15 -49t29 -34.5t47.5 -13h38q20 0 41 5.5t43.5 17.5t45.5 36l6 6q4 4 8.5 9t8.5 9t4 3q3 0 3 -2v-4q-7 -21 -29 -45t-53 -47t-67 -44 t-70.5 -37t-64.5 -25.5t-48 -9.5q-23 0 -38 11t-23.5 28t-12 38t-3.5 41q0 32 5.5 65t10.5 57q7 34 17.5 80.5t25 103t33 121t42.5 133.5q-60 -11 -103.5 -27.5t-73.5 -31.5t-46.5 -26t-20.5 -12q-9 0 -15 13q1 15 10 42t21.5 53t28 45.5t29.5 21.5l86 -2q43 -1 86 -1h26 q21 57 48 117q-15 20 -36 28.5t-40.5 11.5t-33 3t-13.5 2q18 6 41 23t45 36l41 35q18 16 26 19h4l18 -3q11 -5 20 -10q11 -6 21 -14q-34 -60 -59.5 -122.5t-45.5 -125.5q71 1 138.5 5t135 13.5t137.5 25t147 38.5q3 0 13 4l22 8l22 9q10 4 13 4q4 0 8 1q3 0 6.5 0.5t6.5 0.5 q-13 -19 -22.5 -31.5t-22 -21t-29.5 -13.5t-45 -8z" />
<glyph unicode="u" horiz-adv-x="629" d="M37 76q0 6 1.5 16.5t4.5 23t8 26t13 24.5q8 8 23 15.5t33 13.5t38 11.5t38 8.5q6 1 14 1q3 1 6.5 1t5.5 -1q6 0 7.5 -3.5t-3.5 -11.5q-10 -15 -19 -37.5t-13 -43.5q-2 -10 -2 -19.5t2 -17.5q4 -16 21 -19h6q14 0 33 8q24 10 50 27t54 39l55 44q17 14 25 18t16 4 q9 -3 11 -12t2 -20t-0.5 -24t2.5 -24q7 -35 20 -47t40 -12q28 0 50.5 6t43.5 17.5t43.5 28t49.5 38.5q4 1 8 -7q2 -2 2 -4q0 -4 -4 -6q-20 -19 -53.5 -43t-77 -45.5t-95.5 -35.5q-48 -14 -99 -14h-7q-43 2 -55 47q-5 11 -4.5 20.5t-13.5 16.5q-2 0 -17 -7l-37 -17l-49 -24 q-27 -12 -53.5 -22.5t-49.5 -17.5t-38 -7q-17 0 -25.5 9t-11.5 22q-2 10 -2 21v7q1 15 3 28z" />
<glyph unicode="v" horiz-adv-x="531" d="M42 150q3 11 19 27t37.5 30.5t45.5 24.5t43 10q13 0 13 -11q0 -6 -3 -16.5t-6 -24t-6 -28.5t-3 -30q0 -18 3 -35.5t9 -30.5t15.5 -21t23.5 -8q11 0 38 13t54.5 35t49 51.5t21.5 62.5q0 17 -10.5 28t-26 17t-34 8.5t-33.5 2.5h-12q9 9 26.5 18t38 16.5t40 12.5t32.5 5 q40 0 69 -8t29 -37q0 -20 -24.5 -50t-62.5 -62.5t-85 -65t-92 -58.5t-83 -42t-59 -16q-24 0 -37 23.5t-20 54t-8.5 60.5t-1.5 44z" />
<glyph unicode="w" horiz-adv-x="672" d="M363 -39q-40 0 -64 19t-24 54q0 10 2.5 17.5t7.5 19.5h-4l-25 -13q-15 -8 -35.5 -15.5t-47.5 -12.5t-62 -5q-9 0 -22 1t-25 6t-20.5 15t-8.5 27q0 32 12 59.5t33 47.5t50.5 31t64.5 11h17q10 0 19.5 -1.5t16 -5.5t6.5 -11q-15 -5 -24.5 -15t-15 -22t-7.5 -26t-2 -27 t4 -27t19 -14q12 0 31.5 5.5t42.5 15t47.5 22t46.5 26.5q6 0 11 -6.5t5 -9.5q0 -6 -3 -8q-6 -5 -10.5 -14t-7.5 -19t-4 -19t-1 -13q0 -24 14.5 -37.5t37.5 -13.5q9 0 23 4t28.5 12t28 20t22.5 28q15 26 22 51t7 49q0 57 -33 106.5t-83 86t-108.5 57.5t-108.5 21h-11 q-14 2 -14 3q0 5 16.5 9.5t39 7.5t46 5t38.5 2q55 0 107 -12t92.5 -40.5t64.5 -76t24 -119.5q0 -40 -14.5 -75t-37.5 -63.5t-53 -50.5t-60.5 -37t-59.5 -22.5t-51 -7.5z" />
<glyph unicode="x" horiz-adv-x="521" d="M-432 -352q-43 0 -65 15t-29 38q-3 11 -3 24t3 26q7 27 21 51.5t33 42.5t38 23q-9 -14 -9 -32q0 -4 1 -8q2 -23 15 -44.5t36 -37t54 -15.5h5q64 0 120 27q58 27 110 70.5t100 98.5l97 109q-9 20 -16 43.5t-13 46.5l-12 43q-5 21 -12 36q-1 4 16.5 13.5t39 18.5t41 14.5 t22.5 2.5q16 -14 29 -40l29 -54q13 11 28 22l33 26q22 17 46 32.5t48 25.5q17 8 31 8q5 0 10 -1q5 -2 7 -5t-7 -3q-9 -1 -21 -9t-24 -18.5t-23 -22.5l-19 -21l-37 -42l-43 -45q20 -32 45.5 -55t62.5 -23q15 0 39 8.5t51.5 21.5t55.5 28l51 27l39 22q15 8 17 7l3 -3 q0 -2 -19.5 -15.5t-53 -32.5t-77.5 -40.5t-91.5 -40t-96 -30.5t-90.5 -12q-20 0 -33.5 5.5t-24.5 16.5q-69 -63 -145.5 -124.5t-151.5 -110.5t-142.5 -78.5t-118.5 -29.5z" />
<glyph unicode="y" horiz-adv-x="586" d="M990 -223l-132 31q-71 17 -146 32t-152 26.5t-152 17.5q-31 -87 -56.5 -167.5t-52 -150t-56 -126.5t-68.5 -97.5t-90.5 -62.5t-120.5 -22q-41 0 -85.5 26t-87 67.5t-81.5 94t-68 106.5t-46 104t-17 87q0 22 20.5 40t52.5 32.5t70.5 24.5t74 17.5t64.5 12t41 6.5 q77 14 172.5 20t201.5 6h35q18 0 35 -1q6 56 9 104.5t3 84.5q0 5 -1 9.5t-2 8.5q-2 0 -9 -6l-17 -14l-17 -14q-8 -7 -12 -10q-40 -29 -87.5 -42.5t-110.5 -13.5q-24 0 -35 13t-15 31q-4 16 -4 34l0.5 14.5t0.5 23.5q0 25 10 47t42 35q13 5 30.5 9.5t35.5 8t33.5 5.5t25.5 2 q6 0 7.5 -0.5t1.5 -4.5q0 -8 -7 -24l-14 -34q-9 -19 -15.5 -39t-6.5 -37q0 -18 5.5 -29t32.5 -11q16 0 30.5 9t27.5 22t24 28l21 26q3 4 9 13.5t10 12.5q8 7 32 14t52.5 13t56 10t43.5 4q2 0 6.5 -1.5t4.5 -3.5t-6 -7.5t-9 -13.5q-37 -72 -66 -141.5t-53 -137.5 q143 -6 273.5 -21.5t245.5 -32.5q10 6 25.5 11.5t30.5 10t26.5 7.5t14.5 3q4 0 7 -5.5t5 -14t3.5 -18t1.5 -16.5q0 -6 -6.5 -14t-15.5 -15t-18.5 -12t-15.5 -5zM71 -642h3q40 0 74 22q34 23 61.5 62.5t49.5 91.5t38.5 111t28 121t18.5 121q-11 1 -22 1h-23q-22 0 -71 -0.5 t-111 -3.5t-130.5 -10t-128.5 -19.5t-105.5 -33t-62.5 -49.5q-6 -11 -6 -28q0 -13 3 -28q8 -38 31 -84t59.5 -94t82 -88t99.5 -65.5t112 -26.5z" />
<glyph unicode="z" horiz-adv-x="630" d="M77 139q-2 -2 -6 -2q-1 0 -3 2l2 4q11 18 37 39t60 39t71.5 30.5t71.5 12.5q24 0 39.5 -11.5t15.5 -32.5t-12.5 -41.5t-27.5 -38.5q-22 -27 -45.5 -53t-50.5 -48q55 18 109 18q51 0 113 -18l41 18q21 9 42 17l40 16l50 22l52 22q25 10 41 15q8 -2 8 -5t-7 -9t-26 -16 q-16 -6 -42 -17l-52 -22l-52 -22l-40 -18l-27 -12q49 -21 86.5 -54.5t63.5 -75.5t39.5 -90t13.5 -99q0 -91 -38.5 -176t-103.5 -159.5t-150 -136t-179 -105.5t-190 -68.5t-183 -24.5q-34 0 -73 5t-77 16t-73.5 27.5t-62.5 40t-43 54t-16 68.5q0 75 34.5 145t91 133t129 119 t147.5 104t147 87l128 70q36 20 73 38l74 35q-29 8 -52 11.5t-43 3.5q-25 0 -48 -3t-51 -8q-6 -1 -14 -2.5t-15.5 -2.5t-13 -1t-5.5 1l3 4q3 5 8.5 10t13 10t16.5 6q22 5 47 14.5t47 24t36.5 34t14.5 45.5q0 23 -17 31.5t-42 8.5q-41 0 -76 -8t-49 -21zM-62 -882 q70 0 145 14.5t146.5 43t135 71t112 98.5t76.5 125t28 151q0 57 -16 110.5t-46 99.5t-73.5 82.5t-97.5 57.5l-76 -36q-38 -18 -76 -38l-116 -62q-65 -36 -133 -80t-134 -94.5t-118 -105t-83.5 -112.5t-31.5 -116q0 -61 37 -101.5t91.5 -64.5t116.5 -33.5t113 -9.5z" />
<glyph unicode="{" horiz-adv-x="542" d="M254 418q0 3 5.5 12.5t14.5 20.5t19 21.5t19 15.5q19 10 32.5 16.5t27.5 15.5q13 21 22.5 46.5t17 53t13.5 55t13 53.5q16 63 43.5 133t66.5 133.5t88.5 113.5t111.5 73q5 2 11 3t11 3q6 2 12 3q0 -6 -7 -17t-17 -22t-21 -20t-19 -13q-13 -6 -22.5 -10t-17.5 -8l-18 -8 q-9 -4 -19 -11l-17 -41q-17 -42 -30 -87l-25 -90q-15 -52 -35 -107t-47 -107.5t-60.5 -98.5t-74.5 -79q17 -15 23.5 -38.5t6.5 -49.5q0 -35 -7.5 -71t-14.5 -63q-15 -57 -33 -113l-34 -109q-16 -54 -27 -106t-11 -101q0 -33 9 -64.5t33 -57.5q-1 -8 -9 -19t-18.5 -22 t-21 -20t-16.5 -12q-45 25 -61.5 66.5t-16.5 91.5q0 32 5.5 66t14 67t18 63.5t18.5 56.5q7 22 14 40l12 34l12 34l12 39q4 14 9.5 31.5t10 37t7.5 40t3 39.5q0 27 -7.5 49.5t-28.5 37.5z" />
<glyph unicode="|" horiz-adv-x="147" d="M109 35q-1 -7 -6.5 -14.5t-12.5 -14.5l-14 -14l-12 -10l-4 -4q-4 -4 -8 -7t-8 -5q-2 -1 -3.5 -1t-2.5 1v1164q3 7 12 18t19.5 22t21.5 19.5t18 9.5v-1164z" />
<glyph unicode="}" horiz-adv-x="611" d="M560 422q0 -3 -5.5 -12.5t-14.5 -20.5t-19 -21.5t-19 -15.5q-19 -10 -32.5 -16.5t-27.5 -15.5q-26 -43 -40 -100l-26 -108q-17 -63 -44 -133t-66 -133.5t-89 -113.5t-111 -73q-5 -2 -11 -3t-11 -3q-6 -2 -12 -3q0 6 7 17t17 22t21 20t19 13l22 10l18 8q9 3 17.5 7.5 t19.5 11.5l17 41q17 42 30 87l25 90q15 52 35 107t47 107.5t60.5 98.5t74.5 79q-17 15 -23.5 38.5t-6.5 49.5q0 35 7.5 71t14.5 63q15 57 33 113l34 109q16 54 27 105.5t11 101.5q0 33 -9 64.5t-33 57.5q1 8 9 19t18.5 22t21 20t16.5 12q45 -25 61.5 -66.5t16.5 -91.5 q0 -32 -5.5 -66t-14 -67t-18 -64t-18.5 -56l-14 -40l-12 -34l-12 -34l-12 -39q-4 -14 -9.5 -31.5t-10 -37t-7.5 -40t-3 -39.5q0 -27 7.5 -49.5t28.5 -37.5z" />
<glyph unicode="~" horiz-adv-x="659" d="M188 312q-12 0 -21 -13t-18 -30l-19 -35q-9 -18 -22 -27q-6 0 -15 3t-9 8q0 2 10 19t26 41l36 50l38.5 48.5t34.5 37.5t24 15q7 -1 22.5 -11t34.5 -24l42 -30l40 -28q19 -14 33 -23t19 -9q24 10 33 26t13 30.5t8 25t17 10.5q3 0 4 -3t1 -5q0 -6 -4 -18l-7 -16 q-3 -9 -18 -38l-33 -61q-18 -32 -34.5 -57t-22.5 -25q-25 0 -58 20.5t-65 46.5l-56 47q-25 22 -34 25z" />
<glyph unicode="&#xa1;" horiz-adv-x="489" d="M291 12q0 -5 -15.5 -10.5t-37.5 -10.5t-45.5 -8.5t-39.5 -3.5q-17 0 -20 3t-3 12q0 24 8.5 46t24 56t38 88.5t49.5 144.5l43 145l42 140l43 139l45 143q1 3 7.5 6.5t14 6.5t15.5 5.5t13 2.5t5 -3l-36 -142l-38 -142l-40 -161l-44 -200q-2 -7 -4.5 -26.5t-5.5 -45.5 l-6 -55l-7 -56q-3 -26 -4.5 -46t-1.5 -28zM445 984q-3 1 -1 8q1 2 1 4q0 9 -7 27q3 12 3 24q0 6 -1 11q-2 18 1.5 31.5t20.5 21.5q14 7 49 7h9q10 0 20 -14q6 -9 6 -20q0 -9 -3 -18q-3 -11 -13.5 -26t-24.5 -28t-30 -22q-13 -6 -25 -6h-5z" />
<glyph unicode="&#xa2;" horiz-adv-x="424" d="M161 265q10 19 26 35l31 30q0 1 7 8t15.5 13.5t14.5 10.5q2 1 3 1q3 0 2 -5q-20 -63 -38 -126l-34 -125l-21 -79q-10 -40 -24 -78q-14 -20 -31 -37l-33 -33q-1 -1 -6 -5.5t-10.5 -9t-10.5 -7.5q-4 -2 -6 -2q-1 0 -2 1q14 38 24 77l21 80l35 126q17 62 37 125zM6 62 q0 17 14.5 40t38 47t54 47t62 41t61.5 29t54 11q11 0 19 -7.5t8 -34.5q0 -42 -22 -68.5t-53 -26.5q6 6 6 12q0 22 -22.5 37t-48.5 15q-16 0 -31.5 -4t-28 -10.5t-20 -14.5t-7.5 -16q0 -20 16 -39.5t39 -35.5t49.5 -25.5t47.5 -9.5q55 0 104 16.5t86.5 37t61.5 37t30 16.5 q2 0 5 -4t3 -7t-8 -8.5t-18 -10.5l-22 -11l-14 -7l-68 -37q-38 -21 -82 -40t-91.5 -32t-95.5 -13q-23 0 -45.5 2.5t-40.5 11t-29.5 23.5t-11.5 39z" />
<glyph unicode="&#xa3;" horiz-adv-x="860" d="M251 598q13 0 44 2.5t71 7t84 10t83 11.5q35 78 65.5 121t53.5 43q21 0 40 -13t33.5 -32t23 -40.5t8.5 -37.5v-10q-3 -16 -17 -26.5t-36 -18t-50.5 -12.5t-59.5 -9q-2 0 -3 -0.5t-2 -0.5q-18 -32 -30.5 -82t-22.5 -108q48 0 94 1.5t94 6.5q-2 -7 -9.5 -16.5t-17.5 -19 t-20 -17.5t-16 -11q-34 -4 -67.5 -5.5t-67.5 -1.5l-3 -21q0 -1 -0.5 -2t-0.5 -2q45 0 88.5 1.5t87.5 6.5q-2 -7 -9.5 -16.5t-17.5 -19t-20 -17.5t-16 -11q-31 -3 -61.5 -4.5t-61.5 -2.5q-10 -57 -22 -106.5t-28 -89.5q64 -25 142.5 -51.5t161 -49t164.5 -37t154 -14.5 q9 0 26.5 4t39.5 11.5t46.5 18t47.5 23.5l-14 -27q-5 -11 -10 -19.5t-7 -10.5q-10 -11 -27 -25.5t-38.5 -28.5t-46.5 -23.5t-50 -9.5q-15 0 -51.5 10t-87.5 26l-111 37l-124 43l-124 43l-113 38q-11 -18 -25.5 -36t-33 -32t-40.5 -23t-47 -9h-9l-5 1q-27 0 -59 18.5t-60 44 t-46.5 50.5t-18.5 39q0 16 11.5 29.5t26 24t28.5 16.5t20 6l116 -34q57 -17 111 -35q12 34 20.5 79.5t16.5 97.5q-46 0 -92 1l-90 2q-2 1 0 4.5t5 7t6 6.5l4 4q8 10 21 24.5t27 17.5l128 -3l3 24l-168 3q-2 1 0 4.5t5 7t6 6.5l4 4q8 10 21 24.5t27 17.5l116 -3 q8 50 18.5 95.5t25.5 83.5q-35 -6 -71 -14.5t-71 -21.5t-67.5 -31t-60.5 -43q-9 -5 -24.5 -9.5t-31.5 -7.5q-18 -4 -39 -6q1 7 8.5 31.5t20.5 50.5t31.5 46.5t42.5 20.5zM319 -24q22 0 39 14t31 39q-45 16 -82.5 27.5t-66.5 18.5q3 -11 11 -27.5t18.5 -32.5t22.5 -27t23 -12 h4zM666 695l-20 -20q-11 -12 -24 -29q21 4 35 8t18 8v7q0 3 -3 12t-6 14z" />
<glyph unicode="&#xa4;" horiz-adv-x="1304" d="M98 366q-6 6 2.5 16.5t25 22.5t38.5 24.5t44 23t41 17.5t30 9q3 -8 8 -13q35 40 86 76t111 67t126.5 56t132.5 42.5t128 27t115 9.5q37 0 68 -6t44 -25l4 6v-91h-54v4q0 50 -35 68.5t-91 18.5q-47 -2 -105.5 -13t-119 -29.5t-119.5 -43t-107 -54t-81.5 -63t-43.5 -68.5 l-3 -12q34 -9 81 -12q29 -1 60 -1q19 0 39 1q53 1 110 5.5t111.5 8l103.5 6.5q26 1 50 1q19 0 36 -1q-31 -6 -50.5 -15.5t-37 -19t-37.5 -16t-53 -6.5q-79 -10 -142.5 -16.5t-114.5 -10t-91.5 -4.5t-74.5 -1q2 -49 19 -90q36 -4 78 -4q24 0 51 1q72 4 145 9l142 10 q43 3 79 3q21 0 39 -1q-31 -6 -50.5 -15.5t-37 -19t-37.5 -16t-53 -6.5q-103 -13 -178.5 -20t-133.5 -10q69 -79 210 -124q127 -40 310 -40q21 0 42 1q9 0 29 1.5t40.5 4t36.5 5.5t17 7q1 2 0 6t0 6q0 1 18.5 0t42 -2.5t44 -3t23.5 -1.5q5 0 11 -1q5 -1 5 -4.5t-9 -8.5 q-8 -5 -40 -13q-49 -14 -108 -21t-125 -8h-34q-93 0 -183 9q-107 11 -197 35t-159.5 61.5t-107.5 88.5q-29 1 -55 2l-51 4l-51 2q-26 2 -55 3q-2 3 -2 6q0 4 4 9q7 10 21.5 21t35 23t41.5 22.5t40.5 18.5t32.5 11q0 20 6 43l-63 4q-32 2 -68 3z" />
<glyph unicode="&#xa5;" horiz-adv-x="565" d="M289 24q-5 -7 -15 -9.5t-20 -2.5q-11 0 -18 2t-7 8q0 1 0.5 1.5t0.5 1.5q5 50 13 86.5t18 76.5h-53q-19 0 -37.5 0.5t-33 2t-23.5 5t-9 10.5q0 13 17.5 18.5t43.5 7.5q20 2 43 2q6 0 12 -0.5t12 -0.5q23 0 42 2q1 14 5.5 32t6.5 39l6 25l-89 1q-23 2 -35.5 7.5 t-12.5 11.5q0 8 17 16.5t47 10.5h69q0 106 -8.5 211t-13.5 210q5 14 36 14q8 0 16 -2.5t9 -9.5q25 -91 37.5 -184.5t26.5 -185.5l123 151l103 126l28 34q16 20 33.5 39t35 32t32.5 13q11 0 19 -2.5t8 -7.5q0 -6 -3 -6q-69 -111 -146 -217l-162 -215h59q31 0 44.5 -7 t13.5 -14q0 -11 -13 -16t-34.5 -6.5t-49 -1.5t-55.5 -1q-1 -3 -9 -12t-9 -13l-30 -71h55q27 0 47 -2.5t32.5 -7.5t12.5 -15q0 -8 -9 -13t-24 -7t-34.5 -2.5t-41.5 -0.5h-56z" />
<glyph unicode="&#xa6;" horiz-adv-x="216" d="M113 341q2 12 10.5 17.5t21.5 5.5q9 0 18.5 -4.5t11.5 -15.5l-2 -31q-5 -69 -16 -138.5t-34 -138.5q-2 -5 -8 -7t-11 -2q-8 0 -14.5 4t-7.5 14q14 69 19.5 134.5t9.5 132.5q0 7 1.5 15.5t0.5 13.5zM166 742q5 7 14 10.5t17 3.5q24 0 31 -22q-20 -73 -33.5 -144 t-22.5 -140q-4 -13 -19 -13q-6 0 -12 3.5t-9 10.5v24q0 54 7 109q9 66 21 132q1 5 2.5 10.5t1.5 10.5z" />
<glyph unicode="&#xa7;" horiz-adv-x="505" d="M464 723q-2 -5 -8 -12t-13 -14q-8 -8 -18 -16q-5 57 -24.5 84t-39.5 27t-34.5 -19.5t-14.5 -58.5q0 -26 7.5 -56t21.5 -56q5 -10 11 -18l11 -18q18 -30 33.5 -62.5t15.5 -72.5q0 -26 -9.5 -51t-25 -45.5t-35 -35.5t-40.5 -21q27 -51 27 -110q0 -32 -9 -57 q-5 -13 -16.5 -29.5t-26 -30.5t-31.5 -24t-32 -10q-24 0 -44 10t-35 26.5t-24 39t-10 46.5q0 9 2 19t7 20t15 19.5t26 15.5q-7 -27 -7 -39q0 -20 8.5 -38t22 -31.5t30.5 -22t34 -8.5t25.5 14t8.5 35q0 19 -6.5 38t-17.5 36l-10 16l-25 45q-12 22 -20.5 44t-13.5 46.5 t-5 54.5q0 28 4.5 57.5t15 55.5t27.5 45.5t42 27.5q-12 36 -12 91q0 14 1 27t4 26q4 20 15.5 41.5t27.5 39.5t34.5 29.5t37.5 11.5q15 0 29.5 -8t27.5 -24t22 -40t13 -55v-5zM243 406q2 -33 20 -53.5t50 -20.5q17 0 28 9t11 31q0 12 -6.5 40t-17 56.5t-24 50.5t-28.5 22 q-8 0 -14.5 -10.5t-11 -27.5t-6.5 -37.5t-2 -40.5q0 -5 0.5 -9.5t0.5 -9.5z" />
<glyph unicode="&#xa8;" horiz-adv-x="171" d="M58 642q29 -1 36 -8q3 -4 3 -14q0 -8 -3 -21q-2 -6 -6 -20.5t-13.5 -28t-25.5 -22.5q-12 -7 -30 -7q-6 0 -12 1q-20 2 -29 7t-12 13q-2 4 -2 9q0 3 1 7q2 8 4 18q1 6 8 14l13 16q7 8 12 14.5t2 8.5q10 6 23.5 10t30.5 3zM320 645h8q3 0 5 -2q1 -2 4 -5.5t5 -8t2 -10 t-4 -9.5q-5 -9 -4 -11.5t-1 -12.5q-2 -7 -6 -17.5t-14 -20.5t-26 -17.5t-41 -7.5q-20 0 -31 14q-6 8 -6 18q0 8 3 16q1 12 9.5 24t22.5 22.5t32.5 18t41.5 9.5z" />
<glyph unicode="&#xa9;" horiz-adv-x="827" d="M121 615q5 63 14 121.5t31 118.5q10 28 29 65.5t46 78.5t61 80.5t74 70.5t85.5 50.5t95.5 19.5q37 0 73 -14.5t70 -46.5q36 -35 60.5 -79t39 -93t21 -101t6.5 -101q0 -128 -17.5 -231t-60.5 -194q10 3 18.5 7.5t16.5 9.5q0 -3 -4.5 -8t-10.5 -11t-12.5 -11.5t-10.5 -8.5 l-11 -7q-65 -135 -148.5 -207.5t-195.5 -72.5q-67 0 -124.5 42.5t-95.5 122.5q-32 64 -44 136t-12 142q0 30 2 60zM477 1139q-57 0 -103 -27t-81 -71t-59.5 -100t-40 -114.5t-23 -114t-7.5 -97.5q0 -40 7 -91t22 -104.5t39 -105t58.5 -91.5t79.5 -64.5t102 -24.5q38 0 68 10 t54 29t44 46t40 62l13 27q-54 -22 -112 -31.5t-111 -9.5q-79 0 -132.5 17t-86.5 45.5t-47 67t-14 81.5q0 42 11 85.5t29 85t40.5 79t46.5 66.5q19 24 43.5 51t51.5 52.5t56 46.5t59 34q17 8 38.5 16t42.5 8q18 0 33 -9t24 -20l14 9q0 -1 -4 -5.5t-6 -7.5q9 -15 9 -32 q0 -21 -12 -43t-29 -40q-2 -2 -8 -7l-10 -11q-6 -5 -10 -9.5t-4 -5.5l-5 -4l-13 -13q-8 -8 -18 -15.5t-21 -13.5t-20 -6q-7 0 -14.5 6t-7.5 20q0 15 10.5 30.5t18.5 25.5l20 24l22 23q-23 26 -56 26q-22 0 -46.5 -10t-47 -24t-41 -30.5t-30.5 -29.5q-43 -54 -66.5 -122 t-23.5 -134q0 -44 14.5 -83.5t50.5 -71.5q20 -17 40.5 -32t45.5 -24q42 -16 87.5 -20t90.5 -4q26 0 56.5 1.5t60.5 7.5q31 78 50.5 159.5t19.5 166.5q0 52 -9 106q-9 56 -32 119t-59.5 116.5t-87 88.5t-114.5 35zM592 845q0 26 -12 44q-5 -12 -5 -22q0 -5 3 -14t14 -9v1z " />
<glyph unicode="&#xaa;" horiz-adv-x="672" d="M741 872q14 4 14 -1.5t-8 -12.5q-29 -23 -61 -37.5t-73 -14.5q-19 0 -33 10.5t-24.5 25.5t-18 31t-13.5 26q-12 -6 -30.5 -14.5t-41 -16.5t-46 -14t-45.5 -6q-27 0 -46.5 13t-19.5 45q0 8 8 26t22 31q20 19 49.5 32t61.5 22t61.5 14t49.5 8q1 0 2 0.5t2 0.5q7 0 15 -3.5 t8 -5.5q0 -6 2 -13t2 -14q0 -9 -6.5 -16.5t-28.5 -13.5q-13 14 -28.5 25t-37.5 11q-31 0 -51 -16.5t-20 -39.5q0 -12 2 -23t8 -20t16 -14.5t26 -5.5q8 0 14 0.5t12.5 2.5t15 6t21.5 12q2 9 11.5 20.5t23 22t28 19.5t26.5 14h7q7 0 7 -6q0 -2 -2.5 -8t-8.5 -13 q4 -14 11.5 -33t17.5 -36t22 -28.5t24 -11.5q14 0 27 5.5t26 14.5z" />
<glyph unicode="&#xab;" horiz-adv-x="324" d="M221 332q5 2 11.5 3t13.5 1h6q4 0 4 -4q-12 -20 -29 -38.5t-35 -34.5t-35 -29l-30 -24q0 -49 9.5 -99.5t20.5 -101.5q-2 -2 -9 -2.5t-14 -0.5q-23 0 -32 5l-18 39q-10 21 -19 45t-15.5 49.5t-8.5 50.5q0 3 8.5 10.5t18.5 15.5l22 15q10 8 15 11q31 20 60.5 41.5 t55.5 47.5zM318 332q5 2 11.5 3t13.5 1h6q4 0 4 -4q-12 -20 -29 -38.5t-35 -34.5t-35 -29l-30 -24q0 -49 9.5 -99.5t20.5 -101.5q-2 -2 -9 -2.5t-14 -0.5q-23 0 -32 5l-18 39q-10 21 -19 45t-15.5 49.5t-8.5 50.5q0 3 8.5 10.5t19.5 15.5l20 15q11 8 16 11q31 20 60.5 41.5 t55.5 47.5z" />
<glyph unicode="&#xac;" horiz-adv-x="818" d="M54 375q-2 2 4.5 10.5t16.5 18.5t20 19t15 12q211 65 435 70q12 0 35 1h10q19 0 40 -2q25 -2 47.5 -7t32.5 -15q7 -6 11 -18t5.5 -25t2 -25.5t0.5 -20.5q2 -32 2 -65q0 -36 -3 -72q-4 -69 -10 -138q-2 -8 -11 -18.5t-19.5 -20t-19.5 -15.5q-8 -5 -10 -5l-8 71 q-4 44 -10.5 90.5t-16.5 87.5t-23 64q-40 13 -83.5 14t-85.5 3q-72 4 -145 4q-22 0 -44 -1q-94 -1 -188 -17z" />
<glyph unicode="&#xad;" horiz-adv-x="553" d="M113 150q-2 3 -2 8q0 10 9 24q11 22 27.5 44t34 39.5t25.5 20.5q6 -33 26.5 -47.5t50.5 -18.5q14 -2 29 -2q18 0 37 2q35 5 71 11.5t69 10.5q20 3 36 3q11 0 21 -1q-16 -7 -26 -18.5t-19 -23t-19.5 -19.5t-27.5 -8q-82 -24 -133 -31q-46 -7 -79 -7h-8q-35 1 -62 6t-60 7z " />
<glyph unicode="&#xae;" horiz-adv-x="994" d="M158 613q6 65 17.5 128t35.5 123.5t63.5 118.5t100.5 113q27 25 55.5 47.5t58 40t60.5 28t63 10.5q36 0 73 -15.5t76 -50.5q38 -35 63.5 -80t41 -95.5t22 -103t6.5 -102.5q0 -47 -3 -101t-12 -109.5t-25 -110t-41 -100.5h2q2 0 12 4l3 7q7 11 19 24t23 18 q-3 -12 -11.5 -25.5t-20 -27.5t-26 -26.5t-29.5 -22.5l-13 -21q-21 -35 -59 -76t-83.5 -76.5t-95 -59.5t-93.5 -24t-80 15.5t-64.5 39.5t-50 53.5t-35.5 57.5q-33 63 -46 136.5t-13 143.5q0 29 2 59zM467 538q7 11 19 24t23 18q10 -16 23 -32l4 2l32 12q13 4 24 10l24 11 q12 6 29 16q16 9 33 22.5t30.5 31t22 40t8.5 49.5q0 32 -14 54t-36 36.5t-49 22t-53 10.5l-25 -50l-73 -149q-36 -74 -67 -150l-18 -46q-10 -25 -10 -49q0 -12 3 -21l3 -4q-5 -11 -18 -23t-24 -19q-12 7 -12 32q0 15 3.5 32.5t8 34t9.5 30t7 19.5q28 79 66.5 153t80.5 146 q2 4 15 23l27 43q-14 1 -28 1.5t-28 0.5q-45 0 -85 -5.5t-70 -22t-48 -47t-18 -81.5q0 -17 6 -34t16.5 -31t25 -22.5t30.5 -8.5q20 0 38 14q0 -1 -6 -8t-7 -8q-20 -20 -38.5 -31t-40.5 -11q-35 0 -59 25.5t-24 73.5q0 64 35.5 116t90.5 89t122 57t130 20q8 0 15.5 8.5 t12.5 10.5h1q1 -2 1 -7t-2 -13q37 -3 70.5 -12.5t58 -26t39 -41t14.5 -58.5q0 -29 -21 -68.5t-53.5 -78.5t-71 -72t-74.5 -49l-45 -21q23 -26 51.5 -53t59 -50t61 -40.5t57.5 -24.5q30 70 47.5 153t17.5 170q0 57 -8.5 112.5t-28 107t-50 96.5t-73.5 81q-35 29 -75 43 t-82 14q-20 0 -42.5 -4t-44.5 -11.5t-41 -18t-31 -24.5q-38 -45 -69 -101t-53 -119.5t-34 -131.5t-12 -135q0 -58 9.5 -114.5t29.5 -108t51 -96.5t75 -81q34 -29 74.5 -43.5t82.5 -14.5q43 0 75.5 10.5t58.5 30.5t47.5 48.5t41.5 64.5q-3 -1 -7 -1h-5q-56 0 -99.5 22.5 t-76 58.5t-55 81.5t-35.5 90.5z" />
<glyph unicode="&#xaf;" horiz-adv-x="295" d="M37 476q-11 2 -17 8t-6 12.5t6 12t17 7.5q27 -1 53 -3l54 -4q26 -2 52.5 -2t52.5 4h9q5 -1 5 -5t-4 -10q-3 -6 -8 -11t-9 -6q-27 -6 -52 -7h-17q-16 0 -33 1q-24 1 -50 3h-31h-22z" />
<glyph unicode="&#xb0;" horiz-adv-x="427" d="M457 542q-14 -31 -34.5 -58t-44.5 -47.5t-49.5 -32t-49.5 -11.5q-29 0 -45.5 19t-16.5 51q0 14 3.5 27t8.5 30q11 34 31 64.5t44.5 53t52 36t52.5 13.5q32 0 49 -20.5t17 -52.5q0 -17 -4.5 -33.5t-13.5 -38.5zM336 466q10 0 21 7t20 18.5t14.5 26.5t5.5 31 q0 27 -11.5 44.5t-31.5 17.5q-29 0 -47 -25t-18 -59q0 -29 13 -45t34 -16z" />
<glyph unicode="&#xb1;" horiz-adv-x="650" d="M81 37q-2 4 -2 9q0 8 6 20q9 18 23 35.5t29 31.5t23 17q13 -17 38 -24t56 -8q10 -1 20 -1q23 0 48 3l70 6q35 4 67 6q13 1 24 1q18 0 32 -2q-3 -5 -4 -14.5t-4 -19.5t-9.5 -18.5t-20.5 -11.5q-82 -18 -141.5 -24t-105.5 -7h-17q-35 0 -63 2q-15 1 -28 1q-21 0 -41 -2z M163 325q-1 4 -1 8q0 11 8 27q12 22 30.5 45.5t37.5 42t28 22.5q5 -29 21.5 -45t41.5 -22l22 85q11 42 25 85q9 4 29 7t42 4h6q19 0 35 -3q19 -3 27 -10l-41 -84q-20 -42 -38 -85q27 3 55.5 8t54.5 9t50 6q12 1 22.5 1t19.5 -1q-18 -8 -29 -20.5t-20.5 -24.5t-21 -20.5 t-30.5 -8.5q-38 -11 -69.5 -18t-57.5 -12l-22 -75q-11 -38 -28 -68q-3 -3 -14 -4q-9 -2 -18 -2h-6q-13 1 -22.5 2.5t-9.5 4.5q0 33 4.5 66t11.5 65q-21 0 -39 2l-35 4l-33 6q-17 2 -36 3z" />
<glyph unicode="&#xb2;" horiz-adv-x="820" d="M398 623q-19 14 -32 22q-24 -14 -46.5 -24t-35.5 -10q-11 0 -17 5.5t-6 19.5t9 28.5t24 26t33.5 19t37.5 7.5q15 0 26.5 -5t22.5 -13l134 81q70 44 128 90.5t96 93.5t38 92q0 13 -8.5 23.5t-22 18t-30.5 11.5t-35 4h-9q-46 -3 -77 -10t-52.5 -16t-36 -20t-27.5 -22 q0 -3 4 -8t10 -11t13.5 -11.5t15.5 -9.5q-24 -11 -41.5 -15t-30.5 -4q-14 0 -21.5 3t-12.5 7t-8 11q19 30 57.5 58t85 50t96.5 35.5t92 13.5q47 0 77 -19t30 -66q0 -36 -24 -73.5t-63 -74.5t-88.5 -72.5t-99 -67.5l-94.5 -59l-78 -46l8 -6l96 -72q50 -37 100 -68.5t99 -51.5 t95 -20q41 0 76.5 13.5t66.5 43.5q-2 0 -2 3t3.5 8t7.5 10l9 10q4 5 4 8t-2 3q5 0 12 -4.5t7 -9.5q0 -10 -16 -26q-48 -48 -97 -72.5t-106 -24.5q-49 0 -99 16.5t-100 44t-100 61.5zM301 669q-14 0 -20 -7t-6 -14q0 -11 11 -11t28 7t29 14q-25 11 -42 11z" />
<glyph unicode="&#xb3;" horiz-adv-x="820" d="M892 803q0 -70 -34.5 -117.5t-89 -77t-123 -42t-136.5 -12.5q-39 0 -88 6.5t-92.5 19.5t-73.5 32t-30 44q0 19 22 43t70 49q1 1 2.5 0.5t-0.5 -1.5q-17 -14 -17 -35q0 -22 19 -47t49.5 -46t69.5 -35t80 -14q58 0 113.5 11t99 32.5t70 53t26.5 72.5q0 44 -19 78t-50 57 t-70.5 34.5t-80.5 11.5q-47 0 -83 -13.5t-76 -26.5q-3 0 -7 1t-4 9q0 7 5 11.5t12.5 6.5t15 3t12.5 3q40 13 90.5 34t95 46.5t75 52.5t30.5 51q0 16 -10.5 22.5t-42.5 14.5q-16 4 -38 4q-3 0 -6 -1q-25 0 -51.5 -5t-50 -14t-37.5 -21q-15 -14 -15 -30q0 -14 18 -31h-14 q-46 0 -58 11q-5 5 -5 10q0 11 18 24q21 16 53.5 35t70.5 35t79 27t80 11q40 0 66.5 -12t26.5 -40t-21.5 -52.5t-57 -47.5t-80.5 -46l-94 -49q18 2 46 2t59.5 -4t64 -13t58 -25.5t42 -40.5t16.5 -59z" />
<glyph unicode="&#xb4;" horiz-adv-x="122" d="M269 612q-2 0 -3 0.5t-3 0.5q-14 0 -35 -11t-43.5 -28t-42.5 -36q-13 -13 -21.5 -22.5t-11 -12.5l-2.5 -3q-1 0 -10 8l-22 20l-22 21q-10 10 -10 12q7 14 24.5 39.5t38.5 50.5t42 43.5t33 19.5q12 -2 28.5 -16.5t31 -31.5t25 -32.5t10.5 -19.5q0 -2 -2 -2h-5z" />
<glyph unicode="&#xb5;" horiz-adv-x="461" d="M550 513q0 -8 -11 -20.5t-23 -23.5l-11 -10l-6 -22q-7 -26 -11.5 -52t-8.5 -52q-11 -83 -28.5 -164.5t-24.5 -165.5q-2 -8 -10.5 -18.5t-19 -19.5t-19.5 -15t-11 -6q-10 34 -14.5 69.5t-4.5 71.5q0 5 0.5 10.5t0.5 10.5q-25 -32 -51.5 -61t-53 -51t-51.5 -35t-46 -13 q-2 0 -3 0.5t-3 0.5q-34 -75 -80.5 -139t-112.5 -109q-8 -6 -10 -6t-2 3q0 7 11.5 22.5t39.5 29.5l4 2q21 32 36.5 69.5t27.5 77.5t21.5 80t19.5 77l20 77q2 7 3.5 13t3.5 12l18 73q3 13 10.5 37t14.5 51.5t12.5 56t5.5 51.5q0 18 -5 31q-2 0 -2 3q0 2 10.5 16.5t23.5 27.5 l4 3q4 4 10 8.5t11 4.5q11 -6 14.5 -20t3.5 -28q0 -77 -11.5 -154.5t-30.5 -152.5v-23q0 -20 6 -39.5t21 -33.5l8 -4q9 0 16.5 1t16.5 3q28 51 49 105l44 108q21 51 44 99.5t62 88.5q14 15 31.5 28.5t40.5 15.5z" />
<glyph unicode="&#x3bc;" horiz-adv-x="461" d="M550 513q0 -8 -11 -20.5t-23 -23.5l-11 -10l-6 -22q-7 -26 -11.5 -52t-8.5 -52q-11 -83 -28.5 -164.5t-24.5 -165.5q-2 -8 -10.5 -18.5t-19 -19.5t-19.5 -15t-11 -6q-10 34 -14.5 69.5t-4.5 71.5q0 5 0.5 10.5t0.5 10.5q-25 -32 -51.5 -61t-53 -51t-51.5 -35t-46 -13 q-2 0 -3 0.5t-3 0.5q-34 -75 -80.5 -139t-112.5 -109q-8 -6 -10 -6t-2 3q0 7 11.5 22.5t39.5 29.5l4 2q21 32 36.5 69.5t27.5 77.5t21.5 80t19.5 77l20 77q2 7 3.5 13t3.5 12l18 73q3 13 10.5 37t14.5 51.5t12.5 56t5.5 51.5q0 18 -5 31q-2 0 -2 3q0 2 10.5 16.5t23.5 27.5 l4 3q4 4 10 8.5t11 4.5q11 -6 14.5 -20t3.5 -28q0 -77 -11.5 -154.5t-30.5 -152.5v-23q0 -20 6 -39.5t21 -33.5l8 -4q9 0 16.5 1t16.5 3q28 51 49 105l44 108q21 51 44 99.5t62 88.5q14 15 31.5 28.5t40.5 15.5z" />
<glyph unicode="&#xb6;" horiz-adv-x="653" d="M763 1026q-5 -11 -18 -22.5t-23 -17.5l-112 -5q-28 -81 -52 -163l-51 -166q5 0 10 0.5t10 0.5q26 0 46 -9q-4 -11 -17 -22.5t-23 -18.5q-9 3 -19 3.5t-20 0.5l-13 -39l-79 -238q-39 -118 -65 -242q5 -19 6 -35q-2 -5 -9 -11l-13 -14l-18 -16q-5 14 -6.5 29t-1.5 32 q0 34 6.5 71.5t16 74t20.5 70.5l18 61l38 124q19 61 41 123q-12 0 -24 -2.5t-25 -3.5l-53 -169l-47 -149l-39 -137t-33 -132q4 -15 6 -34q-2 -5 -8 -11t-14 -13q-9 -8 -19 -16q-6 21 -6 51q0 36 7.5 79t18 85t22 80t18.5 64q20 75 43 149t49 149q-48 0 -89.5 9t-77.5 39 q-12 10 -20.5 24t-13 29t-6.5 30t-2 28q0 16 2.5 31.5t8.5 32.5q10 27 34 57t53.5 56t61 46t57.5 28l35 11q15 4 28 7l28 6q15 3 36 6q13 2 30 3l36 2q18 1 36 1h30q42 0 82.5 -2.5t82.5 -4.5zM354 653l57 160l60 159q-38 -7 -85.5 -14.5t-89 -23t-70 -44t-28.5 -76.5 q0 -40 12.5 -68t34 -47t49.5 -30t60 -16zM500 975l-48 -163l-48 -164q12 -1 24 -1h24l64 168l67 165l-41 -2q-21 -1 -42 -3z" />
<glyph unicode="&#xb7;" horiz-adv-x="79" d="M140 284q1 -1 0 -7.5t-2 -14t0.5 -13t9.5 -4.5q-3 -12 -10 -22t-5 -20q-2 -6 -1 -15.5t-4 -18t-20 -14.5q-14 -5 -42 -5h-10t-11 4t-10.5 11t-6.5 17v5q0 7 3 15q4 11 15.5 26t27 28t32.5 22q15 6 28 6h6z" />
<glyph unicode="&#xb8;" horiz-adv-x="28" d="M69 24q-3 -9 -3 -10q-2 -6 -2.5 -11t2.5 -5q29 0 44 -18q10 -11 10 -26q0 -7 -3 -16q-4 -12 -20.5 -25t-39.5 -24t-48 -18.5t-45 -7.5q-30 0 -27 5q0 2 6 4l14 3q38 0 58 13t28 42q2 6 -1 13.5t-23 10.5q-12 0 -21.5 -2t-14.5 -4q0 4 1 7l8 21q4 13 7 25q2 8 3.5 15.5 t1.5 12.5z" />
<glyph unicode="&#xb9;" horiz-adv-x="641" d="M467 658q27 42 50 89t41 94.5t32 93t23 83t14 65t5 39.5q-7 -4 -24.5 -25t-37.5 -49l-39 -55q-19 -28 -29 -46l-11 3l-6 4q-12 5 -13 14t-3 18l-4 12q-2 7 -2 15q0 14 8 33q30 14 61.5 34t58 39.5t45 35t21.5 21.5h9q28 0 51.5 -8.5t23.5 -24.5v-6q0 -4 -2 -7l-29 -58 l-39 -84l-45 -99l-47 -107l-43.5 -108.5t-34.5 -99.5q-2 -7 -0.5 -12.5t4.5 -9.5l5 -6q3 -3 3 -6q0 -9 -10.5 -15.5t-25 -11.5t-30.5 -8l-27 -5l-16 -3q-9 -2 -18.5 -4.5t-16.5 -5.5q-16 3 -16 17v7q0 2 1 3z" />
<glyph unicode="&#xba;" horiz-adv-x="612" d="M778 892q9 2 9 -3q0 -6 -10 -11q-40 -8 -99 -8h-12q-9 0 -21 2q-24 -15 -51.5 -25t-54 -16.5t-49.5 -9.5t-36 -3q-8 0 -19.5 -1t-25.5 -1q-17 0 -36 2t-37 7.5t-33.5 16t-24.5 27.5q-7 10 -7 21q0 21 21.5 38.5t53.5 31.5t69 23.5t69 14.5q3 20 14.5 35.5t28 26.5 t35.5 16.5t36 5.5q21 0 41 -9t36 -24.5t25.5 -37t9.5 -45.5q0 -22 -9.5 -40t-25.5 -32q16 -6 37 -6q17 0 33.5 1t32.5 3zM530 838q20 0 42.5 11t40.5 28q-21 4 -43 11.5t-40.5 20t-31.5 30.5t-14 44q-25 -5 -48 -16t-23 -34q0 -19 10.5 -36.5t27.5 -30.5t37.5 -20.5 t41.5 -7.5zM563 1045q6 -37 25.5 -74t51.5 -60q4 8 6.5 16.5t2.5 16.5q0 24 -10 45.5t-23 38t-26 26.5t-19 10q-10 0 -10 -9q0 -4 2 -10z" />
<glyph unicode="&#xbb;" horiz-adv-x="326" d="M56 3q-5 -2 -11.5 -3t-13.5 -1h-6q-4 0 -4 4q12 20 29 38.5t35 34.5l35 30l30 23q0 49 -9.5 99.5t-20.5 101.5q2 2 9 2.5t14 0.5q23 0 32 -5l17 -38q10 -22 19 -46t16 -49.5t9 -50.5q0 -3 -8.5 -10.5t-19.5 -15.5l-20 -16l-16 -10q-31 -20 -60.5 -41.5t-55.5 -47.5z M159 3q-5 -2 -11.5 -3t-13.5 -1h-6q-4 0 -4 4q12 20 29 38.5t35 34.5l35 30l30 23q0 49 -9.5 99.5t-20.5 101.5q2 2 9 2.5t14 0.5q23 0 32 -5l18 -38l18 -46t16 -49.5t9 -50.5q0 -3 -8.5 -10.5t-18.5 -15.5l-22 -16q-10 -7 -15 -10q-31 -20 -60.5 -41.5t-55.5 -47.5z" />
<glyph unicode="&#xbc;" horiz-adv-x="1125" d="M259 707q27 42 50 89t41 94.5t32 93t23 83t14 65t5 39.5q-7 -4 -24.5 -25t-37.5 -48l-39 -56q-19 -28 -29 -46l-11 3l-6 4q-12 5 -13 14t-3 18l-4 13q-2 6 -2 14q0 14 8 33q30 14 61.5 34t58 39.5t45 35t21.5 21.5h9q28 0 51.5 -8.5t23.5 -24.5v-6q0 -4 -2 -7l-29 -59 l-39 -82l-45 -100l-47 -108q-23 -54 -43.5 -107.5t-34.5 -99.5q-2 -7 -0.5 -12.5t4.5 -8.5l5 -7q3 -3 3 -6q0 -9 -10.5 -15.5t-25 -11.5t-30.5 -8l-27 -5l-16 -3q-9 -2 -18.5 -4.5t-16.5 -5.5q-16 3 -16 17v7q0 2 1 3zM788 388h33q16 0 32 -2h1l41 92q19 40 37 87l-64 -45 l-72 -50l-74 -47q-36 -23 -69 -40q32 2 66 3.5t69 1.5zM734 88q14 52 40 115.5t57 132.5q-39 7 -60 8.5t-44 1.5q-64 0 -126.5 -13t-129.5 -30l-25 -7q2 11 5.5 18.5t11 13.5t19.5 12l32 14l112 61q85 45 172 96t162 117q3 11 11.5 24t20 24t23.5 18.5t23 7.5q23 0 27 -11 t5 -27q-40 -79 -83 -146t-82 -137q29 -4 65 -11.5t67.5 -21.5t53 -35.5t21.5 -51.5q0 -14 -6 -27.5t-16 -24t-22.5 -16.5t-24.5 -6q-10 0 -19 11q6 5 10.5 12.5t4.5 14.5q0 19 -14.5 35t-38 29t-52.5 22.5t-58 15.5q-32 -65 -52.5 -128.5t-20.5 -126.5q0 -50 13 -98 q-1 -6 -14 -14.5t-29 -16t-31 -12.5t-21 -5t-9.5 5.5t-5.5 13.5q0 36 8.5 71.5t19.5 71.5zM813 1161q3 4 15 15l24 24q12 12 24 21.5t17 9.5q3 0 3 -4q-51 -112 -114 -217l-128 -212l-228 -370q-114 -184 -217 -375q-3 -5 -14 -17t-25 -25t-26.5 -22.5t-18.5 -9.5q-2 0 -2 1 q74 183 171 354t206 340l160 240q81 120 153 247z" />
<glyph unicode="&#xbd;" horiz-adv-x="1097" d="M265 683q27 42 50 89t41 94.5t32 93t23 83t14 65t5 39.5q-7 -4 -24.5 -25t-37.5 -48l-39 -56q-19 -28 -29 -46l-11 3l-6 4q-12 5 -13 14t-3 18l-4 13q-2 6 -2 14q0 14 8 33q30 14 61.5 34t58 39.5t45 35t21.5 21.5h9q28 0 51.5 -8.5t23.5 -24.5v-6q0 -4 -2 -7l-29 -59 l-39 -82l-45 -100l-47 -108q-23 -54 -43.5 -107.5t-34.5 -99.5q-2 -7 -0.5 -12.5t4.5 -8.5l5 -7q3 -3 3 -6q0 -9 -10.5 -15.5t-25 -11.5t-30.5 -8l-27 -5l-16 -3q-9 -2 -18.5 -4.5t-16.5 -5.5q-16 3 -16 17v7q0 2 1 3zM491 131q-19 14 -32 22q-24 -14 -46.5 -24t-35.5 -10 q-11 0 -17 5.5t-6 19.5t9 28.5t24 26t33.5 19t37.5 7.5q15 0 26.5 -5t22.5 -13l134 81q70 44 128 90.5t96 93.5t38 92q0 13 -8.5 23.5t-22 18t-30.5 11.5t-35 4h-9q-46 -3 -77 -10t-52.5 -16t-36 -20t-27.5 -22q0 -3 4 -8t10 -11t13.5 -11.5t15.5 -9.5q-24 -11 -41.5 -15 t-30.5 -4q-14 0 -21.5 3t-12.5 7t-8 11q19 30 57.5 58t85 50t96.5 35.5t92 13.5q47 0 77 -19t30 -66q0 -36 -24 -73.5t-63 -74.5t-88.5 -72.5t-99 -67.5l-95.5 -59l-77 -46l8 -6l96 -72q50 -37 100 -68.5t99 -51.5t95 -20q41 0 76.5 13.5t66.5 43.5q-2 0 -2 3t3.5 8t8.5 10 l8 10q4 5 4 8t-2 3q5 0 12 -4.5t7 -9.5q0 -10 -16 -26q-48 -48 -97 -72.5t-106 -24.5q-49 0 -99 16.5t-100 44t-99 61.5zM394 177q-14 0 -20 -7t-6 -14q0 -11 11 -11t28 7t29 14q-25 11 -42 11zM777 1147q3 4 15 15l24 24q12 12 24 21.5t17 9.5q3 0 3 -4q-51 -112 -114 -217 l-128 -212l-228 -370q-114 -184 -217 -375q-3 -5 -14 -17t-25 -25t-26.5 -22.5t-18.5 -9.5q-2 0 -2 1q74 183 171 354t206 340l160 240q81 120 153 247z" />
<glyph unicode="&#xbe;" horiz-adv-x="1055" d="M981 390h33q16 0 32 -2h1l41 92q19 40 37 87l-64 -45l-72 -50l-73 -47q-37 -23 -70 -40q32 2 66 3.5t69 1.5zM927 90q14 52 40 115.5t57 132.5q-39 7 -60 8.5t-44 1.5q-64 0 -126.5 -13t-129.5 -30l-25 -7q2 11 5.5 18.5t11 13.5t19.5 12l32 14l112 61q85 45 172 96 t162 117q3 11 11.5 24t20 24t23.5 18.5t23 7.5q23 0 27 -11t5 -27q-40 -79 -83 -146t-82 -137q29 -4 65 -11.5t67.5 -21.5t53 -35.5t21.5 -51.5q0 -14 -6 -27.5t-16 -24t-22.5 -16.5t-24.5 -6q-10 0 -19 11q6 5 10.5 12.5t4.5 14.5q0 19 -14.5 35t-38 29t-52.5 22.5 t-58 15.5q-32 -65 -52.5 -128.5t-20.5 -126.5q0 -50 13 -98q-1 -6 -14 -14.5t-29 -16t-31 -12.5t-21 -5t-9.5 5.5t-5.5 13.5q0 36 8.5 71.5t19.5 71.5zM713 803q0 -70 -34.5 -117.5t-89 -77t-123 -42t-136.5 -12.5q-39 0 -88 6.5t-92.5 19.5t-73.5 32t-30 44q0 19 22 43 t70 49q1 1 2.5 0.5t-0.5 -1.5q-17 -14 -17 -35q0 -22 19 -47t49.5 -46t69.5 -35t80 -14q58 0 113.5 11t99 32.5t70 53t26.5 72.5q0 44 -19 78t-50 57t-70.5 34.5t-80.5 11.5q-47 0 -83 -13.5t-76 -26.5q-3 0 -7 1t-4 9q0 7 5 11.5t12.5 6.5t15 3t12.5 3q40 13 90.5 34 t95 46.5t75 52.5t30.5 51q0 16 -10.5 22.5t-42.5 14.5q-16 4 -38 4q-3 0 -5 -1q-26 0 -52.5 -5t-50 -14t-37.5 -21q-15 -14 -15 -30q0 -14 18 -31h-14q-46 0 -59 11q-4 5 -4 10q0 11 18 24q21 16 53.5 35t70.5 35t79 27t80 11q40 0 66.5 -12t26.5 -40t-21.5 -52.5t-57 -47.5 t-81.5 -46l-93 -49q18 2 46 2t59.5 -4t64 -13t58 -25.5t42 -40.5t16.5 -59zM1019 1147q3 4 15 15l24 24q12 12 24 21.5t17 9.5q3 0 3 -4q-51 -112 -114 -217l-128 -212l-228 -370q-114 -184 -217 -375q-3 -5 -14 -17t-25 -25t-26.5 -22.5t-18.5 -9.5q-2 0 -2 1 q74 183 171 354t206 340l160 240q81 120 153 247z" />
<glyph unicode="&#xbf;" horiz-adv-x="381" d="M-635 -8q-1 7 -1.5 13t-0.5 13q0 67 59 138.5t165 144.5q179 122 300 133q15 2 25.5 13t18 27t11 36t3.5 41q4 23 37 37l94 37q0 -2 -2.5 -17t-7.5 -36l-10 -48q-5 -25 -10.5 -48t-11 -41t-8.5 -24q-2 -3 -17 -7t-36.5 -8t-45.5 -8t-43 -6q-64 -8 -127.5 -33 t-113.5 -64.5t-81.5 -93.5t-31.5 -118q0 -38 13.5 -75.5t40 -67.5t64.5 -48.5t87 -18.5q37 0 79 17.5t78 45.5t59.5 62t23.5 66q0 13 -1 26t-5.5 25t-14 24t-27.5 25q4 0 16 3.5t28 3.5q7 0 17 -2t18.5 -8t14.5 -16t6 -25q0 -21 -13 -52.5t-36 -66t-55 -69t-70 -62 t-80.5 -44.5t-87.5 -17q-39 0 -89.5 11.5t-97.5 35t-84 60t-49 86.5zM80 795q27 0 38 -6.5t11 -17.5q0 -12 -10 -27t-24.5 -28.5t-32 -22.5t-32.5 -9q-25 0 -34.5 8.5t-9.5 21.5t7.5 27.5t20.5 26.5t30 19.5t36 7.5z" />
<glyph unicode="&#xc0;" horiz-adv-x="1745" d="M516 307q59 0 120.5 -2t126.5 -5l140 178q71 90 148 177.5t161 170t179 155.5q7 6 7 17q0 9 -2.5 20t-2.5 20q0 15 13 22q1 -1 7 -1q11 0 31.5 4t45 9.5t48.5 11.5l44 12q11 -3 18 -12t7 -14q0 -13 -12 -27.5t-27 -27t-29.5 -22t-20.5 -11.5q-80 -28 -121 -100.5 t-41 -172.5q0 -74 17 -156.5t46 -166t68 -164.5t84 -151q182 7 355 24t331 45q5 1 11.5 10t10.5 10q13 5 28.5 12t32 13t32.5 10t30 4q21 0 32 -11q1 -3 6 -3q4 0 7.5 1t6.5 1q0 -12 -12.5 -17.5t-25.5 -9.5q-95 -25 -203.5 -43.5t-219 -31.5t-216.5 -20.5t-194 -11.5 q38 -58 79 -105t82 -78q17 -4 24 -16q-18 -11 -47 -21.5t-57.5 -19t-52.5 -13.5t-33 -5q-17 0 -24.5 3t-12 10t-7.5 17.5t-10 25.5q-1 2 -1 4q0 3 2.5 6.5t2.5 8.5q0 1 -1 1.5t-1 1.5q-9 17 -24 39.5t-33 45.5l-37 48l-38 44q-34 0 -103.5 0.5t-161.5 2.5t-200 5.5t-219 9.5 q-38 -68 -56 -115l-32 -80q0 -8 9 -17.5t9 -14.5q0 -25 -2.5 -42.5t-13 -28.5t-31.5 -17.5t-57 -9.5q-25 -3 -57 -11t-61 -8q-13 0 -24.5 2.5t-20.5 8.5q9 22 33 61l54 87l64 97l67 94q-109 7 -208 16t-174 21.5t-119.5 28t-44.5 35.5q0 24 23 43.5t61 34t87 25t101.5 17 t104 9.5t94.5 3zM1389 950q-62 -56 -131.5 -133.5t-140.5 -165.5l-139 -181l-126 -177q139 -12 274.5 -37t248.5 -66q-28 106 -38 203t-10 191q0 42 2.5 93t9.5 101t19 95.5t31 76.5zM773 172l-27 -44l-24 -39q97 -8 195 -12t181 -6t144.5 -2.5t85.5 -0.5h49 q-12 12 -22.5 21.5t-18.5 15.5q-100 67 -231 102t-277 50l-28 -43zM266 214q0 -21 27 -38.5t73.5 -31.5t109 -25t134.5 -19l36 48l27 36l63 82q-61 4 -122 5.5t-121 1.5q-38 0 -78.5 -4t-73.5 -11.5t-54 -18.5t-21 -25zM1343 1313h-5q-1 0 -1 1t2 4q4 7 14.5 22.5t24 31 t28 28.5t26.5 15q12 -1 33 -19.5t42 -43.5t38.5 -50.5t24.5 -39.5q0 -2 -10 -12l-22 -21l-22 -20q-9 -8 -10 -8t-3 3.5t-12 14t-25 24.5q-22 21 -45.5 37t-44.5 26q-17 7 -29 7h-4z" />
<glyph unicode="&#xc1;" d="M283 307q59 0 120.5 -2t125.5 -5l140 178q71 90 147.5 177.5t160.5 170t178 155.5q7 6 7 17q0 9 -2.5 20t-2.5 20q0 15 13 22q1 -1 7 -1q11 0 31.5 4t45 9.5t48.5 11.5l44 12q11 -3 18 -12t7 -14q0 -13 -12 -27.5t-27 -27t-29.5 -22t-20.5 -11.5q-80 -28 -121 -100.5 t-41 -172.5q0 -74 17 -156.5t46 -166t68 -164.5t84 -151q180 7 352.5 24t330.5 45q5 1 11.5 10t10.5 10q13 5 28.5 12t31.5 13t32 10t30 4q21 0 32 -11q1 -3 6 -3q4 0 7.5 1t6.5 1q0 -12 -12.5 -17.5t-25.5 -9.5q-94 -25 -202 -43.5t-218.5 -31.5t-215.5 -20.5t-193 -11.5 q38 -58 78.5 -105t80.5 -78q17 -4 24 -16q-18 -11 -46.5 -21.5t-57 -19t-52 -13.5t-32.5 -5q-17 0 -24.5 3t-12 10t-7.5 17.5t-10 25.5q-1 2 -1 4q0 3 2.5 6.5t2.5 8.5q0 1 -1 1.5t-1 1.5q-9 17 -24 39.5t-33 45.5l-37 48l-38 44q-34 0 -103.5 0.5t-161 2.5t-199 5.5 t-217.5 9.5q-38 -68 -57 -115l-31 -80q0 -8 9 -17.5t9 -14.5q0 -25 -2.5 -42.5t-13 -28.5t-31.5 -17.5t-57 -9.5q-25 -3 -57 -11t-61 -8q-13 0 -24.5 2.5t-20.5 8.5q9 22 32 61l54 87l66 97l66 94q-108 7 -206.5 16t-173.5 21.5t-119.5 28t-44.5 35.5q0 24 23 43.5t60.5 34 t86.5 25t101 17t103.5 9.5t94.5 3zM1153 950q-61 -56 -131 -133.5t-140 -165.5l-139 -181q-68 -92 -125 -177q69 -6 138 -15t135.5 -22t129 -29t118.5 -37q-28 106 -38 203t-10 191q0 42 2.5 93t9.5 101t19 95.5t31 76.5zM539 172l-27 -44l-23 -39q97 -8 194 -12t180 -6 t144 -2.5t85 -0.5h49q-12 12 -22.5 21.5t-18.5 15.5q-99 67 -229.5 102t-276.5 50l-28 -43zM34 214q0 -21 26.5 -38.5t73 -31.5t109 -25t134.5 -19l35 48l28 36l63 82q-61 4 -122 5.5t-121 1.5q-38 0 -78 -4t-73 -11.5t-54 -18.5t-21 -25zM1454 1293q-2 0 -3 0.5t-3 0.5 q-16 0 -39 -12t-47 -30.5t-46 -39.5q-14 -14 -23.5 -24.5t-11.5 -13.5t-3 -3t-11 9l-24 22l-23 22q-11 11 -11 13q7 16 26.5 43.5t42.5 54.5t45 47t36 21q13 -2 30.5 -17.5t33.5 -34t27.5 -35.5t11.5 -21q0 -2 -3 -2h-5z" />
<glyph unicode="&#xc2;" d="M284 307q59 0 120.5 -2t125.5 -5l140 178q71 90 148 177.5t161 170t178 155.5q7 6 7 17q0 9 -2.5 20t-2.5 20q0 15 13 22q1 -1 7 -1q11 0 31.5 4t45 9.5t48.5 11.5l44 12q11 -3 18 -12t7 -14q0 -13 -12 -27.5t-27 -27t-29.5 -22t-20.5 -11.5q-80 -28 -121 -100.5 t-41 -172.5q0 -74 17 -156.5t46 -166t68 -164.5t84 -151q181 7 353.5 24t330.5 45q5 1 11.5 10t10.5 10q13 5 28.5 12t32 13t32.5 10t30 4q21 0 32 -11q1 -3 6 -3q4 0 7.5 1t6.5 1q0 -12 -12.5 -17.5t-25.5 -9.5q-94 -25 -202.5 -43.5t-219 -31.5t-216 -20.5t-193.5 -11.5 q38 -58 79 -105t81 -78q17 -4 24 -16q-18 -11 -46.5 -21.5t-57 -19t-52.5 -13.5t-33 -5q-17 0 -24.5 3t-12 10t-7.5 17.5t-10 25.5q-1 2 -1 4q0 3 2.5 6.5t2.5 8.5q0 1 -1 1.5t-1 1.5q-9 17 -24 39.5t-33 45.5l-37 48l-38 44q-34 0 -103.5 0.5t-161 2.5t-199 5.5t-218.5 9.5 q-38 -68 -56 -115l-32 -80q0 -8 9 -17.5t9 -14.5q0 -25 -2.5 -42.5t-13 -28.5t-31.5 -17.5t-57 -9.5q-25 -3 -57 -11t-61 -8q-13 0 -24.5 2.5t-20.5 8.5q9 22 33 61l54 87l64 97l67 94q-109 7 -207.5 16t-173.5 21.5t-119.5 28t-44.5 35.5q0 24 23 43.5t61 34t86.5 25 t101 17t104 9.5t94.5 3zM1155 950q-61 -56 -131 -133.5t-140 -165.5l-139 -181l-126 -177q139 -12 274.5 -37t247.5 -66q-28 106 -38 203t-10 191q0 42 2.5 93t9.5 101t19 95.5t31 76.5zM540 172l-26 -44l-24 -39q97 -8 194.5 -12t180.5 -6t144 -2.5t85 -0.5h49 q-12 12 -22.5 21.5t-18.5 15.5q-99 67 -230 102t-277 50l-29 -43zM34 214q0 -21 27 -38.5t73.5 -31.5t109 -25t134.5 -19l36 48l27 36l63 82q-61 4 -122 5.5t-121 1.5q-38 0 -78.5 -4t-73.5 -11.5t-54 -18.5t-21 -25zM1353 985q13 6 40 23.5t57 40t58 46t45 41.5 q14 13 20 13q1 0 2 -1q6 -2 12 -7q14 -20 34.5 -40.5t44.5 -39.5t49.5 -34.5t49.5 -24.5q-6 -9 -21 -19.5t-32.5 -19t-33 -14t-21.5 -6.5q-5 0 -21 9.5t-35 24.5t-37 34t-28 38q-7 9 -11 12t-18 -8l-31 -23l-36 -25q-17 -12 -31 -20.5t-20 -9.5q-14 -2 -24 -2.5t-12 12.5z " />
<glyph unicode="&#xc3;" d="M284 307q59 0 120.5 -2t125.5 -5l140 178q71 90 148 177.5t161 170t178 155.5q7 6 7 17q0 9 -2.5 20t-2.5 20q0 15 13 22q1 -1 7 -1q11 0 31.5 4t45 9.5t48.5 11.5l44 12q11 -3 18 -12t7 -14q0 -13 -12 -27.5t-27 -27t-29.5 -22t-20.5 -11.5q-80 -28 -121 -100.5 t-41 -172.5q0 -74 17 -156.5t46 -166t68 -164.5t84 -151q181 7 353.5 24t330.5 45q5 1 11.5 10t10.5 10q13 5 28.5 12t32 13t32.5 10t30 4q21 0 32 -11q1 -3 6 -3q4 0 7.5 1t6.5 1q0 -12 -12.5 -17.5t-25.5 -9.5q-94 -25 -202.5 -43.5t-219 -31.5t-216 -20.5t-193.5 -11.5 q38 -58 79 -105t81 -78q17 -4 24 -16q-18 -11 -46.5 -21.5t-57 -19t-52.5 -13.5t-33 -5q-17 0 -24.5 3t-12 10t-7.5 17.5t-10 25.5q-1 2 -1 4q0 3 2.5 6.5t2.5 8.5q0 1 -1 1.5t-1 1.5q-9 17 -24 39.5t-33 45.5l-37 48l-38 44q-34 0 -103.5 0.5t-161 2.5t-199 5.5t-218.5 9.5 q-38 -68 -56 -115l-32 -80q0 -8 9 -17.5t9 -14.5q0 -25 -2.5 -42.5t-13 -28.5t-31.5 -17.5t-57 -9.5q-25 -3 -57 -11t-61 -8q-13 0 -24.5 2.5t-20.5 8.5q9 22 33 61l54 87l64 97l67 94q-109 7 -207.5 16t-173.5 21.5t-119.5 28t-44.5 35.5q0 24 23 43.5t61 34t86.5 25 t101 17t104 9.5t94.5 3zM1155 950q-61 -56 -131 -133.5t-140 -165.5l-139 -181l-126 -177q139 -12 274.5 -37t247.5 -66q-28 106 -38 203t-10 191q0 42 2.5 93t9.5 101t19 95.5t31 76.5zM540 172l-26 -44l-24 -39q97 -8 194.5 -12t180.5 -6t144 -2.5t85 -0.5h49 q-12 12 -22.5 21.5t-18.5 15.5q-99 67 -230 102t-277 50l-29 -43zM34 214q0 -21 27 -38.5t73.5 -31.5t109 -25t134.5 -19l36 48l27 36l63 82q-61 4 -122 5.5t-121 1.5q-38 0 -78.5 -4t-73.5 -11.5t-54 -18.5t-21 -25zM1596 931q-10 0 -18 -8t-15.5 -19.5t-15.5 -22.5 t-19 -17q-5 0 -12.5 2t-7.5 5q0 1 8.5 12t22 26t30.5 32l33 31q15 15 28.5 24.5t20.5 9.5q9 -1 33 -14l50 -27l50 -27q23 -12 29 -12h1q19 7 26.5 17t11 19.5t7 16t14.5 6.5q4 0 4 -5q0 -4 -4 -11t-5 -11q0 -6 -12.5 -24.5t-28.5 -39t-31 -36.5t-20 -16q-21 0 -49 13.5 t-55 29.5l-48 30q-21 14 -28 16z" />
<glyph unicode="&#xc4;" d="M285 310q59 0 120.5 -2t125.5 -5l140 179q71 91 148 179t161 171t178 156q7 6 7 18q0 8 -2.5 19t-2.5 21q0 15 13 22q1 -1 7 -1q11 0 31.5 3.5t45 9t49 12t43.5 12.5q11 -3 18 -12t7 -15q0 -12 -12 -26.5t-27 -27.5t-29.5 -22.5t-20.5 -11.5q-80 -29 -121 -101.5 t-41 -173.5q0 -74 17 -157t46 -167t68 -165.5t84 -151.5q181 7 353.5 23.5t330.5 45.5q5 1 11.5 10t10.5 11l28 11q16 7 32.5 13t32.5 10.5t30 4.5q21 0 32 -12q1 -3 6 -3q4 0 7.5 1t6.5 1q0 -12 -12.5 -17.5t-25.5 -8.5q-94 -26 -202.5 -44.5t-219 -31.5t-216 -21 t-193.5 -11q38 -59 79 -106.5t81 -78.5q17 -4 24 -16q-18 -11 -46.5 -21.5t-57 -19t-52.5 -13.5t-33 -5q-17 0 -24.5 3t-12 10t-7.5 17.5t-10 25.5q-1 2 -1 4q0 4 2.5 7t2.5 8q0 1 -1 1.5t-1 1.5q-9 18 -24 40t-33 46l-38 48q-19 24 -37 44q-34 0 -103.5 0.5t-161 2.5 t-199 5.5t-218.5 9.5q-38 -68 -57 -115l-31 -81q0 -8 9 -17.5t9 -14.5q0 -25 -2.5 -42.5t-13 -28.5t-31.5 -17.5t-57 -10.5q-25 -2 -57 -10.5t-61 -8.5q-13 0 -24.5 2.5t-20.5 9.5q9 22 32 61l54 88l66 98l66 94q-109 7 -207.5 16t-173.5 21.5t-119.5 28t-44.5 35.5 q0 24 23 43.5t61 34.5t86.5 25.5t101 17t104 9.5t94.5 3zM1156 957q-61 -57 -131 -135t-141 -166l-138 -182l-126 -178q139 -12 274.5 -37.5t247.5 -66.5q-28 106 -38 204t-10 192q0 43 2.5 94t9.5 101.5t19 96t31 77.5zM541 174l-27 -44l-23 -39q97 -8 194.5 -12.5 t180.5 -6.5t144 -2.5t85 -0.5h49l-22 22q-11 10 -19 15q-99 68 -230 103.5t-277 50.5l-28 -44zM35 217q0 -22 27 -39.5t73.5 -32t109 -25t134.5 -18.5l35 48l28 36l63 82q-61 5 -122 6.5t-121 1.5q-38 0 -78.5 -4t-73.5 -11.5t-54 -18.5t-21 -25zM1272 1275q29 -1 36 -9 q3 -3 3 -13q0 -8 -3 -21q-2 -6 -6 -20.5t-13.5 -28t-25.5 -22.5q-12 -7 -30 -7q-5 0 -12 1q-20 2 -29 7t-12 12q-2 5 -2 10q0 3 1 6q2 9 4 19q1 6 8 15l13 16q7 7 12 13.5t2 8.5q10 6 23.5 10t30.5 3zM1534 1278h8q3 0 5 -2q1 -2 4 -5.5t5 -8t2 -10t-4 -9.5q-5 -9 -4 -11.5 t-1 -12.5q-2 -7 -6 -17.5t-14 -20.5t-26 -17.5t-41 -7.5q-20 0 -31 14q-6 8 -6 18q0 8 3 16q1 12 9.5 24t22.5 22.5t32.5 18t41.5 9.5z" />
<glyph unicode="&#xc5;" d="M285 304q59 0 120.5 -1.5t125.5 -5.5l140 177q71 90 148.5 177t161.5 169t178 154q7 6 7 17q0 9 -2.5 20t-2.5 20q0 15 13 22q1 -1 7 -1q11 0 31.5 3.5t45 9t48.5 11.5l44 12q11 -2 18 -11t7 -15q0 -12 -12 -26.5t-27 -27t-29.5 -22t-20.5 -11.5q-80 -28 -121 -100 t-41 -172q0 -73 17 -155t46 -165t68 -163.5t84 -149.5q182 6 354.5 23t330.5 45q5 1 11.5 10t10.5 10q13 5 29 12t32.5 13t32.5 10t30 4q21 0 32 -11q1 -3 6 -3q4 0 7.5 1t6.5 1q0 -12 -12.5 -17.5t-25.5 -9.5q-95 -25 -203.5 -43t-219 -31t-216.5 -20.5t-194 -11.5 q38 -58 79.5 -105t81.5 -77q17 -4 24 -16q-18 -11 -46.5 -21.5t-57.5 -19t-53 -13.5t-33 -5q-17 0 -24.5 3t-12 10t-7.5 17.5t-10 25.5q-1 1 -1 2v1q0 4 2.5 7.5t2.5 8.5l-1 1q-1 0 -1 1q-9 17 -24 39.5t-33 46.5l-37 46l-38 44q-34 0 -103.5 0.5t-161 2.5t-199.5 5.5 t-219 9.5q-38 -68 -56 -114l-32 -80q0 -7 9 -16.5t9 -14.5q0 -25 -2.5 -42t-13 -28.5t-31.5 -17.5t-57 -10q-25 -2 -57 -10t-61 -8q-13 0 -24.5 2t-20.5 9q9 22 32 61l54 85l66 97l66 94q-109 7 -208 16t-174 21t-119.5 27.5t-44.5 35.5q0 24 23 43.5t61 34t87 24.5 t101.5 16.5t104 9.5t94.5 3zM1157 943q-61 -56 -131 -133t-140 -164l-140 -180l-126 -176q140 -12 275.5 -36.5t247.5 -65.5q-28 105 -38 201t-10 190q0 42 2.5 92.5t9.5 100.5t19 95t31 76zM541 170l-27 -44l-23 -38q97 -8 194.5 -12.5t180.5 -6.5t144.5 -2.5t85.5 -0.5h49 q-12 12 -22.5 21.5t-18.5 15.5q-99 66 -230 101.5t-278 49.5l-28 -43zM34 212q0 -21 27 -38.5t74 -31.5t109.5 -25t134.5 -19l35 48l28 36l63 81q-61 5 -122 6t-121 1q-38 0 -78.5 -3.5t-73.5 -11t-54.5 -18.5t-21.5 -25zM1344 1329q39 0 73 -7t58.5 -19t38.5 -28.5 t14 -35.5t-15 -36t-40.5 -29.5t-59 -19.5t-69.5 -7q-39 0 -73 7t-59 19.5t-39.5 29.5t-14.5 36t14.5 35.5t39.5 28.5t59 19t73 7zM1362 1276q-16 8 -33 13t-31 7h-10q-9 0 -16 -2q-12 -3 -16 -10q-3 -5 -3 -10q0 -12 12 -27q17 -22 52 -39q31 -18 59 -20h7q22 0 32 11 q3 6 3 12q0 12 -10 25q-14 22 -46 40z" />
<glyph unicode="&#xc6;" horiz-adv-x="2684" d="M2565 988q-2 3 -0.5 7t4 8t5 8.5t2.5 8.5q0 12 -9.5 30t-32 34.5t-58.5 28.5t-89 12q-38 0 -83.5 -3.5t-85 -16.5t-66.5 -39t-27 -71q0 -25 11.5 -50t28 -48.5t36.5 -46.5t36.5 -44.5t28 -42t11.5 -38.5q0 -20 -19 -37t-46.5 -31.5t-59.5 -26.5l-55 -20q-60 -24 -127 -42 l-132 -38q-65 -20 -125 -44.5t-105 -59.5t-72 -84t-27 -119v-16q0 -8 1 -16l28 -54l30 -51q181 7 353.5 24.5t330.5 46.5q5 1 11.5 10.5t10.5 11.5q13 5 28.5 12t32 13.5t32.5 11t30 4.5q21 0 32 -12q1 -3 6 -3q4 0 7.5 1t6.5 1q0 -13 -12.5 -18.5t-25.5 -9.5 q-94 -27 -202.5 -46.5t-219 -33t-216 -21.5t-193.5 -12l36 -55q41 -36 92 -66t104.5 -52.5t105.5 -35t96 -12.5q117 0 214.5 32.5t168 85t109.5 117.5t39 130q0 51 -20 73.5t-57 22.5q-21 0 -46 -6q9 21 35 30.5t55 9.5q45 0 72.5 -12.5t42.5 -32t20 -43.5t5 -47 q0 -86 -50 -158t-141.5 -124.5t-220 -82t-285.5 -29.5q-55 0 -118 3.5t-123 16.5q-20 -8 -42 -15t-41.5 -12t-34.5 -8t-21 -3q-17 0 -24.5 3.5t-12 10.5t-7.5 18t-10 27q-1 2 -1 4q0 5 2 8t2 7q0 1 -0.5 1.5t-0.5 2.5q-9 18 -24 41.5t-33 48.5l-38 50l-37 47 q-161 0 -333 7.5t-346 18.5q-20 -38 -30 -55l-16 -27l-9 -18t-11 -26q0 -8 9 -17.5t9 -14.5q0 -27 -2.5 -45t-13 -30t-31.5 -18.5t-57 -10.5q-25 -3 -57 -11.5t-61 -8.5q-13 0 -24.5 2.5t-20.5 9.5q9 24 29.5 53t47.5 63l58 74q32 40 64 87l-124 10q-43 3 -91.5 7t-96 8.5 t-91 10.5t-76.5 15t-52.5 20.5t-19.5 27.5q0 26 23 46.5t61 36t86.5 26.5t101 18t104 10t94.5 3q59 0 120.5 -2t125.5 -6l140 188q71 96 148 188.5t161 179.5t178 164q7 6 7 18q0 9 -2.5 20.5t-2.5 21.5q0 16 13 23q1 -1 7 -1q11 0 31.5 4t44.5 10l50 12l43 13 q11 -3 18 -12.5t7 -15.5q0 -13 -12 -28t-27 -28.5t-29.5 -23.5t-20.5 -12q-80 -30 -121 -106.5t-41 -182.5q0 -93 23.5 -197t62.5 -209q35 36 81.5 65.5t98 54.5t105.5 44l102 37q15 5 41 11l56 15q30 8 61 18t55.5 22.5t40.5 28.5t16 35q0 30 -20 51l-45 45 q-24 23 -44.5 52.5t-20.5 74.5q0 55 32.5 96.5t84.5 71.5t118 49.5t133.5 31t129.5 16t107 4.5q24 0 59.5 -3.5t68.5 -12.5t56.5 -24.5t23.5 -39.5q0 -18 -17.5 -34.5t-47.5 -30t-68.5 -24t-80.5 -18.5zM1369 221q-26 109 -35.5 208.5t-9.5 196.5q0 45 2.5 98.5t9.5 106.5 t19 101t31 81q-61 -59 -131 -141t-141 -175l-138 -191l-126 -187q139 -13 272 -38.5t245 -69.5zM771 191q-14 -22 -25 -41l-21 -39q152 -16 304.5 -23t295.5 -7h49q-44 47 -105.5 81t-133.5 57.5t-151 38t-158 23.5q-15 -23 -28 -46zM364 167q59 -13 122 -23.5t129 -19.5 l120 166q-61 5 -122 6.5t-121 1.5q-38 0 -78.5 -4t-73.5 -12t-54 -19.5t-21 -26.5q0 -11 8.5 -21.5t22.5 -20t31.5 -16.5t36.5 -11z" />
<glyph unicode="&#xc7;" horiz-adv-x="1279" d="M1993 -128q-75 -23 -170 -33.5t-206 -10.5q-126 0 -260 10t-267 30t-260.5 50t-241.5 70.5t-210 90.5t-165.5 110.5t-108.5 131t-39 150.5q0 86 54.5 165t145.5 147.5t208.5 125t243 96.5t249.5 62t228 22q30 0 60 -4.5t56 -13t46 -21t30 -28.5q9 16 18.5 45.5t14.5 58.5 q9 8 37.5 19t59.5 21l56 16q26 8 29 9h2q1 0 1 1q3 0 3 -2q0 -1 0.5 -3.5t-0.5 -3.5q-30 -19 -64.5 -67.5t-65 -108.5t-53 -120.5t-27.5 -103.5q-11 -15 -31.5 -26t-43.5 -18.5t-44.5 -11.5t-33.5 -4q22 40 38 88t16 91q0 42 -15.5 70t-43 44.5t-66.5 23.5t-86 7 q-79 0 -174 -17t-191.5 -47.5t-187 -72.5t-161 -92t-113 -106.5t-42.5 -115.5q0 -101 51.5 -195.5t144.5 -178t223.5 -152t287.5 -118t337 -76.5q173 -25 359 -25h14q15 0 48 2t66 5.5t58.5 8.5t25.5 11q0 5 -3.5 10.5t-3.5 9.5q0 1 14.5 2.5t36.5 3.5t48 4t49 4t40 3t21 1 q8 0 19 -1t11 -12q0 -2 -2 -4.5t-9.5 -6t-22 -9t-38.5 -11.5zM1247 -137l-5 -20q-3 -11 -4.5 -21t4.5 -10q28 0 50 -9.5t35.5 -25.5t17.5 -37q1 -8 1 -16q0 -15 -4 -30q-5 -15 -22 -32t-41.5 -33.5t-55 -31t-62 -26t-63 -18t-57.5 -6.5q-31 0 -43 3.5t-10 6.5q0 3 11.5 7 t28.5 7q74 0 113 25.5t55 82.5q1 6 1.5 12.5t-4 13.5t-15 12.5t-29.5 8.5q-23 0 -42.5 -4.5t-27.5 -7.5v6q0 3 2 8q5 17 14 42t15 48q3 17 6.5 30.5t3.5 24.5z" />
<glyph unicode="&#xc8;" horiz-adv-x="1225" d="M718 1043q92 0 178 -11.5t171 -26.5q52 27 117.5 45t132 28.5t128 14.5t105.5 4q24 0 59.5 -3t68.5 -11.5t56.5 -23t23.5 -37.5q0 -18 -19.5 -34.5t-52.5 -29.5t-75 -23.5t-87 -17.5t-89.5 -11t-81.5 -4q-62 0 -124 4t-125 12q3 -35 27.5 -68t52 -64.5t50 -60.5t22.5 -54 q0 -18 -19 -33.5t-46.5 -29.5t-58.5 -25l-56 -20q-60 -23 -127 -40t-132 -35.5t-125 -41t-105 -56t-72 -80.5t-27 -114q0 -11 1 -23.5t3 -26.5q6 -38 32.5 -73t66.5 -65t90 -54t102.5 -41t104.5 -26t96 -9q117 0 216 24.5t171 66.5t112.5 97.5t40.5 117.5q0 48 -20 69.5 t-57 21.5q-21 0 -46 -6q9 20 35 29t55 9q45 0 72.5 -12t42.5 -30.5t20 -41t5 -44.5q0 -81 -51.5 -143t-144.5 -104.5t-223 -64t-287 -21.5q-63 0 -136 4.5t-141 22.5q-66 18 -121.5 46.5t-96 66t-63 81.5t-22.5 94q0 47 20.5 87t56 73.5t81.5 61t97.5 50.5t103.5 41l101 35 q15 5 41 11l56 14q30 7 61 16.5t55.5 21.5t40.5 27t16 33q0 28 -20.5 48.5t-44.5 42t-44.5 49.5t-20.5 71q0 51 32 91l-251 34q-123 16 -238 16q-102 0 -199 -13t-185 -45q65 35 139.5 58t154 36t160.5 18t160 5zM1366 1050q-29 0 -62 -1.5t-65.5 -7.5t-61 -17.5 t-47.5 -30.5q100 -18 199.5 -33.5t205.5 -15.5q33 0 43 7t10 19t-15 26t-43.5 26t-69.5 20t-94 8zM1142 1271h-5q-1 0 -1 1t2 4q4 7 14.5 22.5t24 31t28 28.5t26.5 15q12 -1 33 -19.5t42 -43.5t38.5 -50.5t24.5 -39.5q0 -2 -10 -12l-22 -21l-22 -20q-9 -8 -10 -8t-3 3.5 t-12 14l-24 24.5q-23 21 -46.5 37t-44.5 26q-17 7 -29 7h-4z" />
<glyph unicode="&#xc9;" horiz-adv-x="1454" d="M535 1043q92 0 178 -11.5t171 -26.5q52 27 117.5 45t132 28.5t128 14.5t105.5 4q24 0 59.5 -3t68.5 -11.5t56.5 -23t23.5 -37.5q0 -18 -19.5 -34.5t-52.5 -29.5t-75 -23.5t-87 -17.5t-89.5 -11t-81.5 -4q-62 0 -124 4t-125 12q3 -35 27.5 -68t52 -64.5t50 -60.5t22.5 -54 q0 -18 -19 -33.5t-46.5 -29.5t-59.5 -25l-55 -20q-60 -23 -127 -40t-132 -35.5t-125 -41t-105 -56t-72 -80.5t-27 -114q0 -11 1 -23.5t3 -26.5q6 -38 32.5 -73t66.5 -65t90 -54t102.5 -41t104.5 -26t96 -9q117 0 216 24.5t171 66.5t112.5 97.5t40.5 117.5q0 48 -20 69.5 t-57 21.5q-21 0 -46 -6q9 20 35 29t55 9q45 0 72.5 -12t42.5 -30.5t20 -41t5 -44.5q0 -81 -51.5 -143t-144.5 -104.5t-223 -64t-287 -21.5q-63 0 -136 4.5t-141 22.5q-66 18 -121.5 46.5t-96 66t-63 81.5t-22.5 94q0 47 20.5 87t56 73.5t81.5 61t97.5 50.5t104.5 41l100 35 q15 5 41 11l56 14q30 7 61 16.5t55.5 21.5t40.5 27t16 33q0 28 -20.5 48.5t-44.5 42t-44.5 49.5t-20.5 71q0 51 32 91l-251 34q-123 16 -238 16q-102 0 -199 -13t-185 -45q65 35 139.5 58t154 36t160.5 18t160 5zM1183 1050q-29 0 -62 -1.5t-65.5 -7.5t-61 -17.5 t-47.5 -30.5q100 -18 199.5 -33.5t205.5 -15.5q33 0 43 7t10 19t-15 26t-43.5 26t-69.5 20t-94 8zM1507 1285q-2 0 -3 0.5t-3 0.5q-14 0 -35 -11t-43.5 -28t-42.5 -37q-13 -12 -21.5 -21.5t-11 -12.5l-2.5 -3q-1 0 -10 8l-22 20l-22 21q-10 10 -10 12q7 14 24.5 39.5 t38.5 50.5t42 43.5t33 19.5q12 -2 28.5 -16.5t31 -31.5t25 -32.5t10.5 -19.5q0 -2 -2 -2h-5z" />
<glyph unicode="&#xca;" horiz-adv-x="1225" d="M718 1043q92 0 178 -11.5t171 -26.5q52 27 117.5 45t132 28.5t128 14.5t105.5 4q24 0 59.5 -3t68.5 -11.5t56.5 -23t23.5 -37.5q0 -18 -19.5 -34.5t-52.5 -29.5t-75 -23.5t-87 -17.5t-89.5 -11t-81.5 -4q-62 0 -124 4t-125 12q3 -35 27.5 -68t52 -64.5t50 -60.5t22.5 -54 q0 -18 -19 -33.5t-46.5 -29.5t-58.5 -25l-56 -20q-60 -23 -127 -40t-132 -35.5t-125 -41t-105 -56t-72 -80.5t-27 -114q0 -11 1 -23.5t3 -26.5q6 -38 32.5 -73t66.5 -65t90 -54t102.5 -41t104.5 -26t96 -9q117 0 216 24.5t171 66.5t112.5 97.5t40.5 117.5q0 48 -20 69.5 t-57 21.5q-21 0 -46 -6q9 20 35 29t55 9q45 0 72.5 -12t42.5 -30.5t20 -41t5 -44.5q0 -81 -51.5 -143t-144.5 -104.5t-223 -64t-287 -21.5q-63 0 -136 4.5t-141 22.5q-66 18 -121.5 46.5t-96 66t-63 81.5t-22.5 94q0 47 20.5 87t56 73.5t81.5 61t97.5 50.5t103.5 41l101 35 q15 5 41 11l56 14q30 7 61 16.5t55.5 21.5t40.5 27t16 33q0 28 -20.5 48.5t-44.5 42t-44.5 49.5t-20.5 71q0 51 32 91l-251 34q-123 16 -238 16q-102 0 -199 -13t-185 -45q65 35 139.5 58t154 36t160.5 18t160 5zM1366 1050q-29 0 -62 -1.5t-65.5 -7.5t-61 -17.5 t-47.5 -30.5q100 -18 199.5 -33.5t205.5 -15.5q33 0 43 7t10 19t-15 26t-43.5 26t-69.5 20t-94 8zM1185 1190q13 6 40 23.5t57 40t58 46t45 41.5q14 13 20 13h2q6 -3 12 -8q14 -20 34.5 -40.5t44.5 -39.5t49.5 -34.5t49.5 -24.5q-6 -9 -21 -19.5t-32.5 -19t-33 -14 t-21.5 -6.5q-5 0 -21 9.5t-35 24.5t-37 34t-28 38q-7 9 -11 12t-18 -8l-31 -23l-36 -25q-17 -12 -31 -20.5t-20 -9.5q-14 -2 -24 -2.5t-12 12.5z" />
<glyph unicode="&#xcb;" horiz-adv-x="1225" d="M718 1043q92 0 178 -11.5t171 -26.5q52 27 117.5 45t132 28.5t128 14.5t105.5 4q24 0 59.5 -3t68.5 -11.5t56.5 -23t23.5 -37.5q0 -18 -19.5 -34.5t-52.5 -29.5t-75 -23.5t-87 -17.5t-89.5 -11t-81.5 -4q-62 0 -124 4t-125 12q3 -35 27.5 -68t52 -64.5t50 -60.5t22.5 -54 q0 -18 -19 -33.5t-46.5 -29.5t-58.5 -25l-56 -20q-60 -23 -127 -40t-132 -35.5t-125 -41t-105 -56t-72 -80.5t-27 -114q0 -11 1 -23.5t3 -26.5q6 -38 32.5 -73t66.5 -65t90 -54t102.5 -41t104.5 -26t96 -9q117 0 216 24.5t171 66.5t112.5 97.5t40.5 117.5q0 48 -20 69.5 t-57 21.5q-21 0 -46 -6q9 20 35 29t55 9q45 0 72.5 -12t42.5 -30.5t20 -41t5 -44.5q0 -81 -51.5 -143t-144.5 -104.5t-223 -64t-287 -21.5q-63 0 -136 4.5t-141 22.5q-66 18 -121.5 46.5t-96 66t-63 81.5t-22.5 94q0 47 20.5 87t56 73.5t81.5 61t97.5 50.5t103.5 41l101 35 q15 5 41 11l56 14q30 7 61 16.5t55.5 21.5t40.5 27t16 33q0 28 -20.5 48.5t-44.5 42t-44.5 49.5t-20.5 71q0 51 32 91l-251 34q-123 16 -238 16q-102 0 -199 -13t-185 -45q65 35 139.5 58t154 36t160.5 18t160 5zM1366 1050q-29 0 -62 -1.5t-65.5 -7.5t-61 -17.5 t-47.5 -30.5q100 -18 199.5 -33.5t205.5 -15.5q33 0 43 7t10 19t-15 26t-43.5 26t-69.5 20t-94 8zM1205 1289q29 -1 35 -9q4 -3 4 -13q0 -8 -3 -21q-2 -6 -6 -20.5t-13.5 -28t-25.5 -22.5q-12 -7 -30 -7q-6 0 -12 1q-20 2 -29 7t-12 12q-2 5 -2 10q0 3 1 6q2 9 4 19 q1 6 8 15l14 16q6 7 11 13.5t2 8.5q10 6 23.5 10t30.5 3zM1467 1292h8q3 0 5 -2q1 -2 4 -5.5t5 -8t2 -10t-4 -9.5q-5 -9 -4 -11.5t-1 -12.5q-2 -7 -6 -17.5t-14 -20.5t-26 -17.5t-41 -7.5q-20 0 -31 14q-6 8 -6 18q0 8 3 16q1 12 9.5 24t22.5 22.5t32.5 18t41.5 9.5z" />
<glyph unicode="&#xcc;" horiz-adv-x="758" d="M823 1111q65 -8 137 -9h14q65 0 138 8q11 1 37 13t54 29t52.5 36.5t32.5 35.5q5 10 10 25t10 15q3 -11 3 -24q-2 -30 -18.5 -59t-41.5 -56t-55.5 -51t-60 -41.5t-54 -28.5t-38.5 -12q-36 -4 -72 -4q-20 0 -41 1q-55 4 -112 15l-3 -85q-3 -51 -14.5 -123t-32 -155 t-48.5 -173t-64 -178.5t-79 -170.5t-93 -148l64 -23q99 -33 204 -62t207.5 -52t198 -38.5t175.5 -21.5q3 0 6.5 -0.5t6.5 -0.5q128 0 197 17t95 39q2 0 4 -4t2 -7t-16.5 -18t-43 -36t-60.5 -44.5t-68 -43.5t-65 -33t-53 -13q-11 0 -46.5 9.5t-89.5 26.5l-122 40l-146 52 l-160 61l-167 67l-73 30l-70 28q-61 -75 -129.5 -119.5t-145.5 -44.5q-42 0 -82 17.5t-76 45t-66 61t-52 64.5t-34 56.5t-12 37.5q0 45 34 78q32 32 65 42q18 5 38 5q15 0 30 -3q36 -7 78 -28t93 -49l113 -61q61 -33 138 -64q41 47 77.5 112.5t67 140.5t55.5 156.5t42 161.5 t26.5 154.5t9.5 136.5q0 50 -12 99t-29 87l-139 34q-71 18 -146 31.5t-154 18.5q-29 2 -58 2q-52 0 -107 -6q-11 -2 -25.5 -2.5t-25.5 -5.5q-20 -4 -44 -18l-48 -29l-44 -28q-20 -13 -33 -14q-4 0 -4 1t1 2t1 2q0 3 -2 5l85 65l89 66q43 32 80.5 54t60.5 25q25 2 50 2 q35 0 70 -5q59 -8 121 -24t129 -36t142 -37q18 34 47.5 48t55.5 15q2 0 7 -9.5t9.5 -22t8.5 -25t4 -19.5q0 -2 -0.5 -3t-0.5 -2v-4zM293 -113q37 0 71.5 18.5t67.5 50.5q-144 55 -252.5 86.5t-159.5 31.5q-35 0 -35 -14q0 -6 16.5 -21.5t42.5 -34.5t59.5 -40t68 -38t66 -28 t55.5 -11zM715 1275h-5q-1 0 -1 1t2 4q4 7 14.5 22.5t24 31t28 28.5t26.5 15q12 -1 33 -19.5t42 -43.5t38.5 -50.5t24.5 -39.5q0 -2 -10 -12l-22 -21l-22 -20q-9 -8 -10 -8t-3 3.5t-12 14t-25 24.5q-22 21 -45.5 37t-44.5 26q-17 7 -29 7h-4z" />
<glyph unicode="&#xcd;" horiz-adv-x="758" d="M823 1111q65 -8 137 -9h14q65 0 138 8q11 1 37 13t54 29t52.5 36.5t32.5 35.5q5 10 10 25t10 15q3 -11 3 -24q-2 -30 -18.5 -59t-41.5 -56t-55.5 -51t-60 -41.5t-54 -28.5t-38.5 -12q-36 -4 -72 -4q-20 0 -41 1q-55 4 -112 15l-3 -85q-3 -51 -14.5 -123t-32 -155 t-48.5 -173t-64 -178.5t-79 -170.5t-93 -148l64 -23q99 -33 204 -62t207.5 -52t198 -38.5t175.5 -21.5q3 0 6.5 -0.5t6.5 -0.5q128 0 197 17t95 39q2 0 4 -4t2 -7t-16.5 -18t-43 -36t-60.5 -44.5t-68 -43.5t-65 -33t-53 -13q-11 0 -46.5 9.5t-89.5 26.5l-122 40l-146 52 l-160 61l-167 67l-73 30l-70 28q-61 -75 -129.5 -119.5t-145.5 -44.5q-42 0 -82 17.5t-76 45t-66 61t-52 64.5t-34 56.5t-12 37.5q0 45 34 78q32 32 65 42q18 5 38 5q15 0 30 -3q36 -7 78 -28t93 -49l113 -61q61 -33 138 -64q41 47 77.5 112.5t67 140.5t55.5 156.5t42 161.5 t26.5 154.5t9.5 136.5q0 50 -12 99t-29 87l-139 34q-71 18 -146 31.5t-154 18.5q-29 2 -58 2q-52 0 -107 -6q-11 -2 -25.5 -2.5t-25.5 -5.5q-20 -4 -44 -18l-48 -29l-44 -28q-20 -13 -33 -14q-4 0 -4 1t1 2t1 2q0 3 -2 5l85 65l89 66q43 32 80.5 54t60.5 25q25 2 50 2 q35 0 70 -5q59 -8 121 -24t129 -36t142 -37q18 34 47.5 48t55.5 15q2 0 7 -9.5t9.5 -22t8.5 -25t4 -19.5q0 -2 -0.5 -3t-0.5 -2v-4zM293 -113q37 0 71.5 18.5t67.5 50.5q-144 55 -252.5 86.5t-159.5 31.5q-35 0 -35 -14q0 -6 16.5 -21.5t42.5 -34.5t59.5 -40t68 -38t66 -28 t55.5 -11zM1111 1134q-2 0 -3 0.5t-3 0.5q-14 0 -35 -11t-43.5 -28t-42.5 -36q-13 -13 -21.5 -22.5t-11 -12.5l-2.5 -3q-1 0 -10 8l-22 20l-22 21q-10 10 -10 12q7 14 24.5 39.5t38.5 50.5t42 43.5t33 19.5q12 -2 28.5 -16.5t31 -31.5t25 -32.5t10.5 -19.5q0 -2 -2 -2h-5z " />
<glyph unicode="&#xce;" horiz-adv-x="758" d="M826 1111q65 -8 136 -9h15q65 0 138 8q12 1 38 13t54 29t52.5 36.5t32.5 35.5q5 10 10 25t10 15q3 -11 3 -24q-1 -30 -18 -59t-42 -56t-56 -51t-60.5 -41.5t-54 -28.5t-38.5 -12q-36 -4 -72 -4q-20 0 -40 1q-56 4 -113 15l-3 -85q-3 -51 -14.5 -123t-32 -155t-49 -173 t-64.5 -178.5t-79 -170.5t-93 -148l64 -23q99 -33 204.5 -62t208 -52t198.5 -38.5t176 -21.5q3 0 6.5 -0.5t6.5 -0.5q128 0 197.5 17t95.5 39q2 0 4 -4t2 -7t-16.5 -18t-43.5 -36t-60.5 -44.5t-67.5 -43.5t-65.5 -33t-53.5 -13q-11 0 -46.5 9.5t-89.5 26.5l-122 40l-147 52 l-161 61l-167 67l-73 30l-70 28q-61 -75 -130 -119.5t-146 -44.5q-42 0 -82.5 17.5t-76 45t-66 61t-52 64.5t-34 56.5t-12.5 37.5q0 45 34 78q32 32 65 42q19 5 39 5q15 0 30 -3q36 -7 78 -28t93 -49l113 -61q62 -33 139 -64q41 47 77.5 112.5t67.5 140.5t55.5 156.5 t42 161.5t27 154.5t9.5 136.5q0 50 -12.5 99t-29.5 87l-140 34q-71 18 -146 31.5t-155 18.5q-28 2 -57 2q-52 0 -107 -6q-11 -2 -25.5 -2.5t-25.5 -5.5q-20 -4 -44 -18l-47 -29l-45 -28q-21 -13 -34 -14q-4 0 -4 1t1 2t1 2q0 3 -2 5l85 65l90 66q43 32 80.5 54t60.5 25 q25 2 50 2q36 0 71 -5q59 -8 121 -24t129 -36t142 -37q18 34 48 48t56 15q2 0 7 -9.5t9.5 -22t8.5 -25t4 -19.5q0 -2 -0.5 -3t-0.5 -2v-4zM294 -113q38 0 72.5 18.5t67.5 50.5q-145 55 -253.5 86.5t-159.5 31.5q-35 0 -35 -14q0 -6 16.5 -21.5t42.5 -34.5t59.5 -40t68 -38 t66 -28t55.5 -11zM713 1199q13 6 40 23.5t57 40t58 46t45 41.5q14 13 20 13q1 0 2 -1q6 -2 12 -7q14 -20 34.5 -40.5t44.5 -39.5t49.5 -34.5t49.5 -24.5q-6 -9 -21 -19.5t-32.5 -19t-33 -14t-21.5 -6.5q-5 0 -21 9.5t-35 24.5t-37 34t-28 38q-7 9 -11 12t-18 -8l-31 -23 l-36 -25q-17 -12 -31 -20.5t-20 -9.5q-14 -2 -24 -2.5t-12 12.5z" />
<glyph unicode="&#xcf;" horiz-adv-x="758" d="M826 1111q65 -8 136 -9h15q65 0 138 8q12 1 38 13t54 29t52.5 36.5t32.5 35.5q5 10 10 25t10 15q3 -11 3 -24q-1 -30 -18 -59t-42 -56t-56 -51t-60.5 -41.5t-54 -28.5t-38.5 -12q-36 -4 -72 -4q-20 0 -40 1q-56 4 -113 15l-3 -85q-3 -51 -14.5 -123t-32 -155t-49 -173 t-64.5 -178.5t-79 -170.5t-93 -148l64 -23q99 -33 204.5 -62t208 -52t198.5 -38.5t176 -21.5q3 0 6.5 -0.5t6.5 -0.5q128 0 197.5 17t95.5 39q2 0 4 -4t2 -7t-16.5 -18t-43.5 -36t-60.5 -44.5t-67.5 -43.5t-65.5 -33t-53.5 -13q-11 0 -46.5 9.5t-89.5 26.5l-122 40l-147 52 l-161 61l-167 67l-73 30l-70 28q-61 -75 -130 -119.5t-146 -44.5q-42 0 -82.5 17.5t-76 45t-66 61t-52 64.5t-34 56.5t-12.5 37.5q0 45 34 78q32 32 65 42q19 5 39 5q15 0 30 -3q36 -7 78 -28t93 -49l113 -61q62 -33 139 -64q41 47 77.5 112.5t67.5 140.5t55.5 156.5 t42 161.5t27 154.5t9.5 136.5q0 50 -12.5 99t-29.5 87l-140 34q-71 18 -146 31.5t-155 18.5q-28 2 -57 2q-52 0 -107 -6q-11 -2 -25.5 -2.5t-25.5 -5.5q-20 -4 -44 -18l-47 -29l-45 -28q-21 -13 -34 -14q-4 0 -4 1t1 2t1 2q0 3 -2 5l85 65l90 66q43 32 80.5 54t60.5 25 q25 2 50 2q36 0 71 -5q59 -8 121 -24t129 -36t142 -37q18 34 48 48t56 15q2 0 7 -9.5t9.5 -22t8.5 -25t4 -19.5q0 -2 -0.5 -3t-0.5 -2v-4zM294 -113q38 0 72.5 18.5t67.5 50.5q-145 55 -253.5 86.5t-159.5 31.5q-35 0 -35 -14q0 -6 16.5 -21.5t42.5 -34.5t59.5 -40t68 -38 t66 -28t55.5 -11zM801 1299q29 -1 35 -9q4 -3 4 -13q0 -8 -3 -21q-2 -6 -6 -20.5t-13.5 -28t-25.5 -22.5q-12 -7 -30 -7q-6 0 -12 1q-20 2 -29 7t-12 12q-2 5 -2 10q0 3 1 6q2 9 4 19q1 6 8 15l14 16q6 7 11 13.5t2 8.5q10 6 23.5 10t30.5 3zM1063 1302h8q3 0 5 -2 q1 -2 4 -5.5t5 -8t2 -10t-4 -9.5q-5 -9 -4 -11.5t-1 -12.5q-2 -7 -6 -17.5t-14 -20.5t-26 -17.5t-41 -7.5q-20 0 -31 14q-6 8 -6 18q0 8 3 16q1 12 9.5 24t22.5 22.5t32.5 18t41.5 9.5z" />
<glyph unicode="&#xd0;" horiz-adv-x="2152" d="M1323 1152q-2 -21 -9 -48t-18 -59l91 -29q203 -68 351 -135t244 -141t142.5 -158t46.5 -186q0 -72 -20.5 -133.5t-57.5 -113.5t-89.5 -95t-116.5 -77q270 -52 514.5 -112.5t452.5 -123.5q27 -8 52 -20t44 -25.5t30.5 -28.5t11.5 -30q0 -27 -39 -59t-135 -65 q-59 -20 -88 -27q-24 -5 -35 -5h-3q-4 0 -4 2q0 6 18 22t39.5 38.5t39.5 49.5t18 55q0 24 -36.5 49.5t-101.5 52t-155 52.5t-197.5 52t-229 50.5t-248.5 47.5q-95 -44 -206.5 -74t-232 -48t-245 -26t-245.5 -8q-32 0 -84.5 1t-117 4t-135.5 9t-140 16t-132 25t-111 35.5 t-76.5 47.5t-28.5 62q0 42 32.5 71t88 47t128.5 25q52 5 108 5q24 0 49 -1q195 -8 394 -24q63 112 112 227.5t86.5 231.5t65 230.5t47.5 222.5q-99 32 -234.5 68t-302.5 64q-3 0 -6 0.5t-5 0.5q-22 0 -28 -13t-6 -24q0 -14 6 -32.5t13.5 -36.5t15.5 -33t13 -22 q-20 10 -47 32t-52 47.5t-42 50t-17 41.5q0 24 19.5 40.5t61.5 16.5q9 0 15 -1h12q6 -1 12.5 -2.5t17.5 -3.5q72 -15 145 -33l145 -37l140 -40l132 -39l9 53l-5 5q6 3 22 8.5t34 10.5l35 9q16 4 21 4t6 -4t1 -9zM1386 961l-42 16l-64 23l-85 -226q-50 -130 -95 -293 q-19 -68 -44 -138t-41 -139l-13 -50l-10 -46q208 -20 413 -50t405 -66q49 31 89 68.5t68.5 82.5t44 98t15.5 115q0 97 -45.5 183t-129 161t-202 140t-264.5 121zM1018 -179q95 0 194.5 7.5t196 24.5t187 44t166.5 67q-204 35 -404.5 64t-373.5 49l-10 -45l-12 -43 q0 -1 -0.5 -2.5t-0.5 -2.5q0 -2 5 -6t5 -6q0 -4 -1 -5q-21 -34 -50.5 -52.5t-66.5 -18.5q-3 0 -17.5 3.5t-31 9t-30 11t-13.5 10.5q55 77 104 160q-84 9 -152.5 14t-119.5 7q-39 1 -74 1q-119 0 -185 -16q-86 -20 -86 -72q0 -34 28.5 -62.5t79.5 -51.5t122.5 -39.5 t157 -27.5t182.5 -16.5t200 -5.5z" />
<glyph unicode="&#xd1;" horiz-adv-x="1380" d="M840 1015q-6 0 -10 -8t-7 -8q-2 4 -2 8q0 16 11.5 43t30 52.5t41.5 44t46 18.5q19 0 36 -17t30 -32q19 -23 36 -48l35 -52q10 13 21.5 25.5t23 22.5t22 16t16.5 6q9 0 10 -14q-7 -37 -15.5 -72.5t-19.5 -72.5q15 -47 32.5 -89t40.5 -91l54 -111l71 -147 q45 -95 91.5 -175.5t86 -139.5t67 -92.5t33.5 -33.5q5 0 13 8.5t17 23t17 32.5t13 38l56 230l51 219l54 215.5t63 220.5l29 88q16 47 35.5 93.5t43 89.5t52 76t62 52.5t72.5 19.5q20 0 38.5 -10t31.5 -32q-1 -12 -10 -28t-21.5 -32.5t-27.5 -33t-28 -29.5l-23 -21 q-9 -9 -11 -10q-8 9 -13.5 19t-18.5 10q-44 0 -73.5 -23t-48.5 -56.5t-30 -71.5l-21 -68q-38 -129 -69.5 -257.5t-54.5 -242.5t-37 -207.5t-17 -152.5q-3 -48 -7 -101.5t-14.5 -103.5t-28.5 -94t-49 -73q-4 -4 -13 -7.5t-18.5 -5.5t-18.5 -3.5t-13 -1.5q-17 0 -37 22.5 t-39.5 52.5t-35.5 61l-24 46l-192 371q-98 181 -204 355q-48 -91 -99 -198t-108.5 -214t-124 -206.5t-145.5 -176.5t-172.5 -123t-205.5 -46q-48 0 -88.5 24t-69.5 63.5t-45 89.5t-16 103q0 32 7 63t21 58t36.5 48t52.5 35q0 -8 -2 -30t-2 -60q0 -47 20.5 -95.5t56 -87.5 t83 -63.5t101.5 -24.5q88 0 161 45.5t133.5 120t111 171t93.5 199t80 203t71 183.5l-35 53l-37 50l-25 32q-15 19 -30 35t-29.5 27t-24.5 11zM1495 1286q-12 0 -22 -10.5t-19 -23.5l-20 -28q-10 -15 -23 -22q-7 0 -16 2.5t-9 6.5q0 2 10.5 15t27.5 32l38 40q20 21 40 39 t36 30t25 12q8 -1 24 -9l37 -19l44 -23l42 -24q20 -11 35 -18t20 -7h1q24 9 33.5 21.5t14 24.5t8.5 20t18 8q2 0 3 -2t1 -4q0 -5 -4.5 -14t-6.5 -14q0 -7 -15.5 -30t-35 -48.5t-38.5 -45.5t-25 -20q-26 0 -61 16.5t-68 36.5l-60 38q-26 18 -35 20z" />
<glyph unicode="&#xd2;" horiz-adv-x="1254" d="M1322 1064q8 1 18 1h21q34 0 74 -4.5t74.5 -18t57.5 -37.5t23 -64q0 -23 -8 -47q90 -19 169 -53.5t137.5 -88t92.5 -128t34 -173.5q0 -88 -29.5 -161t-80 -132.5t-119 -107t-146.5 -83.5t-162.5 -61.5t-166.5 -41.5t-158 -23.5t-139 -7.5q-145 0 -255.5 33.5t-185.5 92 t-113 136.5t-38 168q0 76 26 150.5t71.5 145t107.5 135.5t134 121q-138 -34 -272 -79t-273 -108l-6 -1q2 7 9.5 14.5t16 14t15.5 11t9 5.5q156 67 294.5 113t275.5 81q121 82 249 134.5t243 63.5zM1228 879q-98 0 -200 -13t-206 -36q-58 -44 -106.5 -96t-83 -111t-54 -123.5 t-19.5 -133.5q0 -98 39.5 -186t109.5 -155.5t165.5 -107t207.5 -39.5q81 0 173.5 9t183.5 30.5t174.5 56.5t147 88t101.5 125.5t38 167.5q0 99 -26 176.5t-72.5 137t-112 100.5t-144.5 66q-17 -18 -38 -32t-42.5 -24t-42 -15.5t-38.5 -6.5l-5 -1q7 12 18.5 21t22 20t19.5 25 t12 36q-104 21 -222 21zM1289 923q40 0 80 -2t79 -6q-11 50 -54 68.5t-109 18.5q-100 -5 -197.5 -36t-185.5 -83q83 17 182 28.5t205 11.5zM1062 1277h-5q-1 0 -1 1t2 4q4 7 14.5 22.5t24 31t28 28.5t26.5 15q12 -1 33 -19.5t42 -43.5t38.5 -50.5t24.5 -39.5q0 -2 -10 -12 l-22 -21l-22 -20q-9 -8 -10 -8t-3 3.5t-12 14l-24 24.5q-23 21 -46.5 37t-44.5 26q-17 7 -29 7h-4z" />
<glyph unicode="&#xd3;" horiz-adv-x="1254" d="M1322 1054q8 1 18 1h21q34 0 74 -4.5t74.5 -18t57.5 -37.5t23 -64q0 -23 -8 -47q90 -19 169 -53.5t137.5 -88t92.5 -128t34 -173.5q0 -88 -29.5 -161t-80 -132.5t-119 -107t-146.5 -83.5t-162.5 -61.5t-166.5 -41.5t-158 -23.5t-139 -7.5q-145 0 -255.5 33.5t-185.5 92 t-113 136.5t-38 168q0 76 26 150.5t71.5 145t107.5 135.5t134 121q-138 -34 -272 -79t-273 -108l-6 -1q2 7 9.5 14.5t16 14t15.5 11t9 5.5q156 67 294.5 113t275.5 81q121 82 249 134.5t243 63.5zM1228 869q-98 0 -200 -13t-206 -36q-58 -44 -106.5 -96t-83 -111t-54 -123.5 t-19.5 -133.5q0 -98 39.5 -186t109.5 -155.5t165.5 -107t207.5 -39.5q81 0 173.5 9t183.5 30.5t174.5 56.5t147 88t101.5 125.5t38 167.5q0 99 -26 176.5t-72.5 137t-112 100.5t-144.5 66q-17 -18 -38 -32t-42.5 -24t-42 -15.5t-38.5 -6.5l-5 -1q7 12 18.5 21t22 20t19.5 25 t12 36q-104 21 -222 21zM1289 913q40 0 80 -2t79 -6q-11 50 -54 68.5t-109 18.5q-100 -5 -197.5 -36t-185.5 -83q83 17 182 28.5t205 11.5zM1503 1281q-2 0 -3 0.5t-3 0.5q-14 0 -35 -11t-43.5 -28t-42.5 -37q-13 -12 -21.5 -21.5t-11 -12.5l-2.5 -3q-1 0 -10 8l-22 20 l-22 21q-10 10 -10 12q7 14 24.5 39.5t38.5 50.5t42 43.5t33 19.5q12 -2 28.5 -16.5t31 -31.5t25 -32.5t10.5 -19.5q0 -2 -2 -2h-5z" />
<glyph unicode="&#xd4;" horiz-adv-x="1254" d="M1322 1054q8 1 18 1h21q34 0 74 -4.5t74.5 -18t57.5 -37.5t23 -64q0 -23 -8 -47q90 -19 169 -53.5t137.5 -88t92.5 -128t34 -173.5q0 -88 -29.5 -161t-80 -132.5t-119 -107t-146.5 -83.5t-162.5 -61.5t-166.5 -41.5t-158 -23.5t-139 -7.5q-145 0 -255.5 33.5t-185.5 92 t-113 136.5t-38 168q0 76 26 150.5t71.5 145t107.5 135.5t134 121q-138 -34 -272 -79t-273 -108l-6 -1q2 7 9.5 14.5t16 14t15.5 11t9 5.5q156 67 294.5 113t275.5 81q121 82 249 134.5t243 63.5zM1228 869q-98 0 -200 -13t-206 -36q-58 -44 -106.5 -96t-83 -111t-54 -123.5 t-19.5 -133.5q0 -98 39.5 -186t109.5 -155.5t165.5 -107t207.5 -39.5q81 0 173.5 9t183.5 30.5t174.5 56.5t147 88t101.5 125.5t38 167.5q0 99 -26 176.5t-72.5 137t-112 100.5t-144.5 66q-17 -18 -38 -32t-42.5 -24t-42 -15.5t-38.5 -6.5l-5 -1q7 12 18.5 21t22 20t19.5 25 t12 36q-104 21 -222 21zM1289 913q40 0 80 -2t79 -6q-11 50 -54 68.5t-109 18.5q-100 -5 -197.5 -36t-185.5 -83q83 17 182 28.5t205 11.5zM1165 1181q13 6 40 23.5t57 40t58 46t45 41.5q14 13 20 13q1 0 2 -1q6 -2 12 -7q14 -20 34.5 -40.5t44.5 -39.5t49.5 -34.5 t49.5 -24.5q-6 -9 -21 -19.5t-32.5 -19t-33 -14t-21.5 -6.5q-5 0 -21 9.5t-35 24.5t-37 34t-28 38q-7 9 -11 12t-18 -8l-31 -23l-36 -25q-17 -12 -31 -20.5t-20 -9.5q-14 -2 -24 -2.5t-12 12.5z" />
<glyph unicode="&#xd5;" horiz-adv-x="1254" d="M1321 1054q8 1 18 1h21q34 0 74 -4.5t74 -18t57 -37.5t23 -64q0 -23 -8 -47q90 -19 169 -53.5t137.5 -88t92.5 -128t34 -173.5q0 -88 -29.5 -161t-80 -132.5t-119 -107t-146.5 -83.5t-162 -61.5t-166 -41.5t-158 -23.5t-139 -7.5q-145 0 -255.5 33.5t-185 92 t-112.5 136.5t-38 168q0 76 26 150.5t71 145t107 135.5t134 121q-137 -34 -271 -79t-273 -108l-6 -1q2 7 9.5 14.5t16 14t15.5 11t9 5.5q78 33 151 61t143 52t138.5 44t136.5 37q121 82 249 134.5t243 63.5zM1227 869q-98 0 -200 -13t-206 -36q-58 -44 -106.5 -96t-83 -111 t-53.5 -123.5t-19 -133.5q0 -98 39.5 -186t109 -155.5t165 -107t207.5 -39.5q81 0 173.5 9t183 30.5t174 56.5t147 88t101.5 125.5t38 167.5q0 99 -26 176.5t-72.5 137t-112 100.5t-144.5 66q-17 -18 -37.5 -32t-42 -24t-42 -15.5t-38.5 -6.5l-5 -1q7 12 18.5 21t22 20 t19.5 25t12 36q-104 21 -222 21zM1288 913q40 0 80 -2t79 -6q-11 50 -54 68.5t-109 18.5q-100 -5 -197.5 -36t-185.5 -83q83 17 182 28.5t205 11.5zM1104 901q7 -2 28 -16l48 -30q27 -16 55 -29.5t49 -13.5q5 0 20 16t31 36.5t28.5 39t12.5 24.5q1 4 5 11t4 11q0 5 -4 5 q-11 0 -14.5 -6.5t-7 -16t-11 -19.5t-26.5 -17h-1q-6 0 -29 12l-50 27l-50 27q-24 13 -33 14q-7 0 -20.5 -9.5t-28.5 -24.5l-33 -31q-17 -17 -30.5 -32t-22 -26t-8.5 -12q0 -3 7.5 -5t12.5 -2q11 6 19 17t15.5 22.5t15.5 19.5t18 8z" />
<glyph unicode="&#xd6;" horiz-adv-x="1750" d="M1115 1137q8 1 19 1h21q34 0 74 -5t74 -19t57 -40t23 -69q0 -23 -8 -49q90 -20 169.5 -57t138.5 -94.5t93 -137t34 -184.5q0 -124 -51 -221.5t-134.5 -171t-190.5 -124.5t-218.5 -82.5t-218.5 -46t-191 -14.5q-146 0 -256.5 36t-185.5 98t-113 145.5t-38 179.5 q0 81 26 161t71.5 155t107.5 144.5t134 129.5q-137 -37 -271.5 -85.5t-274.5 -114.5l-6 -1q2 7 9.5 15t16 15t15.5 12t9 6q156 70 295.5 119.5t276.5 87.5q60 43 123 79.5t126.5 64t125 44.5t118.5 23zM1021 939q-98 0 -200.5 -13t-206.5 -39q-59 -47 -107.5 -102.5 t-83 -118t-54 -131.5t-19.5 -142q0 -104 39.5 -198.5t109.5 -166t166 -114t209 -42.5q82 0 174.5 9.5t183.5 32t174.5 60.5t147.5 94.5t102 133.5t38 179q0 105 -26 188t-73 146t-113 107t-145 71q-17 -19 -37.5 -34.5t-42 -26t-42 -16.5t-38.5 -7l-5 -1q7 13 18.5 23 t22 21.5t19.5 27t12 38.5q-52 11 -108 16t-115 5zM1082 987q82 0 160 -9q-11 53 -54 72.5t-110 19.5q-100 -5 -198 -38t-186 -88q83 19 182.5 31t205.5 12zM1276 1291q29 -1 36 -9q3 -3 3 -13q0 -8 -3 -21q-2 -6 -6 -20.5t-13.5 -28t-25.5 -22.5q-12 -7 -30 -7q-5 0 -12 1 q-20 2 -29 7t-12 12q-2 5 -2 10q0 3 1 6q2 9 4 19q1 6 8 15l13 16q7 7 12 13.5t2 8.5q10 6 23.5 10t30.5 3zM1538 1294h8q3 0 5 -2q1 -2 4 -5.5t5 -8t2 -10t-4 -9.5q-5 -9 -4 -11.5t-1 -12.5q-2 -7 -6 -17.5t-14 -20.5t-26 -17.5t-41 -7.5q-20 0 -31 14q-6 8 -6 18q0 8 3 16 q1 12 9.5 24t22.5 22.5t32.5 18t41.5 9.5z" />
<glyph unicode="&#xd7;" horiz-adv-x="500" d="M416 309q9 -6 10 -23v-6q0 -14 -4 -30q-4 -19 -11.5 -36.5t-13.5 -24.5q-26 -10 -47 -19l-42 -19l70 -64q34 -31 52 -58q-6 -2 -14 -7.5t-18 -10.5t-20.5 -6.5t-21.5 6.5q-39 27 -69.5 51.5t-54.5 46.5q-28 -18 -49 -34l-40 -30q-19 -14 -37.5 -26t-40.5 -22q0 6 -3 14 t-5 18q-1 4 -1 9q0 6 2 12q2 10 14 20q31 28 58 50l51 41q-29 33 -50 60.5t-44 50.5q6 11 25.5 17.5t41.5 8.5q17 2 31 2h12q20 -1 28 -5q-2 -8 -2 -16q0 -12 5 -25q7 -21 24 -42q26 17 48 30l43 24l38 21q18 10 35 22z" />
<glyph unicode="&#xd8;" horiz-adv-x="1672" d="M1104 1171q2 0 4.5 -2t-2.5 -2h-10q-115 -6 -240 -56.5t-240 -131.5q80 17 173 27.5t192 10.5q31 0 62 -1.5t62 -3.5l35 71l35 71l22 44q9 18 17.5 33t18 29.5t24.5 33.5q8 10 20.5 18t21.5 10h3q6 0 7 -6q1 -7 -12 -27q-19 -27 -36 -61.5t-32 -71.5l-29 -72 q-13 -36 -25 -64l-6 -15q107 -14 204 -48t171 -93.5t118 -147.5t44 -210q0 -95 -29.5 -174t-80 -144t-119 -116.5t-146.5 -90.5t-162 -66.5t-166 -45t-158 -25.5t-139 -8q-6 0 -11.5 0.5t-11.5 0.5l-78 -191q-3 -9 -14 -20t-21 -18q-9 -5 -15 -5h-3q-7 2 -2 20l36 109 l37 108q-125 10 -220 50t-159 101.5t-96.5 141t-32.5 169.5q0 82 26 163t71 157.5t107 146.5t134 131q-65 -17 -116.5 -32.5t-101.5 -34t-104 -42.5t-123 -58l-6 -1q2 7 9.5 15.5t16 15.5t15.5 12t9 6l136 61q60 26 113 45.5t105.5 35.5t116.5 33q60 44 122.5 81t125.5 64.5 t124.5 45t118.5 23.5q21 2 44 2q5 1 9 1zM1025 649l-159 -381l-161 -379q17 -2 34 -3t34 -1q82 0 174 9.5t182.5 33t174 61.5t147 95.5t101.5 136t38 181.5q0 121 -33 213.5t-92.5 159.5t-141 109t-178.5 63zM1009 806l35 76l35 76q-38 5 -77.5 8t-81.5 3q-91 0 -185 -12 t-191 -34q-63 -53 -116.5 -113t-92.5 -125t-61 -133.5t-22 -137.5q0 -90 28.5 -173.5t80.5 -151.5t124.5 -117t159.5 -71q82 231 172.5 456t191.5 449z" />
<glyph unicode="&#xd9;" horiz-adv-x="1422" d="M2788 -245q-159 -38 -322.5 -65.5t-334.5 -27.5q-123 0 -231.5 8.5t-199.5 30.5t-164 61t-125 100t-82 146.5t-36 202.5q-109 -84 -229 -156t-237 -125.5t-225.5 -83.5t-194.5 -30q-78 0 -135 14t-93.5 46t-54.5 85t-18 131q0 97 18.5 191.5t48.5 186t69 180.5l79 176 q2 4 6 13.5t7.5 21t6 24.5t2.5 24q0 14 -5 22.5t-17 8.5t-26 -7l-388 -175q-29 -13 -47.5 -25t-18.5 -36q0 -14 6 -30q-12 -2 -28 -5l-33 -6q-18 -3 -35 -5t-31 -2q-3 0 -9.5 0.5t-13 1.5t-11.5 3t-5 6q0 3 8 15.5t19 17.5q5 2 16 9l24 12l24 12q10 6 13 6q8 4 43 20l86 37 l106 47l106 46l86 36q36 16 44 20q5 2 30 14l58 27l72 35l72 34l58 28q24 11 30 13q12 4 26 10.5t29 12t28.5 9.5t24.5 4q5 0 11 -1.5t6 -5.5q0 -11 -7 -19t-18 -17l-26 -18q-15 -10 -29 -26q-82 -73 -151 -155.5t-119 -183.5t-78 -226t-28 -284q0 -61 13 -115.5t43 -95 t78.5 -64.5t120.5 -24q87 0 173 20t169.5 55.5t164 83t156.5 101.5l61 44l68 54v19q0 87 8 172t26 161.5t45.5 141.5t67 112.5t90.5 74.5t116 27q47 0 76 -30.5t29 -76.5q0 -69 -29.5 -143t-81.5 -149t-123.5 -149.5t-155.5 -144.5q21 -138 88 -245.5t176 -181.5 t257.5 -112.5t331.5 -38.5q47 0 105 4.5t122 13t130 20.5t128 27t117.5 32.5t97.5 37.5q37 31 77 57t85 26q8 0 16 1t16 1q14 0 24 -5q-22 -17 -47 -32t-47 -31q-57 -28 -120 -47.5t-129 -34.5zM1351 386q0 -22 1 -43t3 -42q52 45 101 96.5t87.5 107t62 114t23.5 117.5 q0 29 -4 59.5t-12.5 55t-22 40t-33.5 15.5q-43 0 -75 -30.5t-54.5 -79t-37.5 -108.5t-23.5 -117.5t-12 -107t-3.5 -77.5zM1231 1165h-5q-1 0 -1 1t2 4q4 7 14.5 22.5t24 31t28 28.5t26.5 15q12 -1 33 -19.5t42 -43.5t38.5 -50.5t24.5 -39.5q0 -2 -10 -12l-22 -21l-22 -20 q-9 -8 -10 -8t-3 3.5t-12 14t-25 24.5q-22 21 -45.5 37t-44.5 26q-17 7 -29 7h-4z" />
<glyph unicode="&#xda;" horiz-adv-x="1422" d="M2788 -245q-159 -38 -322.5 -65.5t-334.5 -27.5q-123 0 -231.5 8.5t-199.5 30.5t-164 61t-125 100t-82 146.5t-36 202.5q-109 -84 -229 -156t-237 -125.5t-225.5 -83.5t-194.5 -30q-78 0 -135 14t-93.5 46t-54.5 85t-18 131q0 97 18.5 191.5t48.5 186t69 180.5l79 176 q2 4 6 13.5t7.5 21t6 24.5t2.5 24q0 14 -5 22.5t-17 8.5t-26 -7l-388 -175q-29 -13 -47.5 -25t-18.5 -36q0 -14 6 -30q-12 -2 -28 -5l-33 -6q-18 -3 -35 -5t-31 -2q-3 0 -9.5 0.5t-13 1.5t-11.5 3t-5 6q0 3 8 15.5t19 17.5q5 2 16 9l24 12l24 12q10 6 13 6q8 4 43 20l86 37 l106 47l106 46l86 36q36 16 44 20q5 2 30 14l58 27l72 35l72 34l58 28q24 11 30 13q12 4 26 10.5t29 12t28.5 9.5t24.5 4q5 0 11 -1.5t6 -5.5q0 -11 -7 -19t-18 -17l-26 -18q-15 -10 -29 -26q-82 -73 -151 -155.5t-119 -183.5t-78 -226t-28 -284q0 -61 13 -115.5t43 -95 t78.5 -64.5t120.5 -24q87 0 173 20t169.5 55.5t164 83t156.5 101.5l61 44l68 54v19q0 87 8 172t26 161.5t45.5 141.5t67 112.5t90.5 74.5t116 27q47 0 76 -30.5t29 -76.5q0 -69 -29.5 -143t-81.5 -149t-123.5 -149.5t-155.5 -144.5q21 -138 88 -245.5t176 -181.5 t257.5 -112.5t331.5 -38.5q47 0 105 4.5t122 13t130 20.5t128 27t117.5 32.5t97.5 37.5q37 31 77 57t85 26q8 0 16 1t16 1q14 0 24 -5q-22 -17 -47 -32t-47 -31q-57 -28 -120 -47.5t-129 -34.5zM1351 386q0 -22 1 -43t3 -42q52 45 101 96.5t87.5 107t62 114t23.5 117.5 q0 29 -4 59.5t-12.5 55t-22 40t-33.5 15.5q-43 0 -75 -30.5t-54.5 -79t-37.5 -108.5t-23.5 -117.5t-12 -107t-3.5 -77.5zM1574 1165q-2 0 -3 0.5t-3 0.5q-14 0 -35 -11t-43.5 -28t-43.5 -37q-12 -12 -20.5 -21.5t-11 -12.5l-2.5 -3q-1 0 -10 8l-22 20l-22 21q-10 10 -10 12 q7 14 24.5 39.5t38.5 50.5t42 43.5t33 19.5q12 -2 28.5 -16.5t31 -31.5t25 -32.5t10.5 -19.5q0 -2 -3 -2h-4z" />
<glyph unicode="&#xdb;" horiz-adv-x="1422" d="M2788 -245q-159 -38 -322.5 -65.5t-334.5 -27.5q-123 0 -231.5 8.5t-199.5 30.5t-164 61t-125 100t-82 146.5t-36 202.5q-109 -84 -229 -156t-237 -125.5t-225.5 -83.5t-194.5 -30q-78 0 -135 14t-93.5 46t-54.5 85t-18 131q0 97 18.5 191.5t48.5 186t69 180.5l79 176 q2 4 6 13.5t7.5 21t6 24.5t2.5 24q0 14 -5 22.5t-17 8.5t-26 -7l-388 -175q-29 -13 -47.5 -25t-18.5 -36q0 -14 6 -30q-12 -2 -28 -5l-33 -6q-18 -3 -35 -5t-31 -2q-3 0 -9.5 0.5t-13 1.5t-11.5 3t-5 6q0 3 8 15.5t19 17.5q5 2 16 9l24 12l24 12q10 6 13 6q8 4 43 20l86 37 l106 47l106 46l86 36q36 16 44 20q5 2 30 14l58 27l72 35l72 34l58 28q24 11 30 13q12 4 26 10.5t29 12t28.5 9.5t24.5 4q5 0 11 -1.5t6 -5.5q0 -11 -7 -19t-18 -17l-26 -18q-15 -10 -29 -26q-82 -73 -151 -155.5t-119 -183.5t-78 -226t-28 -284q0 -61 13 -115.5t43 -95 t78.5 -64.5t120.5 -24q87 0 173 20t169.5 55.5t164 83t156.5 101.5l61 44l68 54v19q0 87 8 172t26 161.5t45.5 141.5t67 112.5t90.5 74.5t116 27q47 0 76 -30.5t29 -76.5q0 -69 -29.5 -143t-81.5 -149t-123.5 -149.5t-155.5 -144.5q21 -138 88 -245.5t176 -181.5 t257.5 -112.5t331.5 -38.5q47 0 105 4.5t122 13t130 20.5t128 27t117.5 32.5t97.5 37.5q37 31 77 57t85 26q8 0 16 1t16 1q14 0 24 -5q-22 -17 -47 -32t-47 -31q-57 -28 -120 -47.5t-129 -34.5zM1351 386q0 -22 1 -43t3 -42q52 45 101 96.5t87.5 107t62 114t23.5 117.5 q0 29 -4 59.5t-12.5 55t-22 40t-33.5 15.5q-43 0 -75 -30.5t-54.5 -79t-37.5 -108.5t-23.5 -117.5t-12 -107t-3.5 -77.5zM1212 1002q13 6 40 23.5t57 40t58 46t45 41.5q14 13 20 13h2q6 -3 12 -8q14 -20 34.5 -40.5t44.5 -39.5t49.5 -34.5t49.5 -24.5q-6 -9 -21 -19.5 t-32.5 -19t-33 -14t-21.5 -6.5q-5 0 -21 9.5t-35 24.5t-37 34t-28 38q-7 9 -11 12t-18 -8l-32 -23l-34 -25q-18 -12 -32 -20.5t-20 -9.5q-14 -2 -24 -2.5t-12 12.5z" />
<glyph unicode="&#xdc;" horiz-adv-x="1422" d="M2794 -242q-158 -38 -321.5 -67t-334.5 -29q-123 0 -231 8.5t-199 31.5t-164 62.5t-125 102.5t-82 151.5t-36 208.5q-109 -86 -228.5 -160.5t-237 -129.5t-226 -86t-194.5 -31q-78 0 -134.5 14.5t-93.5 47.5t-54.5 87.5t-17.5 135.5q0 100 18 196.5t48 191t69 185.5 l79 181q2 4 6 14t7.5 22t6 25t2.5 25q0 14 -5 23t-17 9t-26 -7l-387 -180q-29 -14 -47.5 -26t-18.5 -38q0 -14 6 -30q-12 -3 -28 -6l-34 -6q-17 -3 -34 -5t-31 -2q-3 0 -9.5 0.5t-13 1.5t-11.5 3.5t-5 5.5q0 4 8 16.5t19 18.5q5 2 17 9l24 12l22 12q11 6 14 6q8 4 44 20 l84 40l106 48l106 47l86 38q36 16 44 20q5 2 30 14l58 29l72 34l72 36l58 28q24 12 30 14q12 4 26 10.5t29 12.5t28.5 10t24.5 4q5 0 11 -1.5t6 -5.5q0 -12 -7 -20t-18 -16l-26 -20q-15 -10 -29 -26q-82 -75 -151 -160t-119 -189.5t-78 -233t-28 -291.5q0 -63 13 -119 t43 -97.5t78.5 -66t120.5 -24.5q87 0 173 21t170 57t164.5 84.5t155.5 104.5l61 46q33 25 68 55v20q0 90 8 177t26 166t45.5 145.5t67 115.5t90.5 76.5t116 27.5q47 0 76 -31t29 -79q0 -71 -29.5 -147t-81.5 -153t-123.5 -153.5t-155.5 -148.5q21 -142 88 -253t176 -187 t257 -115.5t331 -39.5q47 0 105 4.5t121.5 13.5t129.5 21.5t128 27.5t117.5 33.5t97.5 38.5q18 16 37.5 31t39.5 27t41 19.5t44 7.5q8 0 16 1t16 1q13 0 24 -4q-22 -17 -47 -33t-47 -33q-57 -29 -120 -48.5t-129 -35.5zM1359 407q0 -23 1 -44.5t3 -42.5q52 46 101 99 t87.5 110t62 117t23.5 121q0 30 -4 61t-12.5 56.5t-22 41.5t-33.5 16q-43 0 -75 -31.5t-54.5 -81.5t-37.5 -111.5t-23.5 -121t-12 -110t-3.5 -79.5zM1298 1308q29 -1 36 -8q3 -4 3 -14q0 -8 -3 -21q-2 -6 -6 -20.5t-13.5 -28t-25.5 -22.5q-12 -7 -30 -7q-5 0 -12 1 q-20 2 -29 7t-12 13q-2 4 -2 9q0 3 1 7q2 8 4 18q1 6 8 14l13 16q7 8 12 14.5t2 8.5q10 6 23.5 10t30.5 3zM1560 1311h8q3 0 5 -2q1 -2 4 -5.5t5 -8t2 -10t-4 -9.5q-5 -9 -4 -11.5t-1 -12.5q-2 -7 -6 -17.5t-14 -20.5t-26 -17.5t-41 -7.5q-20 0 -31 14q-6 8 -6 18q0 8 3 16 q1 12 9.5 24t22.5 22.5t32.5 18t41.5 9.5z" />
<glyph unicode="&#xdd;" horiz-adv-x="1151" d="M-69 -731q0 86 41.5 171.5t115.5 169t177 163.5t226 155.5t262 144.5t285 131l137 191q70 95 149 192q-71 -49 -150.5 -92t-164 -75t-172 -50.5t-173.5 -18.5q-104 0 -174 33.5t-117.5 88t-76.5 125t-50 145.5t-38.5 147.5t-42.5 132.5q-6 13 -23 29t-40 29.5t-49.5 22.5 t-50.5 9q26 9 54 14t60 5q34 0 67.5 -6t61 -21.5t47.5 -41t27 -64.5q7 -37 21 -95t38.5 -124.5t61 -134t86.5 -122t115.5 -88.5t149.5 -34q88 0 173.5 24.5t163.5 66t148 96.5t129 116q22 23 51 66l62 92q33 48 68 92t69 68q6 10 21 18.5t33 13.5t36 8t30 3t26.5 -1.5t25 -5 t13.5 -10.5t-8 -19q-36 -40 -82 -81l-90 -81l-86 -73q-40 -35 -65 -62l-136 -168l-61 -76l-62 -83l-62 -83l-58 -81q139 55 280 102.5t275.5 85t259.5 64.5t233 42q87 12 176 12q68 0 130.5 -7t110 -21t76 -34.5t28.5 -47.5q0 -16 -4 -34.5t-20.5 -39.5t-48.5 -44.5 t-88 -48.5q8 17 13.5 30.5t5.5 27.5q0 46 -25.5 75.5t-67.5 46.5t-95 23.5t-108 6.5q-43 0 -84.5 -3t-77.5 -6.5t-65 -7.5t-46 -6q-102 -14 -211 -37t-221 -54.5t-224.5 -70.5t-222.5 -84l-35 -53q-15 -24 -26 -44l-106 -187q-57 -99 -124 -198t-144.5 -191.5t-166.5 -167.5 t-190.5 -126.5t-215.5 -67.5q-7 -1 -13.5 -1.5t-14.5 -0.5q-22 0 -47 4.5t-46 15.5t-35 29t-14 46zM1016 172q-125 -54 -241.5 -114.5t-218 -124.5t-185.5 -129.5t-144 -130.5t-93 -128t-33 -121q0 -21 2.5 -47.5t10.5 -49.5t24.5 -38.5t44.5 -15.5h10q5 0 12 1 q93 16 173.5 65.5t150.5 120.5t131.5 157.5t117.5 176.5l106 175q50 86 100 157zM1290 1108q-2 0 -3 0.5t-3 0.5q-14 0 -35 -11t-43.5 -28t-43.5 -36l-20.5 -22.5t-11 -12.5l-2.5 -3q-1 0 -10 8l-22 20l-22 21q-10 10 -10 12q7 14 24.5 39.5t38.5 50.5t42 43.5t33 19.5 q12 -2 28.5 -16.5t31 -31.5t25 -32.5t10.5 -19.5q0 -2 -3 -2h-4z" />
<glyph unicode="&#xde;" horiz-adv-x="1089" d="M289 416q-23 0 -59 -4q-20 -1 -39 -1q-17 0 -33 1q-35 3 -62.5 17t-32.5 48q-1 9 -1 17q0 21 8 39q12 26 35 47t55 38.5t67.5 30.5t71.5 22.5t68 15.5l53 184q-10 -2 -28 -2h-25h-17q-8 0 -16.5 2.5t-14.5 13.5q6 8 18.5 15.5t29 14.5t35 11.5t35.5 6.5l36 112 q12 7 30.5 10.5t48.5 5.5q1 -9 -4.5 -29.5t-12.5 -42.5l-13 -41q-6 -18 -6 -23q43 -3 94 -18.5t100 -39.5t91.5 -56t68.5 -69q14 -2 35 -3t42 -3.5t40 -7.5t30 -14q0 -12 -18 -27.5t-42 -28.5t-47.5 -22t-33.5 -9h-8q7 4 11.5 12.5t4.5 16.5t-5 14.5t-17 7.5 q-43 -55 -97.5 -102t-117.5 -81.5t-132.5 -54.5t-142.5 -21l-88 -309l29 1v-7q0 -20 -5 -34q-7 -16 -20 -27t-32 -21l-43 -21q-16 -7 -32.5 -11.5t-31.5 -4.5q-1 6 4 14t12 17.5t13 18.5t7 17zM385 464h11q41 2 83.5 12.5t82.5 22.5q24 7 56 21t61 34.5t49 46.5q19 25 19 53 q0 23 -3 28l-10 12q-73 -2 -147 -9.5t-145 -21.5zM194 512.5q10 -16.5 24.5 -27.5t32.5 -16t35 -5h8q4 0 8 2l5 6l51 182q-22 -4 -52 -10.5t-57.5 -18t-46.5 -29.5q-18 -17 -18 -41q0 -26 10 -42.5zM457 697q67 7 130.5 17t132.5 18q-3 6 -23 28.5t-51 47.5t-69.5 44 t-78.5 19z" />
<glyph unicode="&#xdf;" horiz-adv-x="916" d="M-193 -627l5 7l14 16t16.5 17t13.5 10q25 0 52 4.5t47 21.5l11 16q15 22 26 45l22 48q32 75 53.5 153t39.5 159q35 161 65 322t68 322q21 90 46.5 177.5t63.5 172.5q35 76 83 139.5t110 118.5q18 16 36.5 30t38.5 24.5t42.5 17t49.5 6.5q38 0 63.5 -12t40.5 -32.5 t21.5 -47t6.5 -56.5q0 -58 -16.5 -113.5t-44.5 -107t-65 -98t-78 -85.5l-30 -29q62 -3 111.5 -29t84.5 -66.5t54 -91.5t19 -103q0 -39 -9.5 -78t-27 -76t-41.5 -71t-54 -62q-53 -51 -114 -72t-138 -21q-85 0 -153 33.5t-129 95.5q-24 -103 -51.5 -208.5t-63.5 -198.5 q-14 -34 -36 -80t-52 -89.5t-66 -77.5t-76 -46q-14 -5 -29 -5h-30zM326 599q-27 -108 -50 -215l-45 -216q8 -13 19.5 -25.5t23.5 -24t24 -21.5t21 -16q49 -35 106 -53t117 -18q27 0 54.5 2.5t54 9t50.5 18.5t44 31q32 32 42.5 78.5t10.5 91.5q0 62 -23.5 115t-63 91.5 t-91 60.5t-106.5 22q-62 0 -118 -28q14 31 35.5 50.5t47 32t53 22t53.5 22t47.5 31t35.5 48.5q32 52 54.5 113t22.5 126q0 80 -38 118.5t-98 38.5q-45 0 -79 -25.5t-60.5 -67.5t-46.5 -96t-37 -110l-30 -110q-15 -54 -30 -96z" />
<glyph unicode="&#xe0;" horiz-adv-x="428" d="M389 162q2 1 5 1h4q9 0 9 -9q0 -3 -3.5 -10.5t-11.5 -16.5q5 -19 15 -44t23.5 -47t29 -37.5t32.5 -15.5q29 0 57 18t55 43t52 52.5t49 46.5l4 2q2 1 7 1q21 0 21 -5l-1 -1q-37 -29 -73.5 -66.5t-77 -71t-87.5 -57t-105 -23.5q-25 0 -43.5 14t-33 34t-24.5 40l-17 35 q-15 -8 -40 -19t-54.5 -22t-61 -18.5t-60.5 -7.5q-35 0 -61 16.5t-26 59.5q0 11 10 35t29 41q27 24 66 41.5t81 29t81.5 18.5t65.5 11q2 0 3 0.5t3 0.5q9 0 19.5 -5t10.5 -7q0 -8 2.5 -17t2.5 -19q0 -11 -8.5 -21t-37.5 -18q-17 18 -37.5 32.5t-49.5 14.5q-42 0 -68.5 -21.5 t-26.5 -51.5q0 -15 3 -30t10.5 -27t21 -19.5t34.5 -7.5q11 0 19 0.5t17 3.5t20 8.5t28 15.5q2 12 15 27t30.5 29t37 26t35.5 18zM157 412h-5q-2 0 -2 2q0 4 10.5 19.5t25 32.5t31 31.5t28.5 16.5q12 -1 33 -19.5t42 -43.5t38.5 -50.5t24.5 -39.5q0 -2 -10 -12l-22 -21 l-22 -20q-9 -8 -10 -8l-2.5 3t-11 12.5t-21.5 22.5q-20 19 -42.5 36t-43.5 28t-35 11q-2 0 -3 -0.5t-3 -0.5z" />
<glyph unicode="&#xe1;" horiz-adv-x="428" d="M389 162q2 1 5 1h4q9 0 9 -9q0 -3 -3.5 -10.5t-11.5 -16.5q5 -19 15 -44t23.5 -47t29 -37.5t32.5 -15.5q29 0 57 18t55 43t52 52.5t49 46.5l4 2q2 1 7 1q21 0 21 -5l-1 -1q-37 -29 -73.5 -66.5t-77 -71t-87.5 -57t-105 -23.5q-25 0 -43.5 14t-33 34t-24.5 40l-17 35 q-15 -8 -40 -19t-54.5 -22t-61 -18.5t-60.5 -7.5q-35 0 -61 16.5t-26 59.5q0 11 10 35t29 41q27 24 66 41.5t81 29t81.5 18.5t65.5 11q2 0 3 0.5t3 0.5q9 0 19.5 -5t10.5 -7q0 -8 2.5 -17t2.5 -19q0 -11 -8.5 -21t-37.5 -18q-17 18 -37.5 32.5t-49.5 14.5q-42 0 -68.5 -21.5 t-26.5 -51.5q0 -15 3 -30t10.5 -27t21 -19.5t34.5 -7.5q11 0 19 0.5t17 3.5t20 8.5t28 15.5q2 12 15 27t30.5 29t37 26t35.5 18zM503 414q-2 0 -3 0.5t-3 0.5q-14 0 -35 -11t-43.5 -28t-42.5 -36q-13 -13 -21.5 -22.5t-11 -12.5l-2.5 -3q-1 0 -10 8l-22 20l-22 21 q-10 10 -10 12q7 14 24.5 39.5t38.5 50.5t42 43.5t33 19.5q12 -2 28.5 -16.5t31 -31.5t25 -32.5t10.5 -19.5q0 -2 -2 -2h-5z" />
<glyph unicode="&#xe2;" horiz-adv-x="428" d="M389 162q2 1 5 1h4q9 0 9 -9q0 -3 -3.5 -10.5t-11.5 -16.5q5 -19 15 -44t23.5 -47t29 -37.5t32.5 -15.5q29 0 57 18t55 43t52 52.5t49 46.5l4 2q2 1 7 1q21 0 21 -5l-1 -1q-37 -29 -73.5 -66.5t-77 -71t-87.5 -57t-105 -23.5q-25 0 -43.5 14t-33 34t-24.5 40l-17 35 q-15 -8 -40 -19t-54.5 -22t-61 -18.5t-60.5 -7.5q-35 0 -61 16.5t-26 59.5q0 11 10 35t29 41q27 24 66 41.5t81 29t81.5 18.5t65.5 11q2 0 3 0.5t3 0.5q9 0 19.5 -5t10.5 -7q0 -8 2.5 -17t2.5 -19q0 -11 -8.5 -21t-37.5 -18q-17 18 -37.5 32.5t-49.5 14.5q-42 0 -68.5 -21.5 t-26.5 -51.5q0 -15 3 -30t10.5 -27t21 -19.5t34.5 -7.5q11 0 19 0.5t17 3.5t20 8.5t28 15.5q2 12 15 27t30.5 29t37 26t35.5 18zM147 332q13 6 40 23.5t57 40t58 46t45 41.5q14 13 20 13h2q6 -3 12 -8q14 -20 34.5 -40.5t44.5 -39.5t49.5 -34.5t49.5 -24.5q-6 -9 -21 -19.5 t-32.5 -19t-33 -14t-21.5 -6.5q-5 0 -21 9.5t-35 24.5t-37 34t-28 38q-7 9 -11 12t-18 -8l-31 -23l-36 -25q-17 -12 -31 -20.5t-20 -9.5q-14 -2 -24 -2.5t-12 12.5z" />
<glyph unicode="&#xe3;" horiz-adv-x="668" d="M416 162q2 1 5 1h4q9 0 9 -9q0 -3 -3.5 -10.5t-11.5 -16.5q5 -19 15 -44t23.5 -47t29 -37.5t32.5 -15.5q29 0 57 18t55 43t52 52.5t49 46.5l4 2q2 1 7 1q21 0 21 -5l-1 -1q-37 -29 -73.5 -66.5t-77 -71t-87.5 -57t-105 -23.5q-25 0 -43.5 14t-33 34t-24.5 40l-17 35 q-15 -8 -40 -19t-54.5 -22t-61 -18.5t-60.5 -7.5q-35 0 -61 16.5t-26 59.5q0 11 10 35t29 41q27 24 66 41.5t81 29t81.5 18.5t65.5 11q2 0 3 0.5t3 0.5q9 0 19.5 -5t10.5 -7q0 -8 2.5 -17t2.5 -19q0 -11 -8.5 -21t-37.5 -18q-17 18 -37.5 32.5t-49.5 14.5q-42 0 -68.5 -21.5 t-26.5 -51.5q0 -15 3 -30t10.5 -27t21 -19.5t34.5 -7.5q11 0 19 0.5t17 3.5t20 8.5t28 15.5q2 12 15 27t30.5 29t37 26t35.5 18zM295 392q-10 0 -18 -8t-15.5 -19.5t-15.5 -22.5t-19 -17q-5 0 -12.5 2t-7.5 5q0 2 8.5 12.5t22 25.5t30.5 32l32 32q16 14 29.5 23.5t20.5 9.5 q9 -1 33 -13l51 -28l49 -27q23 -12 29 -12h1q19 7 26.5 17t11 19.5t7 16t14.5 6.5q4 0 4 -5q0 -4 -4 -11t-5 -11q0 -6 -12.5 -24.5t-28.5 -39t-31 -36.5t-20 -16q-21 0 -49 13.5t-54 29.5l-48 30q-22 14 -29 16z" />
<glyph unicode="&#xe4;" horiz-adv-x="428" d="M389 162q2 1 5 1h4q9 0 9 -9q0 -3 -3.5 -10.5t-11.5 -16.5q5 -19 15 -44t23.5 -47t29 -37.5t32.5 -15.5q29 0 57 18t55 43t52 52.5t49 46.5l4 2q2 1 7 1q21 0 21 -5l-1 -1q-37 -29 -73.5 -66.5t-77 -71t-87.5 -57t-105 -23.5q-25 0 -43.5 14t-33 34t-24.5 40l-17 35 q-15 -8 -40 -19t-54.5 -22t-61 -18.5t-60.5 -7.5q-35 0 -61 16.5t-26 59.5q0 11 10 35t29 41q27 24 66 41.5t81 29t81.5 18.5t65.5 11q2 0 3 0.5t3 0.5q9 0 19.5 -5t10.5 -7q0 -8 2.5 -17t2.5 -19q0 -11 -8.5 -21t-37.5 -18q-17 18 -37.5 32.5t-49.5 14.5q-42 0 -68.5 -21.5 t-26.5 -51.5q0 -15 3 -30t10.5 -27t21 -19.5t34.5 -7.5q11 0 19 0.5t17 3.5t20 8.5t28 15.5q2 12 15 27t30.5 29t37 26t35.5 18zM274 431q29 -1 36 -9q3 -3 3 -13q0 -8 -3 -21q-2 -6 -6 -20.5t-13.5 -28t-25.5 -22.5q-12 -7 -30 -7q-5 0 -12 1q-20 2 -29 7t-12 12 q-2 5 -2 10q0 3 1 6q2 9 4 19q1 6 8 15l13 16q7 7 12 13.5t2 8.5q10 6 23.5 10t30.5 3zM536 434h8q3 0 5 -2q1 -2 4 -5.5t5 -8t2 -10t-4 -9.5q-5 -9 -4 -11.5t-1 -12.5q-2 -7 -6 -17.5t-14 -20.5t-26 -17.5t-41 -7.5q-20 0 -31 14q-6 8 -6 18q0 8 3 16q1 12 9.5 24 t22.5 22.5t32.5 18t41.5 9.5z" />
<glyph unicode="&#xe5;" horiz-adv-x="428" d="M389 162q2 1 5 1h4q9 0 9 -9q0 -3 -3.5 -10.5t-11.5 -16.5q5 -19 15 -44t23.5 -47t29 -37.5t32.5 -15.5q29 0 57 18t55 43t52 52.5t49 46.5l4 2q2 1 7 1q21 0 21 -5l-1 -1q-37 -29 -73.5 -66.5t-77 -71t-87.5 -57t-105 -23.5q-25 0 -43.5 14t-33 34t-24.5 40l-17 35 q-15 -8 -40 -19t-54.5 -22t-61 -18.5t-60.5 -7.5q-35 0 -61 16.5t-26 59.5q0 11 10 35t29 41q27 24 66 41.5t81 29t81.5 18.5t65.5 11q2 0 3 0.5t3 0.5q9 0 19.5 -5t10.5 -7q0 -8 2.5 -17t2.5 -19q0 -11 -8.5 -21t-37.5 -18q-17 18 -37.5 32.5t-49.5 14.5q-42 0 -68.5 -21.5 t-26.5 -51.5q0 -15 3 -30t10.5 -27t21 -19.5t34.5 -7.5q11 0 19 0.5t17 3.5t20 8.5t28 15.5q2 12 15 27t30.5 29t37 26t35.5 18zM376 492q39 0 73 -7t58.5 -19t38.5 -28.5t14 -35.5t-15 -36t-40.5 -29.5t-59 -19.5t-69.5 -7q-39 0 -73 7t-59 19.5t-39.5 29.5t-14.5 36 t14.5 35.5t39.5 28.5t59 19t73 7zM394 439q-16 8 -33 13t-31 6q-5 1 -10 1q-9 0 -16 -2q-12 -3 -16 -10q-3 -5 -3 -10q0 -12 12 -27q17 -22 52 -39q31 -18 59 -20h7q22 0 32 11q3 6 3 12q0 12 -10 26q-14 21 -46 39z" />
<glyph unicode="&#xe6;" horiz-adv-x="1046" d="M415 162q2 1 5 1h4q9 0 9 -9q0 -3 -3.5 -10.5t-11.5 -16.5q5 -19 14 -41t20.5 -40t25.5 -29q11 -9 24 -9q3 0 7 1q19 3 45.5 12t55.5 22q-14 26 -21 66q-1 7 -1 13q0 18 10 33q13 21 37.5 37.5t57 29.5t65.5 21.5t62.5 12.5t48.5 4q34 0 57 -7t23 -24q0 -16 -19.5 -33 t-49 -34t-62.5 -33t-59 -30l-6 -4l-6 -4q-4 -3 -7 -4q8 -12 36.5 -29t79.5 -17q25 0 56 3.5t65 14.5t69.5 33t69.5 58q2 0 8 1.5t11 1.5q9 0 9 -6q-36 -43 -89 -73t-107.5 -49t-104 -28t-78.5 -9q-45 0 -79.5 3.5t-57.5 27.5q-58 -31 -116 -54t-112 -32q-6 -1 -12 -1 q-17 0 -29 9q-16 12 -26.5 30.5t-17.5 39t-14 34.5q-15 -8 -40 -19t-54.5 -22t-61 -18.5t-60.5 -7.5q-35 0 -61 16.5t-26 59.5q0 11 10 35t29 41q27 24 66 41.5t81 29t81.5 18.5t65.5 11q2 0 3 0.5t3 0.5q9 0 19.5 -5t10.5 -7q0 -8 2.5 -17t2.5 -19q0 -11 -8.5 -21 t-37.5 -18q-17 18 -37.5 32.5t-49.5 14.5q-42 0 -68.5 -21.5t-26.5 -51.5q0 -15 3 -30t10.5 -27t21 -19.5t34.5 -7.5q11 0 19 0.5t17 3.5t20 8.5t28 15.5q2 12 15 27t30.5 29t37 26t35.5 18zM783 234q-9 0 -19.5 -3t-20 -9t-16.5 -15t-8 -21q0 -3 1 -15t2.5 -25t3 -24.5 t3.5 -14.5q4 0 7 2q29 16 47.5 29t35.5 27q2 4 2 7q0 10 -3 21t-8.5 20t-12 15t-14.5 6z" />
<glyph unicode="&#xe7;" horiz-adv-x="424" d="M6 62q0 17 14.5 40t38 47t54 47t62 41t61.5 29t54 11q11 0 19 -7.5t8 -34.5q0 -42 -22 -68.5t-53 -26.5q6 6 6 12q0 22 -22.5 37t-48.5 15q-16 0 -31.5 -4t-28 -10.5t-20 -14.5t-7.5 -16q0 -20 16 -39.5t39 -35.5t49.5 -25.5t47.5 -9.5q55 0 104 16.5t86.5 37t61.5 37 t30 16.5q2 0 5 -4t3 -7t-8 -8.5t-18 -10.5l-22 -11l-14 -7l-68 -37q-38 -21 -82 -40t-91.5 -32t-95.5 -13q-23 0 -45.5 2.5t-40.5 11t-29.5 23.5t-11.5 39zM231 10q-2 -6 -3 -10.5t-1 -2.5q-2 -8 -3 -15t3 -7q40 0 59 -23q13 -16 13 -36q0 -10 -3 -21q-5 -15 -27.5 -32.5 t-53 -32.5t-64 -25t-60.5 -10q-21 0 -29.5 2t-6.5 4q0 2 7.5 5t18.5 5q51 0 78 17.5t38 55.5q2 8 -2.5 18t-30.5 14q-16 0 -29 -3t-19 -5q0 6 2 10l10 28l10 33q2 11 4 20.5t2 17.5z" />
<glyph unicode="&#xe8;" horiz-adv-x="316" d="M156 137q2 -5 11 -21t24.5 -32.5t38 -29.5t50.5 -13q25 0 56 3.5t65 14.5t69.5 33t69.5 58q2 0 8 1.5t11 1.5q9 0 9 -6q-36 -43 -89 -73t-107.5 -49t-104 -28t-78.5 -9q-35 0 -63 1.5t-50 12.5t-38 35.5t-25 71.5q-1 7 -1 13q0 18 10 33q13 21 37.5 37.5t57 29.5 t65.5 21.5t62.5 12.5t48.5 4q34 0 57 -10q23 -9 23 -25q0 -12 -14 -24q-13 -11 -33 -20.5t-44.5 -17t-48.5 -13t-44.5 -9t-32.5 -4.5zM207 234q-9 0 -19.5 -3t-20 -9t-16.5 -15t-8 -21q-1 -7 1 -16t5 -16q9 1 24.5 5.5t31.5 10.5t27.5 13.5t11.5 13.5q0 20 -10.5 28.5 t-26.5 8.5zM89 411h-5q-2 0 -2 2q0 4 10.5 19.5t25 32.5t31 31.5t28.5 16.5q12 -1 33 -19.5t42 -43.5t38.5 -50.5t24.5 -39.5q0 -2 -10 -12l-22 -21l-22 -20q-9 -8 -10 -8l-2.5 3t-11 12.5t-21.5 21.5q-20 20 -42.5 37t-43.5 28t-35 11q-2 0 -3 -0.5t-3 -0.5z" />
<glyph unicode="&#xe9;" horiz-adv-x="316" d="M156 137q2 -5 11 -21t24.5 -32.5t38 -29.5t50.5 -13q25 0 56 3.5t65 14.5t69.5 33t69.5 58q2 0 8 1.5t11 1.5q9 0 9 -6q-36 -43 -89 -73t-107.5 -49t-104 -28t-78.5 -9q-35 0 -63 1.5t-50 12.5t-38 35.5t-25 71.5q-1 7 -1 13q0 18 10 33q13 21 37.5 37.5t57 29.5 t65.5 21.5t62.5 12.5t48.5 4q34 0 57 -10q23 -9 23 -25q0 -12 -14 -24q-13 -11 -33 -20.5t-44.5 -17t-48.5 -13t-44.5 -9t-32.5 -4.5zM207 234q-9 0 -19.5 -3t-20 -9t-16.5 -15q-8 -11 -8 -26q0 -5 1 -11q2 -9 5 -16q9 1 24.5 5.5t31.5 10.5t27.5 13.5t11.5 13.5 q0 20 -10.5 28.5t-26.5 8.5zM435 414q-2 0 -3 0.5t-3 0.5q-14 0 -35 -11t-43.5 -28t-42.5 -36q-13 -13 -21.5 -22.5t-11 -12.5l-2.5 -3q-1 0 -10 8l-22 20l-22 21q-10 10 -10 12q7 14 24.5 39.5t38.5 50.5t42 43.5t33 19.5q12 -2 28.5 -16.5t31 -31.5t25 -32.5t10.5 -19.5 q0 -2 -2 -2h-5z" />
<glyph unicode="&#xea;" horiz-adv-x="316" d="M156 137q2 -5 11 -21t24.5 -32.5t38 -29.5t50.5 -13q25 0 56 3.5t65 14.5t69.5 33t69.5 58q2 0 8 1.5t11 1.5q9 0 9 -6q-36 -43 -89 -73t-107.5 -49t-104 -28t-78.5 -9q-35 0 -63 1.5t-50 12.5t-38 35.5t-25 71.5q-1 7 -1 13q0 18 10 33q13 21 37.5 37.5t57 29.5 t65.5 21.5t62.5 12.5t48.5 4q34 0 57 -10q23 -9 23 -25q0 -12 -14 -24q-13 -11 -33 -20.5t-44.5 -17t-48.5 -13t-44.5 -9t-32.5 -4.5zM207 234q-9 0 -19.5 -3t-20 -9t-16.5 -15t-8 -21q-1 -7 1 -16t5 -16q9 1 24.5 5.5t31.5 10.5t27.5 13.5t11.5 13.5q0 20 -10.5 28.5 t-26.5 8.5zM82 352q13 6 40 23.5t57 40t58 46t45 41.5q14 13 20 13h2q6 -3 12 -8q14 -20 34.5 -40.5t44.5 -39.5t49.5 -34.5t49.5 -24.5q-6 -9 -21 -19.5t-32.5 -19t-33 -14t-21.5 -6.5q-5 0 -21 9.5t-35 24.5t-37 34t-28 38q-7 9 -11 12t-18 -8l-32 -23l-34 -25 q-18 -12 -32 -20.5t-20 -9.5q-14 -2 -24 -2.5t-12 12.5z" />
<glyph unicode="&#xeb;" horiz-adv-x="316" d="M156 137q2 -5 11 -21t24.5 -32.5t38 -29.5t50.5 -13q25 0 56 3.5t65 14.5t69.5 33t69.5 58q2 0 8 1.5t11 1.5q9 0 9 -6q-36 -43 -89 -73t-107.5 -49t-104 -28t-78.5 -9q-35 0 -63 1.5t-50 12.5t-38 35.5t-25 71.5q-1 7 -1 13q0 18 10 33q13 21 37.5 37.5t57 29.5 t65.5 21.5t62.5 12.5t48.5 4q34 0 57 -10q23 -9 23 -25q0 -12 -14 -24q-13 -11 -33 -20.5t-44.5 -17t-48.5 -13t-44.5 -9t-32.5 -4.5zM207 234q-9 0 -19.5 -3t-20 -9t-16.5 -15t-8 -21q-1 -7 1 -16t5 -16q9 1 24.5 5.5t31.5 10.5t27.5 13.5t11.5 13.5q0 20 -10.5 28.5 t-26.5 8.5zM218 466q29 -1 36 -8q3 -4 3 -14q0 -8 -3 -21q-2 -6 -6 -20.5t-13.5 -28t-25.5 -22.5q-12 -7 -30 -7q-5 0 -12 1q-20 2 -29 7t-12 13q-2 4 -2 9q0 3 1 7q2 8 4 18q1 6 8 14l13 16q7 8 12 14.5t2 8.5q10 6 23.5 10t30.5 3zM480 469h8q3 0 5 -2q1 -2 4 -5.5t5 -8 t2 -10t-4 -9.5q-5 -9 -4 -11.5t-1 -12.5q-2 -7 -6 -17.5t-14 -20.5t-26 -17.5t-41 -7.5q-20 0 -31 14q-6 8 -6 18q0 8 3 16q1 12 9.5 24t22.5 22.5t32.5 18t41.5 9.5z" />
<glyph unicode="&#xec;" horiz-adv-x="304" d="M111 -5q-6 0 -16.5 3t-20.5 10t-17.5 18.5t-7.5 27.5q0 58 25 103.5t72 98.5q9 6 25 9.5t33 4t31 -0.5t20 -3q2 -6 -0.5 -10.5t-7 -8.5t-9.5 -7.5t-8 -6.5q-22 -34 -27.5 -69t-5.5 -59q0 -14 7.5 -25t19 -18.5t24 -11.5t22.5 -4q23 0 58.5 12t71 29t64.5 36.5t40 33.5 q7 7 8.5 7.5t6.5 0.5q4 0 4 -2q-1 -13 -20.5 -30t-52.5 -35.5t-75 -37t-87.5 -33t-91.5 -23.5t-85 -9zM76 491h-5q-1 0 -1 1t2 4q4 7 14.5 22.5t24 31t28 28.5t26.5 15q12 -1 33 -19.5t42 -43.5t38.5 -50.5t24.5 -39.5q0 -2 -10 -12l-22 -21l-22 -20q-9 -8 -10 -8t-3 3.5 t-12 14l-24 24.5q-23 21 -46.5 37t-44.5 26q-17 7 -29 7h-4z" />
<glyph unicode="&#xed;" horiz-adv-x="304" d="M111 -5q-6 0 -16.5 3t-20.5 10t-17.5 18.5t-7.5 27.5q0 58 25 103.5t72 98.5q9 6 25 9.5t33 4t31 -0.5t20 -3q2 -6 -0.5 -10.5t-7 -8.5t-9.5 -7.5t-8 -6.5q-22 -34 -27.5 -69t-5.5 -59q0 -14 7.5 -25t19 -18.5t24 -11.5t22.5 -4q23 0 58.5 12t71 29t64.5 36.5t40 33.5 q7 7 8.5 7.5t6.5 0.5q4 0 4 -2q-1 -13 -20.5 -30t-52.5 -35.5t-75 -37t-87.5 -33t-91.5 -23.5t-85 -9zM434 463q-2 0 -3 0.5t-3 0.5q-14 0 -35 -11t-43.5 -28t-43.5 -37q-12 -12 -20.5 -21.5t-11 -12.5l-2.5 -3q-1 0 -10 8l-22 20l-22 21q-10 10 -10 12q7 14 24.5 39.5 t38.5 50.5t42 43.5t33 19.5q12 -2 28.5 -16.5t31 -31.5t25 -32.5t10.5 -19.5q0 -2 -3 -2h-4z" />
<glyph unicode="&#xee;" horiz-adv-x="304" d="M111 -5q-6 0 -16.5 3t-20.5 10t-17.5 18.5t-7.5 27.5q0 58 25 103.5t72 98.5q9 6 25 9.5t33 4t31 -0.5t20 -3q2 -6 -0.5 -10.5t-7 -8.5t-9.5 -7.5t-8 -6.5q-22 -34 -27.5 -69t-5.5 -59q0 -14 7.5 -25t19 -18.5t24 -11.5t22.5 -4q23 0 58.5 12t71 29t64.5 36.5t40 33.5 q7 7 8.5 7.5t6.5 0.5q4 0 4 -2q-1 -13 -20.5 -30t-52.5 -35.5t-75 -37t-87.5 -33t-91.5 -23.5t-85 -9zM86 391q13 6 40 23.5t57 40t58 46t45 41.5q14 13 20 13q1 0 2 -1q6 -2 12 -7q14 -20 34.5 -40.5t44.5 -39.5t49.5 -34.5t49.5 -24.5q-6 -9 -21 -19.5t-32.5 -19t-33 -14 t-21.5 -6.5q-5 0 -21 9.5t-35 24.5t-37 34t-28 38q-7 9 -11 12t-18 -8l-32 -23l-34 -25q-18 -12 -32 -20.5t-20 -9.5q-14 -2 -24 -2.5t-12 12.5z" />
<glyph unicode="&#xef;" horiz-adv-x="304" d="M111 -5q-6 0 -16.5 3t-20.5 10t-17.5 18.5t-7.5 27.5q0 58 25 103.5t72 98.5q9 6 25 9.5t33 4t31 -0.5t20 -3q2 -6 -0.5 -10.5t-7 -8.5t-9.5 -7.5t-8 -6.5q-22 -34 -27.5 -69t-5.5 -59q0 -14 7.5 -25t19 -18.5t24 -11.5t22.5 -4q23 0 58.5 12t71 29t64.5 36.5t40 33.5 q7 7 8.5 7.5t6.5 0.5q4 0 4 -2q-1 -13 -20.5 -30t-52.5 -35.5t-75 -37t-87.5 -33t-91.5 -23.5t-85 -9zM162 483q29 -1 36 -9q3 -3 3 -13q0 -8 -3 -21q-2 -6 -6 -20.5t-13.5 -28t-25.5 -22.5q-12 -7 -30 -7q-5 0 -12 1q-20 2 -29 7t-12 12q-2 5 -2 10q0 3 1 6q2 9 4 19 q1 6 8 15l13 16q7 7 12 13.5t2 8.5q10 6 23.5 10t30.5 3zM424 486h8q3 0 5 -2q1 -2 4 -5.5t5 -8t2 -10t-4 -9.5q-5 -9 -4 -11.5t-1 -12.5q-2 -7 -6 -17.5t-14 -20.5t-26 -17.5t-41 -7.5q-20 0 -31 14q-6 8 -6 18q0 8 3 16q1 12 9.5 24t22.5 22.5t32.5 18t41.5 9.5z" />
<glyph unicode="&#xf0;" horiz-adv-x="543" d="M367 732q-16 -12 -26 -12q-6 0 -9.5 3.5t-3.5 9.5q0 10 12 26q28 37 58.5 72t64.5 67q-12 88 -45 166q2 5 8 13t13.5 16t15.5 14t13 6q20 -38 34 -79t23 -83l43 31q3 2 14 8l26 15l24 15l16 8q15 10 24 10q10 -1 10 -12q0 -6 -3 -13q-4 -10 -13 -20l-64 -64l-65 -61 q4 -45 4 -89q0 -49 -5 -98q-10 -93 -30 -181q-17 -75 -41.5 -150.5t-63.5 -141.5q-21 -36 -49.5 -78t-63.5 -79.5t-75.5 -64.5t-86.5 -34q-5 -1 -10 -1q-20 0 -32 13q-16 17 -24.5 42t-11 51.5t-2.5 42.5q0 12 1 26t2 25q10 103 52.5 201.5t111.5 175.5q14 15 30.5 30t35 25 t38.5 12h6q17 0 36 -9q14 -7 23.5 -18.5t15.5 -25.5q5 -10 9 -26.5t6 -27.5q3 -14 5.5 -28.5t4.5 -28.5q23 90 37 186q11 75 11 149q0 22 -1 43q-5 -5 -11 -9.5t-11 -9.5q-19 -16 -40 -29.5t-41 -28.5zM261 60q19 14 38.5 47t37 72t31.5 76t21 59l4 13q-12 -8 -13 -6 q-4 21 -8.5 51.5t-13.5 60.5t-23.5 54.5t-38.5 33.5q-13 5 -22 5.5t-23 1.5l-19 -6q-14 -20 -24 -42l-20 -44q-15 -37 -29.5 -86.5t-20.5 -101.5q-3 -24 -3 -47q0 -28 4 -54q7 -49 34 -83q11 -8 20.5 -11t23.5 -5z" />
<glyph unicode="&#xf1;" horiz-adv-x="395" d="M425 -29q-44 0 -71 5t-42.5 14.5t-22.5 24t-10 32.5q-3 15 -3.5 29.5t-1 25t-2 17t-5.5 6.5t-11 -2.5t-19.5 -11.5t-32.5 -25t-49 -43q-20 -23 -46.5 -30t-48.5 -7q-26 0 -34 1.5t-8 13.5q0 7 2 19t3.5 27t3 32t1.5 33q0 21 -3 35.5t-1.5 26t11 21t35.5 19.5q17 5 33.5 9 t31.5 6q18 3 31 1.5t15 -8.5q4 -10 4.5 -32t1.5 -44.5t3.5 -40t10.5 -17.5q4 0 9.5 1t13.5 8q19 16 41.5 30.5t45 26t43 18.5t36.5 7q25 0 34 -27t11 -100q1 -31 13.5 -46t23.5 -15q23 0 64.5 18.5t86.5 52.5q3 2 16 12l27 22l25 20q11 9 12 9t6.5 -1.5t5.5 -4.5l-85 -69 q-37 -31 -70.5 -53t-66 -34t-68.5 -12zM241 435q-10 0 -18 -8t-15.5 -19.5t-15.5 -22.5t-19 -17q-5 0 -12.5 2t-7.5 5q0 1 8.5 12t22 26t30.5 32l32 31q16 15 29.5 24.5t20.5 9.5q9 -1 33 -14l51 -27l49 -27q23 -12 29 -12h1q19 7 26.5 17t11 19.5t7 16t14.5 6.5q4 0 4 -5 q0 -4 -4 -11t-5 -11q0 -6 -12.5 -24.5t-28.5 -39t-31 -36.5t-20 -16q-21 0 -49 13.5t-54 29.5l-48 30q-22 14 -29 16z" />
<glyph unicode="&#xf2;" horiz-adv-x="335" d="M425 47q-5 0 -19 0.5t-32 3.5q-27 -15 -56.5 -26t-57 -18t-51 -10.5t-37.5 -3.5q-8 0 -21.5 -1t-29.5 -1q-19 0 -40.5 3.5t-42 12t-37.5 21.5t-28 32q-7 11 -7 24q0 23 24 43t60.5 36t78.5 27t78 16q3 23 16.5 40.5t32 29.5t39.5 18t40 6q24 0 46.5 -10t40 -28t28.5 -42 t11 -51t-13 -50t-35 -41q21 -10 50 -10q21 0 43 1t43 6t41.5 15.5t40.5 30.5q7 7 9.5 15t5.5 8q1 0 3 -1q3 -2 3 -6q0 -2 -1 -5q-2 -7 -7 -14.5t-11.5 -15t-10.5 -10.5q-10 -8 -25 -16t-38 -14.5t-56 -10.5t-78 -4zM339 58q-23 6 -46.5 15.5t-42.5 25t-31.5 37.5t-12.5 52 q-14 -2 -28.5 -6t-26 -11t-18.5 -16.5t-7 -22.5q0 -22 12 -41.5t31 -34t42.5 -23t46.5 -8.5q20 0 41 9t40 24zM295 258q6 -44 27 -87t55 -71q15 23 15 44q0 27 -11 52t-26 43.5t-29.5 29.5t-21.5 11q-11 0 -11 -10q0 -4 2 -12zM120 495h-4q-3 0 -3 2q0 4 10.5 19.5t25 32.5 t31 31.5t28.5 16.5q12 -1 33 -19.5t42 -43.5t38.5 -50.5t24.5 -39.5q0 -2 -10 -12l-22 -21l-22 -20q-9 -8 -10 -8l-2.5 3t-11 12.5t-20.5 21.5q-21 20 -43.5 37t-43.5 28t-35 11q-2 0 -3 -0.5t-3 -0.5z" />
<glyph unicode="&#xf3;" horiz-adv-x="335" d="M425 47q-5 0 -19 0.5t-32 3.5q-27 -15 -56.5 -26t-57 -18t-51 -10.5t-37.5 -3.5q-8 0 -21.5 -1t-29.5 -1q-19 0 -40.5 3.5t-42 12t-37.5 21.5t-28 32q-7 11 -7 24q0 23 24 43t60.5 36t78.5 27t78 16q3 23 16.5 40.5t32 29.5t39.5 18t40 6q24 0 46.5 -10t40 -28t28.5 -42 t11 -51t-13 -50t-35 -41q21 -10 50 -10q21 0 43 1t43 6t41.5 15.5t40.5 30.5q7 7 9.5 15t5.5 8q1 0 3 -1q3 -2 3 -6q0 -2 -1 -5q-2 -7 -7 -14.5t-11.5 -15t-10.5 -10.5q-10 -8 -25 -16t-38 -14.5t-56 -10.5t-78 -4zM339 58q-23 6 -46.5 15.5t-42.5 25t-31.5 37.5t-12.5 52 q-14 -2 -28.5 -6t-26 -11t-18.5 -16.5t-7 -22.5q0 -22 12 -41.5t31 -34t42.5 -23t46.5 -8.5q20 0 41 9t40 24zM295 258q6 -44 27 -87t55 -71q15 23 15 44q0 27 -11 52t-26 43.5t-29.5 29.5t-21.5 11q-11 0 -11 -10q0 -4 2 -12zM463 500q-2 0 -3 0.5t-3 0.5q-14 0 -35 -11 t-43.5 -28t-42.5 -36q-13 -13 -21.5 -22.5t-11 -12.5l-2.5 -3q-1 0 -10 8l-22 20l-22 21q-10 10 -10 12q7 14 24.5 39.5t38.5 50.5t42 43.5t33 19.5q12 -2 28.5 -16.5t31 -31.5t25 -32.5t10.5 -19.5q0 -2 -2 -2h-5z" />
<glyph unicode="&#xf4;" horiz-adv-x="335" d="M425 47q-5 0 -19 0.5t-32 3.5q-27 -15 -56.5 -26t-57 -18t-51 -10.5t-37.5 -3.5q-8 0 -21.5 -1t-29.5 -1q-19 0 -40.5 3.5t-42 12t-37.5 21.5t-28 32q-7 11 -7 24q0 23 24 43t60.5 36t78.5 27t78 16q3 23 16.5 40.5t32 29.5t39.5 18t40 6q24 0 46.5 -10t40 -28t28.5 -42 t11 -51t-13 -50t-35 -41q21 -10 50 -10q21 0 43 1t43 6t41.5 15.5t40.5 30.5q7 7 9.5 15t5.5 8q1 0 3 -1q3 -2 3 -6q0 -2 -1 -5q-2 -7 -7 -14.5t-11.5 -15t-10.5 -10.5q-10 -8 -25 -16t-38 -14.5t-56 -10.5t-78 -4zM339 58q-23 6 -46.5 15.5t-42.5 25t-31.5 37.5t-12.5 52 q-14 -2 -28.5 -6t-26 -11t-18.5 -16.5t-7 -22.5q0 -22 12 -41.5t31 -34t42.5 -23t46.5 -8.5q20 0 41 9t40 24zM295 258q6 -44 27 -87t55 -71q15 23 15 44q0 27 -11 52t-26 43.5t-29.5 29.5t-21.5 11q-11 0 -11 -10q0 -4 2 -12zM101 408q13 6 40 23.5t57 40t58 46t45 41.5 q14 13 20 13h2q6 -3 12 -8q14 -20 34.5 -40.5t44.5 -39.5t49.5 -34.5t49.5 -24.5q-6 -9 -21 -19.5t-32.5 -19t-33 -14t-21.5 -6.5q-5 0 -21 9.5t-35 24.5t-37 34t-28 38q-7 9 -11 12t-18 -8l-31 -23l-36 -25q-17 -12 -31 -20.5t-20 -9.5q-14 -2 -24 -2.5t-12 12.5z" />
<glyph unicode="&#xf5;" horiz-adv-x="335" d="M425 47q-5 0 -19 0.5t-32 3.5q-27 -15 -56.5 -26t-57 -18t-51 -10.5t-37.5 -3.5q-8 0 -21.5 -1t-29.5 -1q-19 0 -40.5 3.5t-42 12t-37.5 21.5t-28 32q-7 11 -7 24q0 23 24 43t60.5 36t78.5 27t78 16q3 23 16.5 40.5t32 29.5t39.5 18t40 6q24 0 46.5 -10t40 -28t28.5 -42 t11 -51t-13 -50t-35 -41q21 -10 50 -10q21 0 43 1t43 6t41.5 15.5t40.5 30.5q7 7 9.5 15t5.5 8q1 0 3 -1q3 -2 3 -6q0 -2 -1 -5q-2 -7 -7 -14.5t-11.5 -15t-10.5 -10.5q-10 -8 -25 -16t-38 -14.5t-56 -10.5t-78 -4zM339 58q-23 6 -46.5 15.5t-42.5 25t-31.5 37.5t-12.5 52 q-14 -2 -28.5 -6t-26 -11t-18.5 -16.5t-7 -22.5q0 -22 12 -41.5t31 -34t42.5 -23t46.5 -8.5q20 0 41 9t40 24zM295 258q6 -44 27 -87t55 -71q15 23 15 44q0 27 -11 52t-26 43.5t-29.5 29.5t-21.5 11q-11 0 -11 -10q0 -4 2 -12zM232 468q-10 0 -18 -8t-15.5 -19.5 t-15.5 -22.5t-19 -17q-5 0 -12.5 2t-7.5 5q0 1 8.5 12t22 26t30.5 32l33 32q15 14 28.5 23.5t20.5 9.5q9 -1 33 -13l50 -28l50 -27q23 -12 29 -12h1q19 7 26.5 17t11 19.5t7 16t14.5 6.5q4 0 4 -5q0 -4 -4 -11t-5 -11q0 -6 -12.5 -24.5t-28.5 -39t-31 -36.5t-20 -16 q-21 0 -49 13.5t-55 29.5l-48 30q-21 14 -28 16z" />
<glyph unicode="&#xf6;" horiz-adv-x="335" d="M425 47q-5 0 -19 0.5t-32 3.5q-27 -15 -56.5 -26t-57 -18t-51 -10.5t-37.5 -3.5q-8 0 -21.5 -1t-29.5 -1q-19 0 -40.5 3.5t-42 12t-37.5 21.5t-28 32q-7 11 -7 24q0 23 24 43t60.5 36t78.5 27t78 16q3 23 16.5 40.5t32 29.5t39.5 18t40 6q24 0 46.5 -10t40 -28t28.5 -42 t11 -51t-13 -50t-35 -41q21 -10 50 -10q21 0 43 1t43 6t41.5 15.5t40.5 30.5q7 7 9.5 15t5.5 8q1 0 3 -1q3 -2 3 -6q0 -2 -1 -5q-2 -7 -7 -14.5t-11.5 -15t-10.5 -10.5q-10 -8 -25 -16t-38 -14.5t-56 -10.5t-78 -4zM339 58q-23 6 -46.5 15.5t-42.5 25t-31.5 37.5t-12.5 52 q-14 -2 -28.5 -6t-26 -11t-18.5 -16.5t-7 -22.5q0 -22 12 -41.5t31 -34t42.5 -23t46.5 -8.5q20 0 41 9t40 24zM295 258q6 -44 27 -87t55 -71q15 23 15 44q0 27 -11 52t-26 43.5t-29.5 29.5t-21.5 11q-11 0 -11 -10q0 -4 2 -12zM237 534q29 -1 35 -8q4 -4 4 -14q0 -8 -3 -21 q-2 -6 -6 -20.5t-13.5 -28t-25.5 -22.5q-12 -7 -30 -7q-6 0 -12 1q-20 2 -29 7t-12 13q-2 4 -2 9q0 3 1 7q2 8 4 18q1 6 8 14l14 16l11 14.5t2 8.5q10 6 23.5 10t30.5 3zM499 537h8q3 0 5 -2q1 -2 4 -5.5t5 -8t2 -10t-4 -9.5q-5 -9 -4 -11.5t-1 -12.5q-2 -7 -6 -17.5 t-14 -20.5t-26 -17.5t-41 -7.5q-20 0 -31 14q-6 8 -6 18q0 8 3 16q1 12 9.5 24t22.5 22.5t32.5 18t41.5 9.5z" />
<glyph unicode="&#xf7;" horiz-adv-x="307" d="M10 166q-2 4 -2 9q0 8 6 20q9 18 23 35.5t29 31.5t23 17q13 -17 38 -24t57 -9h19q23 0 47 2l71 8q35 3 67 5q13 1 24 1q18 0 32 -2q-3 -5 -4 -14.5t-4 -19.5t-9.5 -18.5t-20.5 -11.5q-82 -18 -141.5 -24t-104.5 -6q-10 -1 -18 -1q-35 0 -64 2q-14 1 -27 1q-21 0 -41 -2z M217 217q1 -1 0 -7.5t-2 -14t0.5 -13t9.5 -4.5q-3 -12 -10 -22t-5 -20q-2 -6 -1 -15.5t-4 -18t-21 -14.5q-13 -5 -41 -5h-10t-11 4t-10.5 11t-5.5 16q-1 3 -1 6q0 7 3 15q4 11 15.5 26t27 28t33.5 21q14 7 27 7h6zM236 388q1 -1 0 -7.5t-2 -14t0.5 -13t9.5 -4.5 q-3 -12 -10 -22t-5 -20q-2 -6 -1 -15.5t-4 -18t-20 -14.5q-14 -5 -42 -5h-10t-11 4t-10.5 11t-6.5 17v5q0 7 3 15q4 11 15.5 26t27 28t32.5 22q15 6 28 6h6z" />
<glyph unicode="&#xf8;" horiz-adv-x="612" d="M428 423q5 11 15 21l19 19l5 5l9 7q5 4 8 5l2 1q2 0 2 -2q-14 -72 -26 -142.5t-32 -141.5q-24 -86 -54 -170l-62 -169q-3 -5 -12 -15t-19 -20t-19 -17q-6 -4 -9 -4h-1l25 142q12 71 32 141q24 87 55 171zM481 47q-5 0 -19 0.5t-32 3.5q-27 -15 -56.5 -26t-57 -18 t-51 -10.5t-37.5 -3.5q-8 0 -21.5 -1t-29.5 -1q-19 0 -40.5 3.5t-42 12t-37.5 21.5t-28 32q-7 11 -7 24q0 23 24 43t60.5 36t78.5 27t78 16q3 23 16.5 40.5t32 29.5t39.5 18t40 6q24 0 46.5 -10t40 -28t28.5 -42t11 -51t-13 -50t-35 -41q21 -10 50 -10q21 0 43 1t43 6 t41.5 15.5t40.5 30.5q7 7 9.5 15t5.5 8q1 0 3 -1q3 -2 3 -6q0 -2 -1 -5q-2 -7 -7 -14.5t-11.5 -15t-10.5 -10.5q-10 -8 -25 -16t-38 -14.5t-56 -10.5t-78 -4zM395 58q-23 6 -46.5 15.5t-42.5 25t-31.5 37.5t-12.5 52q-14 -2 -28.5 -6t-26 -11t-18.5 -16.5t-7 -22.5 q0 -22 12 -41.5t31 -34t42.5 -23t46.5 -8.5q20 0 41 9t40 24zM351 258q6 -44 27 -87t55 -71q15 23 15 44q0 27 -11 52t-26 43.5t-29.5 29.5t-21.5 11q-11 0 -11 -10q0 -4 2 -12z" />
<glyph unicode="&#xf9;" horiz-adv-x="447" d="M24 76q0 6 1.5 16.5t4.5 23t8 26t13 24.5q8 8 23 15.5t33 13.5t38 11.5t38 8.5q6 1 13.5 1.5t13 0t7 -4t-3.5 -11.5q-10 -15 -19 -37.5t-13 -43.5q-2 -10 -2 -19.5t2 -17.5q4 -16 21 -19h6q14 0 34 8q23 10 49 27t54 39l55 44q17 14 25 18t16 4q9 -3 11 -12t2 -20 t-0.5 -24t2.5 -24q7 -35 20 -47t40 -12q28 0 50.5 6t43.5 17.5t43.5 28t49.5 38.5q4 1 8 -7q2 -2 2 -4q0 -4 -4 -6q-20 -19 -53.5 -43t-77 -45.5t-94.5 -35.5q-49 -14 -100 -14h-7q-43 2 -55 47q-5 11 -4.5 20.5t-13.5 16.5q-2 0 -17 -7l-37 -17l-49 -24 q-27 -12 -53.5 -22.5t-49.5 -17.5t-38 -7q-17 0 -25.5 9t-11.5 22q-2 10 -2 21v7q1 15 3 28zM152 433h-4q-3 0 -3 2q0 4 10.5 19.5t25 32.5t31 31.5t28.5 16.5q12 -1 33 -19.5t42 -43.5t38.5 -50.5t24.5 -39.5q0 -2 -10 -12l-22 -21l-22 -20q-9 -8 -10 -8l-2.5 3t-11 12.5 t-20.5 21.5q-21 20 -43.5 37t-43.5 28t-35 11q-2 0 -3 -0.5t-3 -0.5z" />
<glyph unicode="&#xfa;" horiz-adv-x="447" d="M24 76q0 6 1.5 16.5t4.5 23t8 26t13 24.5q8 8 23 15.5t33 13.5t38 11.5t38 8.5q6 1 13.5 1.5t13 0t7 -4t-3.5 -11.5q-10 -15 -19 -37.5t-13 -43.5q-2 -10 -2 -19.5t2 -17.5q4 -16 21 -19h6q14 0 34 8q23 10 49 27t54 39l55 44q17 14 25 18t16 4q9 -3 11 -12t2 -20 t-0.5 -24t2.5 -24q7 -35 20 -47t40 -12q28 0 50.5 6t43.5 17.5t43.5 28t49.5 38.5q4 1 8 -7q2 -2 2 -4q0 -4 -4 -6q-20 -19 -53.5 -43t-77 -45.5t-94.5 -35.5q-49 -14 -100 -14h-7q-43 2 -55 47q-5 11 -4.5 20.5t-13.5 16.5q-2 0 -17 -7l-37 -17l-49 -24 q-27 -12 -53.5 -22.5t-49.5 -17.5t-38 -7q-17 0 -25.5 9t-11.5 22q-2 10 -2 21v7q1 15 3 28zM519 427q-2 0 -3 0.5t-3 0.5q-14 0 -35 -11t-43.5 -28t-42.5 -37q-13 -12 -21.5 -21.5t-11 -12.5l-2.5 -3q-1 0 -10 8l-22 20l-22 21q-10 10 -10 12q7 14 24.5 39.5t38.5 50.5 t42 43.5t33 19.5q12 -2 28.5 -16.5t31 -31.5t25 -32.5t10.5 -19.5q0 -2 -2 -2h-5z" />
<glyph unicode="&#xfb;" horiz-adv-x="447" d="M24 76q0 6 1.5 16.5t4.5 23t8 26t13 24.5q8 8 23 15.5t33 13.5t38 11.5t38 8.5q6 1 13.5 1.5t13 0t7 -4t-3.5 -11.5q-10 -15 -19 -37.5t-13 -43.5q-2 -10 -2 -19.5t2 -17.5q4 -16 21 -19h6q14 0 34 8q23 10 49 27t54 39l55 44q17 14 25 18t16 4q9 -3 11 -12t2 -20 t-0.5 -24t2.5 -24q7 -35 20 -47t40 -12q28 0 50.5 6t43.5 17.5t43.5 28t49.5 38.5q4 1 8 -7q2 -2 2 -4q0 -4 -4 -6q-20 -19 -53.5 -43t-77 -45.5t-94.5 -35.5q-49 -14 -100 -14h-7q-43 2 -55 47q-5 11 -4.5 20.5t-13.5 16.5q-2 0 -17 -7l-37 -17l-49 -24 q-27 -12 -53.5 -22.5t-49.5 -17.5t-38 -7q-17 0 -25.5 9t-11.5 22q-2 10 -2 21v7q1 15 3 28zM164 356q13 6 40 23.5t57 40t58 46t45 41.5q14 13 20 13h2q6 -3 12 -8q14 -20 34.5 -40.5t44.5 -39.5t49.5 -34.5t49.5 -24.5q-6 -9 -21 -19.5t-32.5 -19t-33 -14t-21.5 -6.5 q-5 0 -21 9.5t-35 24.5t-37 34t-28 38q-7 9 -11 12t-18 -8l-32 -23l-34 -25q-18 -12 -32 -20.5t-20 -9.5q-14 -2 -24 -2.5t-12 12.5z" />
<glyph unicode="&#xfc;" horiz-adv-x="447" d="M24 76q0 6 1.5 16.5t4.5 23t8 26t13 24.5q8 8 23 15.5t33 13.5t38 11.5t38 8.5q6 1 13.5 1.5t13 0t7 -4t-3.5 -11.5q-10 -15 -19 -37.5t-13 -43.5q-2 -10 -2 -19.5t2 -17.5q4 -16 21 -19h6q14 0 34 8q23 10 49 27t54 39l55 44q17 14 25 18t16 4q9 -3 11 -12t2 -20 t-0.5 -24t2.5 -24q7 -35 20 -47t40 -12q28 0 50.5 6t43.5 17.5t43.5 28t49.5 38.5q4 1 8 -7q2 -2 2 -4q0 -4 -4 -6q-20 -19 -53.5 -43t-77 -45.5t-94.5 -35.5q-49 -14 -100 -14h-7q-43 2 -55 47q-5 11 -4.5 20.5t-13.5 16.5q-2 0 -17 -7l-37 -17l-49 -24 q-27 -12 -53.5 -22.5t-49.5 -17.5t-38 -7q-17 0 -25.5 9t-11.5 22q-2 10 -2 21v7q1 15 3 28zM253 476q29 -1 35 -8q4 -4 4 -14q0 -8 -3 -21q-2 -6 -6 -20.5t-13.5 -28t-25.5 -22.5q-12 -7 -30 -7q-6 0 -12 1q-20 2 -29 7t-12 13q-2 4 -2 9q0 3 1 7q2 8 4 18q1 6 8 14l14 16 l11 14.5t2 8.5q10 6 23.5 10t30.5 3zM515 479h8q3 0 5 -2q1 -2 4 -5.5t5 -8t2 -10t-4 -9.5q-5 -9 -4 -11.5t-1 -12.5q-2 -7 -6 -17.5t-14 -20.5t-26 -17.5t-41 -7.5q-20 0 -31 14q-6 8 -6 18q0 8 3 16q1 12 9.5 24t22.5 22.5t32.5 18t41.5 9.5z" />
<glyph unicode="&#xfd;" horiz-adv-x="317" d="M932 -223l-132 31q-71 17 -146 32t-152 26.5t-152 17.5q-31 -87 -56.5 -167.5t-52 -150t-56 -126.5t-68.5 -97.5t-90.5 -62.5t-120.5 -22q-41 0 -85.5 26t-87 67.5t-81.5 94t-68 106.5t-46 104t-17 87q0 22 20.5 40t52.5 32.5t70.5 24.5t74 17.5t64.5 12t41 6.5 q77 14 172.5 20t201.5 6h35q18 0 35 -1q6 56 9 104.5t3 84.5q0 5 -1 9.5t-2 8.5q-2 0 -9 -6l-17 -14l-17 -14q-8 -7 -12 -10q-40 -29 -87.5 -42.5t-110.5 -13.5q-24 0 -35 13t-15 31q-4 16 -4 34l0.5 14.5t0.5 23.5q0 25 10 47t42 35q13 5 30.5 9.5t35.5 8t33.5 5.5t25.5 2 q6 0 7.5 -0.5t1.5 -4.5q0 -8 -7 -24l-14 -34q-9 -19 -15.5 -39t-6.5 -37q0 -18 5.5 -29t32.5 -11q16 0 30.5 9t27.5 22t24 28l21 26q3 4 9 13.5t10 12.5q8 7 32 14t52.5 13t56 10t43.5 4q2 0 6.5 -1.5t4.5 -3.5t-6 -7.5t-9 -13.5q-37 -72 -66 -141.5t-53 -137.5 q143 -6 273.5 -21.5t245.5 -32.5q10 6 25.5 11.5t30.5 10t26.5 7.5t14.5 3q4 0 7 -5.5t5 -14t3.5 -18t1.5 -16.5q0 -6 -6.5 -14t-15.5 -15t-18.5 -12t-15.5 -5zM13 -642h3q40 0 74 22q34 23 61.5 62.5t49.5 91.5t38.5 111t28 121t18.5 121q-11 1 -22 1h-23q-22 0 -71 -0.5 t-111 -3.5t-130.5 -10t-128.5 -19.5t-105.5 -33t-62.5 -49.5q-6 -11 -6 -28q0 -13 3 -28q8 -38 31 -84t59.5 -94t82 -88t99.5 -65.5t112 -26.5zM471 466q-2 0 -3 0.5t-3 0.5q-14 0 -35 -11t-43.5 -28t-42.5 -36q-13 -13 -21.5 -22.5t-11 -12.5l-2.5 -3q-1 0 -10 8l-22 20 l-22 21q-10 10 -10 12q7 14 24.5 39.5t38.5 50.5t42 43.5t33 19.5q12 -2 28.5 -16.5t31 -31.5t25 -32.5t10.5 -19.5q0 -2 -2 -2h-5z" />
<glyph unicode="&#xfe;" horiz-adv-x="710" d="M254 127l50 161q28 88 51 176q12 43 19.5 81t14.5 80l-3 12q1 27 17.5 50t40 39.5t50 25.5t49.5 9q12 0 11 -13q-2 -15 -10.5 -31t-19.5 -32l-20 -30q-10 -14 -15 -25l-107 -377q34 12 63 20t57.5 13t57.5 7.5t63 2.5q72 -1 104 -16q28 -12 28 -40q0 -4 -1 -9 q-6 -35 -30 -67t-59 -58.5t-79 -48t-90 -37t-91.5 -24.5t-84.5 -10h-8q-6 0 -8 -2l-24 -87q-9 -36 -13 -61q-3 -17 -3 -30v-9q2 -15 9 -23q-2 -9 -14.5 -20t-31.5 -21.5t-42 -20t-45 -16.5t-40.5 -11.5t-28.5 -4.5h-16q7 37 14.5 54.5t16.5 26.5t18.5 16t21.5 22q9 13 21 37 l25 51q12 27 22 53.5t15 43.5q-8 0 -17 2t-17 4q-9 3 -17 7q1 12 9 20.5t18.5 15t21 11.5t17.5 9q6 4 10.5 14t8.5 21.5t6.5 22t4.5 16.5zM376 42q23 0 58 6.5t69.5 20.5t61 36t31.5 54q3 8 3 20t-15 25q-14 12 -51 20q-25 5 -65 5q-20 0 -44 -1q-15 -1 -28.5 -6.5 t-27.5 -13.5l-32 -115q62 19 102 25q15 3 29 3q22 0 41 -6q-11 -14 -28.5 -22.5t-40.5 -15t-52 -11.5l-63 -13v-3q0 -4 4 -6q6 -2 15 -2q5 -1 9 -1l9 1h15z" />
<glyph unicode="&#xff;" horiz-adv-x="317" d="M932 -223l-132 31q-71 17 -146 32t-152 26.5t-152 17.5q-31 -87 -56.5 -167.5t-52 -150t-56 -126.5t-68.5 -97.5t-90.5 -62.5t-120.5 -22q-41 0 -85.5 26t-87 67.5t-81.5 94t-68 106.5t-46 104t-17 87q0 22 20.5 40t52.5 32.5t70.5 24.5t74 17.5t64.5 12t41 6.5 q77 14 172.5 20t201.5 6h35q18 0 35 -1q6 56 9 104.5t3 84.5q0 5 -1 9.5t-2 8.5q-2 0 -9 -6l-17 -14l-17 -14q-8 -7 -12 -10q-40 -29 -87.5 -42.5t-110.5 -13.5q-24 0 -35 13t-15 31q-4 16 -4 34l0.5 14.5t0.5 23.5q0 25 10 47t42 35q13 5 30.5 9.5t35.5 8t33.5 5.5t25.5 2 q6 0 7.5 -0.5t1.5 -4.5q0 -8 -7 -24l-14 -34q-9 -19 -15.5 -39t-6.5 -37q0 -18 5.5 -29t32.5 -11q16 0 30.5 9t27.5 22t24 28l21 26q3 4 9 13.5t10 12.5q8 7 32 14t52.5 13t56 10t43.5 4q2 0 6.5 -1.5t4.5 -3.5t-6 -7.5t-9 -13.5q-37 -72 -66 -141.5t-53 -137.5 q143 -6 273.5 -21.5t245.5 -32.5q10 6 25.5 11.5t30.5 10t26.5 7.5t14.5 3q4 0 7 -5.5t5 -14t3.5 -18t1.5 -16.5q0 -6 -6.5 -14t-15.5 -15t-18.5 -12t-15.5 -5zM13 -642h3q40 0 74 22q34 23 61.5 62.5t49.5 91.5t38.5 111t28 121t18.5 121q-11 1 -22 1h-23q-22 0 -71 -0.5 t-111 -3.5t-130.5 -10t-128.5 -19.5t-105.5 -33t-62.5 -49.5q-6 -11 -6 -28q0 -13 3 -28q8 -38 31 -84t59.5 -94t82 -88t99.5 -65.5t112 -26.5zM195 477q29 -1 35 -9q4 -3 4 -13q0 -8 -3 -21q-2 -6 -6 -20.5t-13.5 -28t-25.5 -22.5q-12 -7 -30 -7q-6 0 -12 1q-20 2 -29 7 t-12 12q-2 5 -2 10q0 3 1 6q2 9 4 19q1 6 8 15l14 16q6 7 11 13.5t2 8.5q10 6 23.5 10t30.5 3zM457 480h8q3 0 5 -2q1 -2 4 -5.5t5 -8t2 -10t-4 -9.5q-5 -9 -4 -11.5t-1 -12.5q-2 -7 -6 -17.5t-14 -20.5t-26 -17.5t-41 -7.5q-20 0 -31 14q-6 8 -6 18q0 8 3 16q1 12 9.5 24 t22.5 22.5t32.5 18t41.5 9.5z" />
<glyph unicode="&#x152;" horiz-adv-x="2766" d="M1826 1117q92 0 178 -12t171 -28q52 29 117.5 48t132 30t128 15.5t105.5 4.5q24 0 59.5 -3.5t68.5 -12.5t56.5 -24.5t23.5 -39.5q0 -19 -19.5 -36t-52.5 -31t-75 -25t-87 -18.5t-89.5 -11.5t-81.5 -4q-62 0 -124 4t-125 12q3 -36 27.5 -71.5t52 -68.5t50 -63t22.5 -57 q0 -19 -19 -35.5t-46.5 -31t-58.5 -26.5l-56 -22q-60 -24 -127 -42t-132 -37.5t-125 -43.5t-105 -59t-72 -84.5t-27 -120.5q0 -12 1 -25.5t3 -27.5q6 -41 32.5 -77.5t66.5 -68t90 -57t102.5 -43.5t104.5 -27.5t96 -9.5q117 0 216 26t171 70.5t112.5 103t40.5 123.5 q0 51 -20 73.5t-57 22.5q-21 0 -46 -6q9 21 35 30.5t55 9.5q45 0 72.5 -12.5t42.5 -32t20 -43.5t5 -47q0 -86 -51.5 -151.5t-144.5 -110t-223 -67.5t-287 -23q-63 0 -136 4.5t-141 24.5q-56 16 -104.5 40.5t-86.5 55t-64.5 67.5t-38.5 78q-55 -52 -122 -94t-140.5 -74 t-150.5 -54.5t-151 -37t-142.5 -21t-125.5 -6.5q-145 0 -255.5 36.5t-185 99.5t-112.5 148t-38 182q0 82 26 163t71 157.5t107 146.5t134 131q-96 -26 -189 -57t-188 -71q-40 -14 -50 -14h-2q-4 0 -4 2.5t5 6.5q9 8 26 19t25 14q118 51 227.5 88t218.5 67q121 89 249 146 t243 69q8 1 18 1h21q34 0 74 -5t74 -19.5t57 -41t23 -69.5q0 -27 -11 -49q90 -21 169.5 -58.5t139 -95.5t93.5 -139t34 -188q0 -41 -6 -78q67 42 143.5 72t145.5 53q15 5 41 11l56 15q30 8 61 18t55.5 22.5t40.5 28.5t16 35q0 30 -21 51l-44 45q-24 23 -44.5 52.5 t-20.5 74.5q0 55 32 96l-251 36q-123 17 -238 17q-102 0 -199 -13.5t-185 -47.5q65 37 139.5 61t154 37.5t160.5 19t160 5.5zM844 969q-98 0 -200 -13.5t-206 -39.5q-58 -47 -106.5 -103.5t-83 -120.5t-53.5 -134t-19 -144q0 -70 18 -137t51 -125.5t79.5 -107.5t104.5 -84.5 t125.5 -55t142.5 -19.5q64 0 135 6t143 19.5t142.5 35.5t133 54.5t114.5 76.5t88 101v8q0 42 15 78.5t41 68.5q2 17 3.5 34t1.5 35q0 110 -27 196t-76 150.5t-117.5 108.5t-150.5 70q-5 -4 -10 -7.5t-10 -6.5q-5 -6 -27.5 -21.5l-47.5 -31.5l-46 -27q-21 -12 -24 -12l-5 -1 q16 16 34.5 28t34.5 24.5t27.5 29t14.5 41.5q-57 14 -117 20t-123 6zM2474 1125q-29 0 -62 -2t-65.5 -8t-61 -18t-47.5 -32q100 -20 199.5 -36t205.5 -16q33 0 43 7.5t10 19.5t-15 27t-43.5 28t-69.5 21.5t-94 8.5zM905 1017q44 0 87 -2.5t86 -7.5q-16 51 -64.5 73 t-112.5 22q-100 -5 -197.5 -38.5t-185.5 -89.5q83 19 182 31t205 12z" />
<glyph unicode="&#x153;" horiz-adv-x="960" d="M646 137q2 -5 11 -21t24.5 -32.5t38 -29.5t50.5 -13q25 0 56 3.5t65 14.5t69.5 33t69.5 58q2 0 8 1.5t11 1.5q9 0 9 -6q-36 -43 -89 -73t-107.5 -49t-104 -28t-78.5 -9q-35 0 -63 1.5t-50 12.5t-38 35.5t-25 71.5q-1 5 -1 14q-2 0 -3 -0.5t-3 -0.5q-15 -42 -53.5 -66.5 t-87.5 -37t-100 -15.5t-91 -3q-19 0 -40.5 2t-42 8.5t-37.5 18.5t-28 31q-7 11 -7 24q0 23 24 43t60 36t78 27t78 16q3 22 16 39.5t32 29.5t40 18.5t41 6.5q24 0 46.5 -10t40 -28t28.5 -42t11 -51q0 -2 -0.5 -5t-0.5 -5q2 0 5 -0.5t5 -0.5q16 25 51.5 44t76 32t79.5 19.5 t63 6.5q34 0 57 -10q23 -9 23 -25q0 -12 -14 -24q-13 -11 -33 -20.5t-44.5 -17t-48.5 -13t-44.5 -9t-32.5 -4.5zM301 25q18 0 37.5 8t37.5 21t32 29.5t21 34.5h-21q-21 0 -42 1q-32 2 -57 9.5t-41.5 21.5t-18.5 38q-14 -2 -28 -6t-25.5 -11t-19 -16.5t-7.5 -22.5 q0 -22 12 -41.5t31 -34t42.5 -23t46.5 -8.5zM697 234q-9 0 -19.5 -3t-20 -9t-16.5 -15t-8 -21q-1 -7 1 -16t5 -16q9 1 24.5 5.5t31.5 10.5t27.5 13.5t11.5 13.5q0 20 -10.5 28.5t-26.5 8.5zM338 258q5 -28 30 -47.5t62 -32.5q-6 22 -18 40.5t-24.5 32t-23.5 21.5t-17 8 q-11 0 -11 -10q0 -4 2 -12z" />
<glyph unicode="&#x178;" horiz-adv-x="1151" d="M-69 -731q0 86 41.5 171.5t115.5 169t176.5 163.5t225.5 155.5t261.5 144.5t284.5 131l136 191q70 95 149 192q-71 -49 -150 -92t-163.5 -75t-171.5 -50.5t-173 -18.5q-78 0 -136.5 19t-102.5 52.5t-75 78.5t-53.5 97t-39 108t-30.5 112l-28 108q-15 52 -33 97 q-6 13 -23 29t-40 29.5t-49.5 22.5t-50.5 9q26 9 54 14t60 5q34 0 67 -6t60.5 -21.5t47.5 -41t27 -64.5q7 -37 21 -95t38.5 -124.5t60.5 -134t86.5 -122t115.5 -88.5t149 -34q88 0 173 24.5t163.5 66t148 96.5t128.5 116q22 23 51 66l62 92q33 48 68 92t69 68 q6 10 20.5 18.5t32.5 13.5t36 8t30 3t26.5 -1.5t25 -5t13.5 -10.5t-8 -19q-36 -40 -82 -81l-90 -81l-85 -73q-40 -35 -65 -62l-135 -168l-61 -76l-62 -83l-62 -83l-58 -81q139 55 279.5 102.5t274.5 85t259 64.5t233 42q43 6 87 9t88 3q68 0 130.5 -7t110 -21t76 -34.5 t28.5 -47.5q0 -16 -4 -34.5t-20.5 -39.5t-48.5 -44.5t-88 -48.5q8 17 13.5 30.5t5.5 27.5q0 46 -25.5 75.5t-67.5 46.5t-95 23.5t-108 6.5q-43 0 -84.5 -3t-77.5 -6.5t-64.5 -7.5t-45.5 -6q-102 -14 -211 -37t-220.5 -54.5t-224 -70.5t-221.5 -84l-35 -53q-15 -24 -26 -44 l-106 -187q-57 -99 -124 -198t-144 -191.5t-166 -167.5t-190 -126.5t-215 -67.5q-7 -1 -13.5 -1.5t-14.5 -0.5q-22 0 -47 4.5t-46 15.5t-35 29t-14 46zM1014 172q-125 -54 -241 -114.5t-217.5 -124.5t-185 -129.5t-143.5 -130.5t-93 -128t-33 -121q0 -21 2.5 -47.5 t10.5 -49.5t24.5 -38.5t44.5 -15.5h10q5 0 11 1q93 16 173.5 65.5t150.5 120.5t131 157.5t117 176.5l106 175q50 86 100 157zM1054 1125q29 -1 36 -9q3 -3 3 -13q0 -8 -3 -21q-2 -6 -6 -20.5t-13.5 -28t-25.5 -22.5q-12 -7 -30 -7q-5 0 -12 1q-20 2 -29 7t-12 12q-2 5 -2 10 q0 3 1 6q2 9 4 19q1 6 8 15l13 16q7 7 12 13.5t2 8.5q10 6 23.5 10t30.5 3zM1316 1128h8q3 0 5 -2q1 -2 4 -5.5t5 -8t2 -10t-4 -9.5q-5 -9 -4 -11.5t-1 -12.5q-2 -7 -6 -17.5t-14 -20.5t-26 -17.5t-41 -7.5q-20 0 -31 14q-6 8 -6 18q0 8 3 16q1 12 9.5 24t22.5 22.5t32.5 18 t41.5 9.5z" />
<glyph unicode="&#x2c6;" horiz-adv-x="42" d="M-81 390q13 6 40 23.5t57 40t58 46t45 41.5q14 13 20 13h2q6 -3 12 -8q14 -20 34.5 -40.5t44.5 -39.5t49.5 -34.5t49.5 -24.5q-6 -9 -21 -19.5t-32.5 -19t-33 -14t-21.5 -6.5q-5 0 -21 9.5t-35 24.5t-37 34t-28 38q-7 9 -11 12t-18 -8l-31 -23l-36 -25q-17 -12 -31 -20.5 t-20 -9.5q-14 -2 -24 -2.5t-12 12.5z" />
<glyph unicode="&#x2dc;" horiz-adv-x="593" d="M284 313q-10 0 -18 -8t-15.5 -19.5t-15.5 -22.5t-19 -17q-5 0 -12.5 2t-7.5 5q0 1 8.5 12t22 26t30.5 32l33 31q15 15 28.5 24.5t20.5 9.5q9 -1 33 -14l50 -27l50 -27q23 -12 29 -12h1q19 7 26.5 17t11 19.5t7 16t14.5 6.5q4 0 4 -5q0 -4 -4 -11t-5 -11q0 -6 -12.5 -24.5 t-28.5 -39t-31 -36.5t-20 -16q-21 0 -49 13.5t-55 29.5l-48 30q-21 14 -28 16z" />
<glyph unicode="&#x2000;" horiz-adv-x="727" />
<glyph unicode="&#x2001;" horiz-adv-x="1454" />
<glyph unicode="&#x2002;" horiz-adv-x="727" />
<glyph unicode="&#x2003;" horiz-adv-x="1454" />
<glyph unicode="&#x2004;" horiz-adv-x="484" />
<glyph unicode="&#x2005;" horiz-adv-x="363" />
<glyph unicode="&#x2006;" horiz-adv-x="242" />
<glyph unicode="&#x2007;" horiz-adv-x="242" />
<glyph unicode="&#x2008;" horiz-adv-x="181" />
<glyph unicode="&#x2009;" horiz-adv-x="290" />
<glyph unicode="&#x200a;" horiz-adv-x="80" />
<glyph unicode="&#x2010;" horiz-adv-x="553" d="M113 150q-2 3 -2 8q0 10 9 24q11 22 27.5 44t34 39.5t25.5 20.5q6 -33 26.5 -47.5t50.5 -18.5q14 -2 29 -2q18 0 37 2q35 5 71 11.5t69 10.5q20 3 36 3q11 0 21 -1q-16 -7 -26 -18.5t-19 -23t-19.5 -19.5t-27.5 -8q-82 -24 -133 -31q-46 -7 -79 -7h-8q-35 1 -62 6t-60 7z " />
<glyph unicode="&#x2011;" horiz-adv-x="553" d="M113 150q-2 3 -2 8q0 10 9 24q11 22 27.5 44t34 39.5t25.5 20.5q6 -33 26.5 -47.5t50.5 -18.5q14 -2 29 -2q18 0 37 2q35 5 71 11.5t69 10.5q20 3 36 3q11 0 21 -1q-16 -7 -26 -18.5t-19 -23t-19.5 -19.5t-27.5 -8q-82 -24 -133 -31q-46 -7 -79 -7h-8q-35 1 -62 6t-60 7z " />
<glyph unicode="&#x2013;" horiz-adv-x="271" d="M44 149q-2 3 -2 8q0 10 12 25q17 22 42 44.5t51.5 40.5t38.5 22q9 -33 40.5 -48.5t76.5 -19.5q21 -2 44 -2q26 0 55 3q54 4 108.5 10.5t103.5 11.5q30 2 55 2q17 0 32 -1q-24 -7 -39 -19l-30 -23q-14 -11 -30 -19.5t-41 -8.5q-83 -16 -144 -24.5t-107 -12.5 q-36 -2 -65 -2h-16q-35 1 -64.5 3.5t-58 5.5t-62.5 4z" />
<glyph unicode="&#x2014;" horiz-adv-x="421" d="M118 140q-3 4 -3 9q0 6 5 15q10 15 29.5 32t45.5 35t52 33.5t48.5 26t35.5 13.5q13 -39 60 -57t115 -23q30 -2 63 -2q41 0 85 4q82 5 164 12l156 13q45 4 83 4q25 0 47 -2q-37 -9 -60 -23t-43 -27.5t-44 -23t-62 -9.5q-124 -19 -216 -29t-161 -14q-56 -3 -101 -3h-21 q-53 1 -97.5 4t-87.5 6.5t-93 5.5z" />
<glyph unicode="&#x2018;" horiz-adv-x="120" d="M63 414q-10 0 -21 3t-20.5 7.5t-16 10t-6.5 10.5q0 9 13 29t30.5 41t34 36.5t24.5 15.5q13 -2 13 -15q0 -3 -6 -12l-12 -20l-11.5 -21t-5.5 -15q0 -6 0.5 -12t0.5 -11q0 -6 -1 -14t-3 -15.5t-5.5 -12.5t-7.5 -5z" />
<glyph unicode="&#x2019;" horiz-adv-x="125" d="M144 580q10 0 21 -3t20.5 -7.5t16 -10t6.5 -10.5q0 -9 -13 -29t-30.5 -41t-34.5 -36.5t-24 -15.5q-13 2 -13 15q0 3 5 12l12 20q7 11 12.5 21t5.5 15q0 6 -0.5 12t-0.5 11q0 6 1 14t3 15.5t5 12.5t8 5z" />
<glyph unicode="&#x201a;" horiz-adv-x="111" d="M21 -58q-3 -3 -4 -3q-4 0 -4 7q0 4 2 7q18 23 31 48.5t13 54.5q0 7 -2 14l-5 19q0 1 -0.5 1.5t-0.5 1.5q0 3 3 7.5t7.5 9t8.5 7.5t7 3q7 0 11.5 -15.5t4.5 -29.5q0 -24 -20.5 -59t-51.5 -73z" />
<glyph unicode="&#x201c;" horiz-adv-x="176" d="M62 414q-10 0 -21 3t-20.5 7.5t-16 10t-6.5 10.5q0 9 13 29t30.5 41t34 36.5t24.5 15.5q13 -2 13 -15q0 -3 -5 -12l-12 -20q-7 -11 -12.5 -21t-5.5 -15q0 -6 0.5 -12t0.5 -11q0 -6 -1 -14t-3 -15.5t-5.5 -12.5t-7.5 -5zM121 414q-10 0 -21 3t-20.5 7.5t-16 10t-6.5 10.5 q0 9 13 29t30.5 41t34 36.5t24.5 15.5q13 -2 13 -15q0 -3 -6 -12l-12 -20l-11.5 -21t-5.5 -15q0 -6 0.5 -12t0.5 -11q0 -6 -1 -14t-3 -15.5t-5.5 -12.5t-7.5 -5z" />
<glyph unicode="&#x201d;" horiz-adv-x="181" d="M127 567q10 0 21 -3t20.5 -7.5t16 -10t6.5 -10.5q0 -9 -13 -29t-30.5 -41t-34.5 -36.5t-24 -15.5q-13 2 -13 15q0 3 6 13l12 20l11.5 20t5.5 15q0 6 -0.5 12t-0.5 11q0 6 1 14t3 15.5t5 12.5t8 5zM183 567q10 0 21 -3t20.5 -7.5t16 -10t6.5 -10.5q0 -9 -13 -29t-30.5 -41 t-34.5 -36.5t-24 -15.5q-13 2 -13 15q0 3 6 13l12 20l11.5 20t5.5 15q0 6 -0.5 12t-0.5 11q0 6 1 14t3 15.5t5 12.5t8 5z" />
<glyph unicode="&#x201e;" horiz-adv-x="192" />
<glyph unicode="&#x2022;" horiz-adv-x="538" d="M545 229q-17 -25 -45 -47.5t-61.5 -39.5t-70.5 -27t-71 -10q-59 0 -85 26q-17 18 -17 43q0 10 3 22q9 33 37 62t66 50t81 33t81 12q57 0 83 -24q19 -17 19 -42q0 -9 -3 -20q-2 -10 -7 -18.5t-10 -19.5z" />
<glyph unicode="&#x2026;" horiz-adv-x="548" d="M481 125q3 -2 4 -5t7 -10q-1 -5 -2.5 -13.5t-3.5 -18.5l-2 -20q-2 -10 -2 -17q0 -10 1 -13q-2 -6 -2 -12.5t-5.5 -12t-18.5 -9t-41 -3.5q-4 0 -10 1t-11.5 4.5t-9.5 10.5t-4 20q0 8 7.5 24.5t20.5 33t30.5 28.5t36.5 12h5zM123 112q4 -2 13 -12t10 -17q0 -1 -2 -7l-4 -11 l-4 -11q-2 -6 -2 -7q0 -18 -5 -29t-15.5 -16t-25.5 -6.5t-35 -1.5q-10 0 -19.5 9.5t-9.5 24.5q0 9 7 23t19.5 27.5t29 23.5t36.5 10h7zM277 115q1 -1 6.5 -4.5t11 -8t10.5 -9t7 -7.5q-2 -11 -7.5 -20.5t-5.5 -18.5q0 -20 -4.5 -31t-13 -16.5t-21.5 -7t-30 -1.5 q-8 0 -16.5 10t-8.5 26q0 9 4.5 24t13.5 29t21 24.5t27 10.5h6z" />
<glyph unicode="&#x202f;" horiz-adv-x="290" />
<glyph unicode="&#x2039;" horiz-adv-x="248" d="M217 332q5 2 11.5 3t13.5 1h6q4 0 4 -4q-12 -20 -29 -38.5t-35 -34.5t-35 -29l-30 -24q0 -49 9.5 -99.5t20.5 -101.5q-2 -2 -9 -2.5t-14 -0.5q-23 0 -32 5l-18 39q-10 21 -19 45t-15.5 49.5t-8.5 50.5q0 3 8.5 10.5t18.5 15.5l22 15q10 8 15 11q31 20 60.5 41.5 t55.5 47.5z" />
<glyph unicode="&#x203a;" horiz-adv-x="261" d="M104 4q-5 -2 -11.5 -3t-13.5 -1h-6q-4 0 -4 4q12 20 29 38.5t35 34.5t35 29l30 24q0 49 -9.5 99.5t-20.5 101.5q2 2 9 2.5t14 0.5q23 0 32 -5l17 -39q10 -21 19 -45t16 -49.5t9 -50.5q0 -3 -8.5 -10.5t-19.5 -15.5l-20 -15q-11 -8 -16 -11q-31 -20 -60.5 -41.5 t-55.5 -47.5z" />
<glyph unicode="&#x205f;" horiz-adv-x="363" />
<glyph unicode="&#x2122;" horiz-adv-x="1861" d="M723 1052q33 2 76 6l89 10q45 5 89 9t79 4t56 -5t21 -19q0 -11 -18.5 -29t-60.5 -44q0 4 2.5 10t2.5 13q0 6 -4 11.5t-15 8.5q-29 2 -53 2.5t-47 0.5q-22 0 -44.5 -0.5t-49.5 -1.5q-85 -2 -148.5 -3t-115.5 -2q-11 -43 -28 -103t-37 -122.5t-42.5 -119t-43.5 -93.5 q-5 -9 -5 -19v-7q0 -6 -1.5 -11.5t-7.5 -8.5q-17 -9 -44 -19t-48 -10q-2 0 -4.5 0.5t-4.5 0.5q29 57 44.5 112.5t15.5 108.5q0 58 -18 108.5t-55.5 87.5t-94.5 58t-135 21q-8 0 -17 -1t-16 -1.5t-10 0.5q-2 1 -2 2t1 3q5 6 8.5 13t9.5 13t17 9.5t32 3.5q18 0 36 -2t36 -3 q35 -3 69 -5t68 -2q59 0 117 2l116 4v2q0 5 -3.5 12t-7.5 13q-5 7 -11 13q0 8 12 17t28 16.5t32 12.5t24 5q0 -8 -3 -18.5t-7 -21.5l-8 -22q-4 -11 -5 -19q-1 -2 -1 -4t-1 -4zM408 645q28 49 50.5 104t38.5 106.5t26 95.5t13 72h-87h-79q-38 0 -78.5 0.5t-89.5 0.5 q-10 0 -10 -2q4 -3 10 -4q47 -10 86.5 -34.5t67.5 -60.5t43.5 -82t15.5 -99q0 -51 -16 -105q3 0 6 2.5t3 5.5zM473 1059q49 0 101 -6t104.5 -14t105 -17.5t103.5 -15.5l-2 37q-1 19 -5 36q1 4 12 11.5t25 14.5t27.5 12t19.5 5q2 0 4 -2q-8 -21 -15 -51t-12 -68q9 -1 18 -1.5 t18 -0.5q5 0 19 -1l30 -2q16 -1 28 -2.5t12 -3.5l-4 -2q-3 -3 -8 -6l-10 -6q-4 -2 -7 -2q-49 0 -98 6q-6 -53 -10.5 -115.5t-6.5 -130.5q-1 -21 -2 -50q-1 -19 -1 -36q0 -9 1 -18q0 -26 1.5 -44t6.5 -18q9 0 25.5 18.5t36.5 49t41.5 70t41 80t34 80t21.5 70.5q6 28 17.5 49 t40.5 31q13 0 18.5 -9.5t6.5 -22t-0.5 -25t-1.5 -18.5q-1 -17 -9 -65l-20 -111q-11 -64 -20.5 -136.5t-12.5 -139.5q-1 -23 -1 -44t1 -40q2 -39 10.5 -68.5t25 -46.5t45.5 -17q12 0 27 5q-25 -25 -55 -36t-46 -11q-29 0 -41.5 23t-16.5 55q-2 19 -2 38q0 14 2 28q2 34 3 56 q2 49 9 109t15 121l15 119q7 58 9 103q1 8 0 16.5t-3 8.5l-13 -28q-5 -10 -11 -24l-12 -30q-27 -64 -61.5 -122.5t-76.5 -115.5q-19 -26 -44 -52l-47 -47q-10 -8 -17 -8q-5 0 -5 7q0 2 1 3q8 43 13 84.5t8 83.5t5 85.5t4 92.5q1 18 1.5 35t1 30.5t0.5 21.5t-1 8q-2 0 -3 -4 q-38 -98 -99 -193l-20 -31q-10 -16 -21 -31l-57 -73q-31 -40 -67 -76t-77.5 -64.5t-90.5 -41.5q-11 -3 -22.5 -5t-23.5 -2q-28 0 -38.5 13t-9.5 27q1 31 20 56.5t42 43.5q0 -1 -1 -1.5t-1 -2.5q-4 -10 -6 -23q-1 -20 12 -36t40 -16q26 0 46.5 4.5t38 13.5t33.5 22l34 29 q23 20 41 43l37 48q50 69 90.5 143t72.5 152q5 14 11.5 30t11.5 32q-54 9 -107 20.5t-108 19.5l-93 13q-47 7 -94 7q-66 0 -100 -19t-36 -51q0 -15 6 -30.5t16 -29t22 -24.5t24 -18q14 -8 21 -11l21 -9q-4 -1 -12 -1q-25 0 -54.5 11.5t-54.5 29.5t-42 41q-15 22 -15 44 q0 24 19 40q19 14 47.5 22.5t63 11.5t66.5 3z" />
</font>
</defs>
</svg>
